<?xml version="1.0" encoding="utf-8"?>
<!-- Generator: Adobe Illustrator 22.0.0, SVG Export Plug-In . SVG Version: 6.00 Build 0)  -->
<svg version="1.1" id="Layer_1" xmlns="http://www.w3.org/2000/svg" xmlns:xlink="http://www.w3.org/1999/xlink" x="0px" y="0px"
	 viewBox="0 0 70.2 52.9" style="enable-background:new 0 0 70.2 52.9;" xml:space="preserve">
<style type="text/css">
	.st0{fill:#C4B2A9;}
	.st1{fill:#603124;}
	.st2{fill:#613326;}
	.st3{fill:#623225;}
	.st4{fill:#623326;}
	.st5{fill:#623327;}
	.st6{fill:#613225;}
	.st7{fill:#623226;}
	.st8{fill:#886459;}
	.st9{fill:#9C7D72;}
	.st10{fill:#FEFEFE;}
	.st11{fill:#633427;}
	.st12{fill:#653629;}
	.st13{fill:#66372B;}
</style>
<g>
	<path class="st0" d="M5.4,22.8c-0.1,0-0.1,0-0.2,0c-0.7,0-1.3,0-2,0c-0.1,0-0.2,0-0.3,0v19.9c0,0,0,0-0.1,0v-20c0.7,0,1.5,0,2.2,0
		C5.2,22.8,5.3,22.8,5.4,22.8z"/>
	<path class="st1" d="M65.4,17.1v-2.8c-5.7,0.2-11.3,0.7-17,1.3c-0.1,0.4-0.1,0.9-0.2,1.3c2.7-0.2,5.4-0.5,8.1-0.7
		c2.7-0.2,5.4-0.4,8.1-0.5v2.8h2.5v17.4c-0.8,0-1.7,0-2.5,0.1v3c-4.5,0.2-9,0.6-13.4,1v-1c4.2-0.4,8.4-0.8,12.7-1v-3
		c0.8,0,1.7,0,2.5-0.1V19.4c-0.8,0-1.7,0-2.5,0.1c0-1,0-1.9,0-2.8c-5.2,0.2-10.4,0.7-15.6,1.3c0,0.2-0.1,0.3-0.1,0.4
		c2.6-0.2,5.1-0.5,7.7-0.7c2.6-0.2,5.1-0.4,7.7-0.5V19c0,0.3,0,0.6,0,0.9c0.9,0,1.7-0.1,2.5-0.1v14.5c-0.8,0.1-1.7,0-2.5,0.1v3
		c-4.1,0.2-8.2,0.5-12.3,0.9v-1.2c-10.3,1.2-20.7,2.4-31,3.6c0,0.4,0,0.8,0,1.2c-3,0.4-11.8,1-12.3,0.9V40c-0.8,0-1.7,0-2.5,0.1
		V25.5c0.8,0,1.7,0,2.5-0.1v-2.9c5.5-0.3,10.9-0.8,16.4-1.4c0-0.1-0.1-0.2-0.1-0.2c0-0.1-0.1-0.1-0.1-0.2c-5.5,0.6-11,1.1-16.6,1.4
		V25c-0.8,0-1.7,0-2.5,0.1v15.4c0.8,0,1.7,0,2.5-0.1v3c4.2-0.2,8.4-0.6,12.7-1v1c-1.2,0.2-12.7,1.1-13.4,1v-2.9c-0.8,0-1.7,0-2.5,0
		V24.1c0.8,0,1.7,0,2.5-0.1v-2.8c5.7-0.2,11.3-0.7,17-1.4c-0.1-0.4-0.3-0.8-0.4-1.2c0,0,0,0,0-0.1c-5.8,0.6-11.7,1.1-17.6,1.3v0.3
		c0,0.8,0,1.5,0,2.3c0,0.1,0,0.2,0,0.2c-0.1,0-0.1,0-0.2,0c-0.7,0-1.3,0-2,0c-0.1,0-0.2,0-0.3,0v19.9h2.5v3c4.8-0.2,9.6-0.5,14.5-1
		v5.4c10.3-1.2,20.7-2.4,31-3.6v-1.1c0-0.4,0-0.7,0-1.1v-2.2c0-0.4,0-0.7,0-1.1c4.8-0.5,9.6-0.9,14.5-1c0-1,0-2,0-3h2.5v-20H65.4z
		 M23.7,45.8c-0.1,0.3-0.3,0.6-0.5,0.8c-0.4,0.2-0.8,0.3-1.2,0.3c-0.3,0-0.5,0-0.8-0.2c-0.2-0.1-0.2-0.5,0-0.6
		c0.1-0.1,0.2-0.1,0.3,0c0.3,0.2,0.6,0.2,0.9,0.2c0.2,0,0.4-0.1,0.6-0.3c0.1-0.2,0.1-0.4-0.2-0.5c-0.2-0.1-0.3-0.1-0.5-0.1
		c-0.2-0.1-0.4-0.1-0.6-0.2c-0.4-0.1-0.5-0.4-0.5-0.8c0.1-0.3,0.2-0.6,0.5-0.8c0.4-0.3,0.9-0.4,1.4-0.3c0.1,0,0.2,0.1,0.3,0.1
		c0.2,0.1,0.2,0.2,0.1,0.4c-0.1,0.2-0.2,0.2-0.4,0.2c-0.2-0.1-0.5-0.2-0.7-0.1c-0.1,0-0.3,0.1-0.4,0.1c-0.1,0.1-0.2,0.2-0.2,0.3
		c-0.1,0.2,0,0.3,0.2,0.4c0.2,0.1,0.3,0.1,0.5,0.1c0.2,0.1,0.4,0.1,0.6,0.2C23.6,45,23.7,45.3,23.7,45.8z M27.3,44.1
		c0,0.6-0.1,1.1-0.1,1.7c0,0.1,0,0.1,0,0.2c0,0.2-0.1,0.3-0.3,0.3c-0.2,0-0.3,0-0.4-0.1c-0.1-0.1-0.1-0.1-0.2-0.2
		c-0.4-0.5-0.8-1.1-1.3-1.6C25,44.4,25,44.5,25,44.6c0,0.5-0.1,1-0.1,1.5c0,0.1,0,0.2,0,0.2c-0.1,0.2-0.3,0.3-0.4,0.2
		c-0.1,0-0.2-0.1-0.2-0.3c0.1-0.7,0.1-1.3,0.2-2c0-0.2,0-0.5,0.1-0.7c0-0.2,0.1-0.3,0.2-0.4c0.2-0.1,0.3,0,0.5,0.2
		c0.4,0.5,0.8,1,1.2,1.6c0.1,0.1,0.1,0.1,0.2,0.3c0-0.4,0.1-0.7,0.1-1c0-0.3,0-0.6,0.1-0.9c0-0.1,0.1-0.2,0.1-0.3
		c0.1-0.1,0.2-0.2,0.4-0.1c0.1,0.1,0.2,0.2,0.2,0.3C27.4,43.5,27.3,43.8,27.3,44.1z M30.9,45.8c-0.2,0.1-0.3,0-0.4-0.1
		c-0.1-0.1-0.1-0.2-0.2-0.4c-0.4,0-0.8,0.1-1.1,0.1c-0.1,0-0.3,0-0.4,0c-0.2,0-0.3,0.1-0.4,0.3c0,0.1-0.1,0.1-0.1,0.2
		c-0.1,0.1-0.2,0.2-0.3,0.2c-0.2,0-0.4-0.1-0.3-0.3c0-0.1,0.1-0.2,0.1-0.2c0.5-0.9,1-1.8,1.5-2.7c0.1-0.1,0.1-0.2,0.2-0.3
		c0.2-0.1,0.4-0.1,0.5,0.1c0.4,0.8,0.8,1.7,1.1,2.6C31.2,45.5,31,45.7,30.9,45.8z M34.5,42.8C34.4,43,34.2,43,34,42.9
		c-0.2-0.2-0.5-0.2-0.8-0.2c-0.8,0.1-1.3,0.9-1.1,1.7c0.1,0.4,0.4,0.6,0.8,0.7c0.3,0,0.6-0.1,0.9-0.3c0.1-0.1,0.1-0.1,0.2-0.2
		c0.1-0.1,0.3,0,0.3,0.1c0.1,0.1,0.1,0.2,0,0.3c-0.1,0.1-0.1,0.2-0.2,0.3c-0.4,0.3-0.8,0.4-1.3,0.4c-0.2,0-0.3,0-0.5-0.1
		c-0.4-0.1-0.7-0.4-0.8-0.8c-0.3-1,0.2-2.4,1.6-2.7c0.4-0.1,0.9-0.1,1.3,0.2C34.6,42.4,34.6,42.6,34.5,42.8z M36.9,43.4
		c0.3,0.4,0.6,0.7,0.9,1.1c0.2,0.2,0.1,0.4-0.1,0.6c-0.2,0.1-0.3,0.1-0.4-0.1c-0.3-0.3-0.5-0.7-0.8-1c-0.1-0.1-0.1-0.1-0.2-0.2
		c-0.2,0.2-0.3,0.3-0.5,0.5c0,0.1-0.1,0.2-0.1,0.2c0,0.2,0,0.4-0.1,0.5c0,0.2-0.1,0.2-0.2,0.3c-0.2,0.1-0.4,0-0.4-0.3
		c0-0.6,0.1-1.1,0.1-1.7c0-0.4,0.1-0.7,0.1-1c0-0.2,0.1-0.4,0.3-0.4c0.2-0.1,0.4,0,0.4,0.3c0,0.3,0,0.6-0.1,0.9c0,0.1,0,0.2,0,0.3
		c0,0,0,0,0,0c0.2-0.2,0.5-0.5,0.7-0.7c0.2-0.3,0.5-0.5,0.7-0.8c0-0.1,0.1-0.1,0.1-0.1c0.1-0.1,0.3-0.1,0.4,0c0.1,0.1,0.1,0.2,0,0.4
		c-0.2,0.2-0.3,0.4-0.5,0.6c-0.2,0.2-0.4,0.4-0.5,0.6C36.8,43.3,36.9,43.4,36.9,43.4z M42.8,43.7c-0.1,0.5-0.5,0.8-1,0.9
		c-0.6,0.1-1.2,0.2-1.8,0.2c-0.2,0-0.3-0.1-0.3-0.3c0-0.6,0.1-1.1,0.1-1.7c0-0.3,0.1-0.7,0.1-1c0-0.3,0.1-0.4,0.4-0.4
		c0.4-0.1,0.9-0.1,1.3-0.1c0.3,0,0.6,0,0.8,0.3c0.2,0.3,0.1,0.7-0.1,1c0,0.1-0.1,0.1-0.1,0.2C42.8,42.9,42.9,43.2,42.8,43.7z
		 M46.4,44.1c-0.2,0.1-0.3,0.1-0.4-0.1c0-0.1-0.1-0.1-0.1-0.2c0-0.1-0.1-0.1-0.1-0.2c-0.6,0.1-1.2,0.1-1.8,0.2
		c-0.1,0.1-0.2,0.3-0.2,0.4c-0.1,0.1-0.2,0.2-0.3,0.2c-0.2,0-0.3-0.1-0.3-0.3c0-0.1,0-0.1,0.1-0.2c0.5-0.9,1.1-1.9,1.6-2.8
		c0,0,0.1-0.1,0.1-0.1c0.2-0.2,0.5-0.2,0.6,0.1c0.3,0.6,0.6,1.3,0.9,1.9c0.1,0.2,0.2,0.4,0.3,0.6C46.7,43.8,46.6,44,46.4,44.1z
		 M49.8,43.1c0.2,0.2,0.1,0.4-0.1,0.6c-0.2,0.1-0.3,0.1-0.4-0.1c-0.2-0.2-0.3-0.5-0.5-0.7c-0.1-0.1-0.2-0.2-0.4-0.2
		c-0.2,0-0.4,0-0.6,0.1c0,0.3,0,0.5-0.1,0.8c0,0.2-0.1,0.3-0.2,0.4c-0.2,0.1-0.4,0-0.4-0.3c0-0.5,0.1-1.1,0.1-1.6
		c0-0.4,0.1-0.7,0.1-1.1c0-0.3,0.1-0.4,0.4-0.5c0.4,0,0.8-0.1,1.1-0.1c0.2,0,0.3,0,0.5,0c0.3,0.1,0.6,0.3,0.6,0.7
		c0.1,0.5-0.1,0.9-0.5,1.2c-0.1,0-0.1,0.1-0.2,0.1c0,0,0,0,0,0.1C49.4,42.7,49.6,42.9,49.8,43.1z"/>
	<path class="st2" d="M48,16c-0.3-0.8-0.9-1.2-1.8-1.2c-0.9,0-1.8,0-2.8,0H31c-2.2,0-4.4,0-6.6,0c-0.9,0-1.6,0.6-1.9,1.4
		c-0.2,0.8,0.1,1.7,0.8,2.2c0.1,0,0.1,0.1,0.2,0.1v0.2c0,0.8,0.2,1.5,0.6,2.1c0.8,1.4,2.1,2.1,3.7,2.1c4.9,0,9.8,0,14.7,0
		c0.2,0,0.4,0,0.6,0c1.7-0.3,2.8-1.2,3.4-2.8c0.2-0.4,0.2-0.9,0.2-1.4c0.1,0,0.2-0.1,0.3-0.1C48,18.1,48.4,17,48,16z M45.8,19.5
		C45.4,21,44.1,22,42.6,22c-3.4,0-6.9,0-10.3,0c-1.5,0-3,0-4.5,0c-1.5,0-2.8-1-3.2-2.5c0-0.1-0.1-0.3-0.1-0.4c0-0.1,0-0.3,0-0.4h0.3
		c3.1,0,6.3,0,9.4,0c0.2,0,0.3,0,0.5,0.1c1.4,0.9,2.8,1.8,4.3,2.7c0.3,0.2,0.5,0.2,0.8,0c1.4-0.9,2.9-1.8,4.3-2.8
		c0.1-0.1,0.3-0.1,0.5-0.1c0.5,0,0.9,0,1.4,0C45.9,19,45.8,19.2,45.8,19.5z M36.2,18.7C36.2,18.7,36.2,18.7,36.2,18.7l6.3,0
		c-1,0.7-2.1,1.4-3.1,2.1C38.2,20.1,37.2,19.4,36.2,18.7z M46.3,17.8c-0.6,0-1.3,0-1.9,0c-2.1,0-4.1,0-6.2,0c-4.5,0-9,0-13.5,0
		c-0.1,0-0.3,0-0.4,0c-0.5-0.1-0.9-0.5-0.8-1.1c0-0.5,0.4-0.9,0.9-1c0.1,0,0.2,0,0.3,0c3.6,0,7.1,0,10.7,0c0,0,0,0,0,0H46
		c0.1,0,0.2,0,0.3,0c0.6,0,1,0.5,1,1C47.3,17.3,46.8,17.8,46.3,17.8z"/>
	<path class="st3" d="M47,10.2c0-1.4-0.4-2.7-1.3-3.8c-0.9-1.2-2.1-2.1-3.5-2.8c-1.7-0.8-3.4-1.1-5.2-1.1c-1.1,0-2.2,0-3.4,0
		c-0.9,0-1.8,0.1-2.6,0.3c-1.6,0.3-3.2,1-4.5,2c-1,0.7-1.7,1.6-2.3,2.7c-0.7,1.3-0.7,2.8-0.6,4.2c0,0.2,0.2,0.3,0.4,0.4
		c0.1,0,0.2,0,0.3,0c3.7,0,7.4,0,11,0h8.8c0.8,0,1.6,0,2.4,0c0.4,0,0.5-0.2,0.5-0.5C47,11.1,47,10.7,47,10.2z M46.1,11.1H24.5
		c0-0.1,0-0.1,0-0.2c0-0.5,0-1,0.1-1.5c0.1-1.1,0.6-2,1.3-2.9c1-1.1,2.2-1.9,3.5-2.4c1.1-0.4,2.3-0.7,3.5-0.7c1.7-0.1,3.4-0.1,5.2,0
		c2.2,0.2,4.2,0.9,5.9,2.3c0.9,0.8,1.6,1.7,2,2.9c0.1,0.5,0.2,1,0.2,1.5V11.1z"/>
	<path class="st4" d="M28.8,30.5c0,0,0-0.1-0.1-0.1c-0.1,0.1-0.2,0.2-0.2,0.3c-0.6,1-1.3,1.9-2.1,2.8c-0.2,0.2-0.4,0.3-0.6,0.4
		c-0.2-0.1-0.2-0.3-0.2-0.5c0-0.5,0-0.9,0.1-1.4c0-0.4,0.1-0.9,0.2-1.3c0-0.4,0.2-0.7,0.2-1c0-0.1,0.1-0.2,0.2-0.2
		c0.1,0,0.3-0.1,0.4-0.1c0-0.1,0.1-0.2,0.2-0.1c0.2,0,0.4-0.1,0.6-0.1c0.2,0,0.3,0,0.5-0.1c-0.6-0.2-1.2-0.2-1.8-0.1
		c0-0.2,0-0.4,0.1-0.6c0.1-0.4,0.2-0.8,0.2-1.2c0-0.5-0.1-0.8-0.6-0.9c-0.5-0.1-0.8,0.2-0.9,0.6c0,0.3-0.1,0.7-0.1,1
		c-0.1,0.4-0.1,0.8-0.2,1.1c0,0.1-0.1,0.2-0.2,0.2c-0.3,0.1-0.6,0.2-0.8,0.3c-0.2,0.1-0.3,0.2-0.5,0.2c-0.1,0-0.2,0.1-0.1,0.2
		c0,0,0,0,0.1,0c0-0.1,0-0.1,0.1-0.2c0.1,0,0.2,0.1,0.3,0.1c0.2,0,0.4,0,0.6-0.1c0.1-0.1,0.3-0.1,0.5-0.1c-0.1,0.3-0.1,0.5-0.2,0.7
		c-0.2,0.1-0.4,0.1-0.6,0.1c-0.7,0.2-1.4,0.5-2,0.8c-0.2,0.1-0.2,0.1-0.4-0.1c-0.2-0.2-0.4-0.4-0.6-0.6c-0.1-0.1-0.2-0.2-0.2-0.4
		c-0.1,0-0.2,0-0.2-0.1c0-0.1,0-0.1,0.1-0.2c0.1-0.2,0.3-0.3,0.4-0.5c0.1-0.2,0.3-0.2,0.5-0.3c0.2,0,0.4,0.1,0.4,0.3
		c0,0.2,0,0.4-0.1,0.6c0.2,0.1,0.4,0.1,0.6,0c0,0,0.1-0.1,0.2-0.1c0.2-0.1,0.3-0.5,0.3-0.7c-0.1-0.3-0.4-0.5-0.7-0.5
		c-0.8,0-1.6,0.3-2.2,0.8c-0.1,0.1-0.3,0.3-0.4,0.4c-0.1,0.1-0.1,0.3-0.1,0.5c0.1,0.2,0.2,0.4,0.3,0.6c0.1,0.1,0.1,0.1,0.2,0.2
		c-0.6,0.6-1,1.5-1.8,2.1c0-0.2-0.1-0.3-0.1-0.5c-0.1-0.5-0.1-0.9,0-1.4c0-0.2,0.1-0.4,0.1-0.6c0-0.1,0-0.2,0-0.3c0-0.1,0-0.2,0-0.2
		c-0.2-0.2-0.3-0.3-0.6-0.2c-0.3,0-0.4,0.2-0.5,0.4c-0.1,0.1-0.1,0.2-0.2,0.3c-0.2,0.3-0.4,0.5-0.6,0.8c-0.3,0.5-0.7,0.9-1.1,1.4
		c-0.1,0.1-0.1,0.1-0.2,0.2c0,0,0,0-0.1,0c0-0.2,0-0.3,0-0.5c0-0.4,0.2-0.8,0.4-1.2c0-0.1,0-0.1,0.1-0.2c0.2-0.5,0.4-0.9,0.8-1.3
		c0.2-0.2,0.3-0.2,0.6-0.2c0.1,0,0.2,0,0.3,0.1c0.2,0,0.4,0.1,0.6,0.1c0.1,0,0.3,0,0.4-0.1c0,0,0-0.1-0.1-0.1
		c-0.5-0.2-0.9-0.4-1.4-0.4c-0.4,0-0.7,0-1,0.2c-0.2,0.1-0.4,0.3-0.6,0.5c-0.5,0.6-0.9,1.3-1.1,2c-0.1,0.4-0.2,0.8-0.2,1.3
		c0,0.1,0,0.3,0.1,0.4c0,0.1,0.2,0.2,0.3,0.3c0.3,0.1,0.7,0.1,1,0c0.3-0.1,0.6-0.2,0.8-0.4c0.3-0.3,0.5-0.7,0.8-1
		c0-0.1,0.1-0.1,0.2-0.2c0,0.1,0,0.2,0.1,0.2c0,0.2,0,0.4,0.1,0.6c0.1,0.3,0.2,0.6,0.6,0.7c0.3,0.1,0.6,0.1,0.8-0.1
		c0.2-0.1,0.3-0.3,0.5-0.5c0.2-0.3,0.4-0.6,0.6-0.8c0.2-0.2,0.4-0.5,0.5-0.7c0-0.1,0.1-0.1,0.2-0.2c0.2,0.2,0.4,0.3,0.6,0.6
		c0,0,0,0.1-0.1,0.1c-0.3,0.2-0.6,0.4-0.8,0.7c-0.2,0.2-0.3,0.3-0.5,0.5c-0.1,0.2-0.3,0.3-0.4,0.5c-0.2,0.2-0.2,0.5-0.2,0.8
		c0,0.2,0.2,0.7,0.5,0.8c0.4,0.1,0.8,0.1,1.2,0c0.4-0.1,0.8-0.3,1.1-0.6c0-0.1,0.1-0.1,0.2-0.1c0.1,0,0.2-0.1,0.3-0.2
		c0.1-0.1,0.1-0.2,0.2-0.3c0,0,0.1-0.1,0.1-0.1c0.1-0.3,0.1-0.6,0.3-0.9c0-0.4-0.1-0.8-0.4-1.1c0-0.1-0.1-0.1-0.2-0.2
		c0.2-0.1,0.4-0.3,0.7-0.4c0.2-0.1,0.4-0.2,0.6-0.3c0.2-0.1,0.4-0.2,0.6-0.3c0.2-0.1,0.3-0.1,0.5-0.2c0,0.2-0.1,0.4-0.1,0.6
		c0,0.3,0,0.5-0.1,0.8c-0.1,0.8-0.1,1.5,0.1,2.3c0.1,0.2,0.3,0.4,0.5,0.4c0.2,0,0.5-0.1,0.7-0.1c0.1,0,0.2-0.1,0.3-0.2
		c0.2-0.2,0.4-0.4,0.6-0.5c0.2-0.2,0.4-0.4,0.6-0.7c0-0.1,0.1-0.2,0.1-0.2c0.2-0.3,0.4-0.5,0.6-0.8c0.5-0.7,1-1.4,1.4-2.3
		C29,30.3,28.9,30.4,28.8,30.5z M21.4,33.9c-0.1,0.5-0.4,0.9-0.8,1.2c-0.3,0.2-0.8,0.1-1-0.1c0-0.1-0.1-0.1-0.2-0.2
		c0-0.1,0.1-0.2,0.1-0.4c0-0.2,0.2-0.4,0.3-0.6c0.2-0.1,0.3-0.3,0.4-0.5c0.2-0.2,0.5-0.5,0.8-0.7c0.1,0.2,0.1,0.3,0.2,0.5
		c0,0,0,0.1,0,0.1C21.5,33.4,21.4,33.6,21.4,33.9z"/>
	<path class="st5" d="M62.9,25.2c-0.3,0.2-0.6,0.4-0.8,0.5c-0.1,0-0.1,0.1-0.2,0.1c0-0.2,0-0.5,0-0.7c0-0.3,0-0.3-0.3-0.5
		c0,0-0.1,0-0.1,0c-0.3-0.1-0.5,0-0.7,0.1c-0.2,0.1-0.3,0.2-0.3,0.4c0,0.1,0,0.1,0,0.2c0,0.4-0.1,0.8-0.1,1.1c0,0.1-0.1,0.2-0.2,0.3
		c-0.3,0.3-0.6,0.6-0.9,0.9c-0.3,0.3-0.6,0.6-0.9,0.9c-0.1,0.1-0.2,0.2-0.3,0.2c-0.4,0.3-0.8,0.6-1.2,0.8c0,0,0,0,0,0
		c-0.2,0-0.3,0-0.4-0.2c0-0.1,0-0.2,0-0.3c0-0.2,0.1-0.4,0.1-0.5c0-0.3,0.2-0.4,0.4-0.6c0.3-0.1,0.6-0.3,0.8-0.6
		c0,0,0.1-0.1,0.1-0.1c0.2-0.1,0.3-0.3,0.4-0.5c0-0.1,0.1-0.1,0.1-0.2c0.3-0.3,0.2-1-0.1-1.2c-0.3-0.2-0.6-0.3-1-0.3
		c-0.3,0-0.6,0.1-0.8,0.5c0,0.1-0.1,0.1-0.2,0.2c-0.2,0.3-0.3,0.5-0.5,0.8c-0.2,0.4-0.3,0.9-0.5,1.3c0,0.1-0.1,0.2-0.1,0.2
		c-0.1,0.1-0.3,0.2-0.4,0.2c-0.2,0.1-0.3,0.2-0.5,0.3c-0.1,0.1-0.2,0.1-0.3,0.2c0-0.1,0-0.1,0-0.2c0.1-0.4,0.2-0.9,0.3-1.3
		c0.1-0.2,0-0.3-0.2-0.4c-0.1,0-0.2-0.1-0.2-0.1c-0.2,0-0.4,0-0.6,0.1c-0.1,0-0.2,0.2-0.3,0.3c0,0,0,0,0,0.1c0,0.4-0.3,0.7-0.5,0.9
		c-0.4,0.4-0.9,0.8-1.3,1.1c-0.1,0.1-0.2,0.1-0.3,0.2c-0.1-0.8,1-2.5,2-3c0.3,0.2,0.6,0.5,1,0.2c0.1-0.2,0.1-0.3-0.1-0.4
		c-0.2-0.2-0.4-0.4-0.6-0.4c-0.3-0.1-0.6-0.1-0.9,0c-0.4,0.1-0.7,0.3-1,0.5c-0.6,0.5-1,1.1-1.4,1.8c-0.2,0.3-0.3,0.7-0.3,1
		c-0.1,0.7,0.1,0.9,0.7,1.1c0.5,0.1,0.9-0.1,1.3-0.3c0.2-0.2,0.5-0.4,0.7-0.6c0,0-0.1,0-0.1,0c0.1-0.1,0.2-0.2,0.3-0.3
		c0,0.3,0,0.5,0,0.8c0,0.1-0.1,0.2-0.1,0.3c-0.3,0.3-0.6,0.5-0.9,0.8c-0.2,0.2-0.3,0.3-0.5,0.5c-0.1,0.1-0.2,0.3-0.3,0.5
		c-0.1,0.2-0.3,0.3-0.4,0.5c-0.2,0.2-0.3,0.5-0.4,0.8c0,0.1-0.1,0.1-0.1,0.2c-0.3,0.5-0.5,0.9-0.5,1.5c0,0.1,0,0.2-0.1,0.3
		c-0.2,0.5,0,1.1,0.6,1.3c0.1,0.1,0.3,0.1,0.5,0.1c0.3,0,0.6-0.1,0.9-0.1c0.2,0,0.3-0.2,0.5-0.2c0.2-0.1,0.4-0.2,0.5-0.4
		c0.2-0.2,0.3-0.4,0.4-0.7c0.1-0.2,0.3-0.4,0.3-0.7c0-0.1,0.1-0.1,0.1-0.2c0-0.1,0.1-0.1,0.1-0.2c0.1-0.6,0.3-1.2,0.4-1.8
		c0.1-0.7,0.2-1.4,0.2-2.2c0-0.1,0-0.2,0.1-0.3c0.1-0.1,0.2-0.2,0.3-0.3c0.1-0.1,0.3-0.2,0.5-0.3c-0.1,0-0.1,0-0.2,0
		c0.2-0.1,0.4-0.3,0.6-0.4c0,0,0.1,0,0.1,0c0,0,0,0.1,0,0.1c0,0,0,0.1,0,0.1c0,0,0,0,0.1,0.1c0.1-0.1,0-0.3,0.2-0.4
		c0,0.3,0,0.6-0.1,1c0.1,0.1,0.1,0.2,0.2,0.4c0.1,0.1,0.1,0.2,0.2,0.2c0.1,0.1,0.2,0.2,0.3,0.2c0.3,0,0.5,0,0.8,0
		c0.3,0,0.6-0.1,0.9-0.3c0.8-0.6,1.6-1.4,2.2-2.2c0,0,0.1-0.1,0.1-0.1c0,0.3,0,0.6-0.1,0.8c0,0.3,0,0.6,0,0.9c0,0.1,0.1,0.2,0.2,0.2
		c0.4,0,0.7,0,1-0.2c0.1,0,0.1-0.1,0.1-0.2c0.1-0.2,0.1-0.5,0.1-0.7c0-0.3,0-0.6,0.1-0.9c0,0,0-0.1,0-0.1c0.2-0.4,0.5-0.8,0.8-1.2
		c0.1-0.1,0.2-0.2,0.3-0.2c0.3-0.1,0.5-0.4,0.8-0.4c0.1,0,0.1-0.1,0.2-0.2C63.3,25,63.2,25,62.9,25.2z M57.9,25.8
		C58,25.8,58,25.8,57.9,25.8c0.1,0.2,0.1,0.3,0,0.4c0,0.4-0.2,0.7-0.5,0.9c-0.1,0.1-0.2,0.2-0.4,0.4C57.2,26.8,57.5,26.2,57.9,25.8z
		 M52.7,30.4c-0.1,0.4,0,0.7-0.1,1.1c-0.1,0.6-0.2,1.1-0.3,1.7c-0.1,0.5-0.3,0.9-0.5,1.4c-0.2,0.4-0.5,0.7-0.8,1
		c-0.1,0.1-0.2,0.1-0.3,0.1c-0.2-0.1-0.3-0.2-0.4-0.4c-0.1-0.3-0.1-0.6-0.2-0.8c0-0.2,0-0.3,0.1-0.4c0-0.1,0.1-0.2,0.1-0.3
		c0.1-0.2,0.1-0.5,0.3-0.7c0.1-0.1,0.2-0.3,0.2-0.5c0-0.1,0.1-0.2,0.2-0.3c0.1-0.1,0.1-0.2,0.2-0.3c0-0.1,0.1-0.2,0.1-0.2
		c0.2-0.1,0.2-0.2,0.2-0.3c0,0,0,0,0-0.1c0.1-0.1,0.1-0.2,0.2-0.3c0.1-0.1,0.2-0.1,0.3-0.1c0,0,0,0,0-0.1c0,0,0.1-0.1,0.1-0.1
		c0.1-0.1,0.2-0.2,0.3-0.3c0,0,0-0.1,0-0.1c-0.1,0-0.1,0-0.2,0v0l0,0l0,0c0,0,0,0,0,0c0-0.1,0.1-0.2,0.2-0.3v0.2c0,0,0.1,0,0.1,0
		c0,0,0,0,0.1-0.1C52.7,30.3,52.8,30.4,52.7,30.4z"/>
	<path class="st6" d="M39.3,30.7c-0.1-0.5-0.3-1-0.6-1.4c-0.5-0.5-1-0.8-1.6-0.9c-0.2-0.1-0.5-0.1-0.7-0.2c0,0,0-0.1,0-0.1
		c0.3-0.3,0.7-0.5,1-0.8c0.5-0.4,0.9-0.8,1.2-1.3c0.2-0.4,0.4-0.8,0.3-1.2c0-0.4-0.2-0.7-0.6-1c-0.3-0.2-0.7-0.4-1.1-0.5
		c-0.1,0-0.2-0.1-0.3-0.1c-0.3,0-0.6-0.1-0.9-0.1c-0.7,0-1.3,0.2-1.9,0.4c-0.7,0.3-1.3,0.7-1.8,1.1c-0.1,0.1-0.3,0.3-0.4,0.4
		c-0.4,0.3-0.8,0.7-1,1.3c0,0.1,0.1,0.1,0.1,0.2c0.1-0.1,0.1-0.2,0.2-0.1c0,0.1,0,0.1,0,0.2c0.1,0,0.2-0.1,0.2-0.1
		c0.1-0.2,0.2-0.3,0.3-0.5c0.1-0.3,0.4-0.6,0.7-0.8c0.3-0.2,0.7-0.5,1.1-0.7c0.3-0.2,0.7-0.4,1.1-0.5c0.3-0.1,0.6-0.2,1-0.3
		c0.5-0.1,1-0.1,1.4,0.2c0.1,0.1,0.3,0.2,0.4,0.3c0.2,0.2,0.2,0.4,0.2,0.6c0,0.3-0.1,0.6-0.2,0.9c-0.1,0.2-0.2,0.3-0.3,0.5
		c-0.1,0.2-0.3,0.3-0.4,0.5c-0.2,0.3-0.5,0.5-0.8,0.8c-0.2,0.2-0.4,0.3-0.6,0.4c0,0,0,0,0,0c0,0,0,0,0,0c0-0.1,0-0.3,0-0.4
		c0-0.5,0.1-0.9,0.1-1.4c0-0.3,0-0.6-0.3-0.8c-0.2-0.2-0.4-0.2-0.5-0.3c-0.4-0.2-0.9,0-1.2,0.5c0,0,0,0.1,0,0.1c0,0.2,0,0.4,0,0.6
		c0,0.3-0.1,0.5-0.1,0.8c0.1,0.5,0,1-0.1,1.5c-0.5,0.3-1.1,0.4-1.6,0.7c0.2,0.1,0.3,0.4,0.6,0.2c0,0,0,0,0.1,0c0.2,0,0.4,0,0.5,0
		c0.1,0,0.2,0,0.3,0c-0.1,0.6-0.1,1.1-0.2,1.6c0,0.3-0.1,0.6-0.1,0.9c0,0.3,0,0.6-0.1,0.9c0,0.4-0.1,0.8-0.1,1.1
		c0,0.3,0,0.4,0.3,0.4c0,0,0,0,0.1,0c0,0.1,0.1,0.1,0.2,0.2c0.3,0,0.7,0.1,1,0.2c0,0,0,0,0.1,0c0.1,0.2,0.2,0.1,0.4,0.1
		c0.1,0,0.1-0.1,0.2,0c0.1,0.1,0.1,0,0.2,0c0.1,0,0.2-0.1,0.3-0.1c0.5-0.1,0.9-0.2,1.3-0.5c0.6-0.4,1.2-0.8,1.7-1.3c0,0,0,0,0,0
		c0,0,0,0,0,0c0,0,0,0,0,0c0,0,0,0,0,0c0.1-0.2,0.3-0.3,0.4-0.5c0,0,0.1-0.1,0.1-0.1c0.1,0,0.2-0.2,0.3-0.3c0.3-0.3,0.3-0.8,0.5-1.2
		C39.4,31,39.3,30.8,39.3,30.7z M37.8,31.2c-0.1,0.2-0.2,0.5-0.4,0.7c-0.4,0.7-0.9,1.2-1.6,1.7c-0.1,0.1-0.3,0.1-0.4,0.2
		c-0.2,0.2-0.6,0.3-0.8,0.5c-0.1,0.1-0.2,0.1-0.4,0.1c0-0.2,0-0.3,0-0.4c0-0.4,0.1-0.8,0.1-1.2c0.1-0.5,0.1-0.9,0.2-1.4
		c0.1-0.5,0.1-1,0.2-1.4c0-0.3,0.1-0.6,0.1-0.9c0.2-0.1,0.5-0.1,0.7-0.1c0.5,0,0.9,0.1,1.4,0.2c0.3,0.1,0.5,0.3,0.7,0.6
		c0.1,0.1,0.1,0.2,0.2,0.3C37.9,30.5,37.9,30.9,37.8,31.2z"/>
	<path class="st7" d="M48.5,13.2c-0.4,0-0.7,0.2-1.1,0.4c-0.3,0.2-0.6,0.3-0.9,0.5c-0.5,0.2-1,0.2-1.5,0c-0.3-0.2-0.7-0.4-1-0.6
		c-0.1-0.1-0.3-0.2-0.5-0.2c-0.3-0.1-0.5-0.1-0.8,0c-0.2,0.1-0.4,0.2-0.7,0.4c-0.3,0.2-0.5,0.3-0.8,0.5c-0.5,0.2-1,0.2-1.5,0
		c-0.2-0.1-0.4-0.2-0.7-0.4c-0.2-0.1-0.5-0.3-0.7-0.4c-0.3-0.2-0.7-0.2-1,0c-0.2,0.1-0.4,0.2-0.6,0.4c-0.2,0.1-0.5,0.3-0.7,0.4
		c-0.5,0.2-1,0.2-1.5,0c-0.3-0.1-0.6-0.3-0.8-0.5c-0.2-0.1-0.4-0.2-0.6-0.3c-0.3-0.1-0.6-0.1-0.8,0c-0.2,0.1-0.4,0.3-0.7,0.4
		c-0.3,0.1-0.5,0.3-0.8,0.4c-0.5,0.2-1,0.2-1.5,0c-0.3-0.1-0.5-0.3-0.8-0.4c-0.2-0.1-0.4-0.2-0.7-0.4c-0.3-0.1-0.5-0.1-0.8,0
		c-0.2,0.1-0.4,0.2-0.6,0.3c-0.3,0.2-0.5,0.3-0.8,0.5c-0.6,0.3-1.2,0.3-1.8,0c-0.2-0.1-0.5-0.3-0.7-0.4c-0.2-0.1-0.4-0.2-0.5-0.3
		c-0.2-0.1-0.3-0.1-0.5-0.1c-0.3,0-0.5-0.2-0.5-0.5c0-0.2,0.2-0.4,0.5-0.4c0.3,0,0.6,0.1,0.9,0.2c0.2,0.1,0.4,0.2,0.6,0.4
		c0.2,0.1,0.4,0.2,0.6,0.3c0.3,0.2,0.7,0.2,1,0c0.2-0.1,0.4-0.2,0.6-0.3c0.2-0.1,0.5-0.3,0.7-0.4c0.6-0.3,1.1-0.3,1.7,0
		c0.3,0.1,0.5,0.3,0.7,0.4c0.2,0.1,0.4,0.2,0.6,0.3c0.3,0.2,0.7,0.2,1,0c0.2-0.1,0.4-0.3,0.6-0.4c0.2-0.1,0.4-0.3,0.6-0.4
		c0.5-0.3,1.1-0.3,1.6,0c0.3,0.1,0.5,0.3,0.8,0.5c0.2,0.1,0.3,0.2,0.5,0.3c0.3,0.2,0.6,0.2,1,0c0.2-0.1,0.4-0.2,0.6-0.3
		c0.2-0.1,0.5-0.3,0.7-0.4c0.5-0.3,1.1-0.3,1.6,0c0.2,0.1,0.4,0.2,0.5,0.3c0.3,0.2,0.5,0.3,0.8,0.5c0.3,0.2,0.6,0.2,0.9,0
		c0.2-0.1,0.4-0.2,0.6-0.3c0.3-0.1,0.5-0.3,0.8-0.4c0.5-0.2,1.1-0.2,1.6,0c0.2,0.1,0.5,0.3,0.7,0.4c0.2,0.1,0.4,0.3,0.6,0.4
		c0.3,0.1,0.6,0.1,0.9,0c0.3-0.1,0.5-0.3,0.7-0.4c0.3-0.2,0.7-0.4,1.1-0.5c0.1,0,0.2,0,0.4,0c0.2,0,0.4,0.2,0.4,0.4
		C48.9,12.9,48.7,13.2,48.5,13.2z"/>
	<path class="st2" d="M49.7,26.7c0,0.1-0.1,0.2-0.2,0.2c-0.5,0.2-0.8,0.5-1.2,0.9c-0.2,0.3-0.4,0.6-0.6,0.9c0,0.1-0.1,0.1-0.1,0.2
		c0,0.4,0,0.8,0,1.2c0,0.2-0.1,0.4-0.1,0.5c0,0,0,0,0,0.1c-0.3,0.1-0.6,0.3-0.9,0.2c-0.3,0-0.4-0.1-0.4-0.4c0-0.3,0-0.6,0.1-0.8
		c0-0.1,0-0.3,0-0.4c0-0.2,0-0.3,0-0.6c-0.1,0.2-0.2,0.3-0.1,0.5c-0.1,0.1-0.2,0.2-0.2,0.3c-0.1,0.4-0.3,0.7-0.6,0.9
		c-0.2,0.1-0.4,0.3-0.6,0.3c0,0-0.1,0-0.1,0c-0.3-0.1-0.7-0.1-0.9-0.4c-0.2-0.3-0.4-0.5-0.4-0.9c0-0.2-0.1-0.3-0.1-0.6
		c-0.2,0.3-0.3,0.5-0.4,0.7c-0.3,0.4-0.5,0.8-0.9,1.2c-0.4,0.5-1,0.5-1.6,0.2c-0.1,0-0.1-0.1-0.1-0.1c-0.1-0.2-0.2-0.5-0.2-0.8
		c0-0.7,0.1-1.4,0.3-2.1c0-0.1,0.1-0.2,0.1-0.4c0-0.2,0.1-0.4,0.2-0.5c0,0,0.1-0.1,0.1-0.1c0.3-0.1,0.6,0,0.8,0.1
		c0.2,0,0.2,0.2,0.1,0.3c0,0.4-0.1,0.7-0.2,1.1c-0.1,0.5-0.2,1-0.2,1.5c0,0,0,0.1,0,0.2c0.1-0.1,0.1-0.2,0.2-0.2
		c0.1-0.2,0.3-0.4,0.4-0.6c0.4-0.6,0.6-1.2,0.9-1.9c0.1-0.3,0.2-0.5,0.3-0.8c0-0.1,0.1-0.2,0.2-0.2c0.1,0,0.3,0,0.4,0
		c0.1,0.1,0.4,0.1,0.4,0.3c0,0,0,0,0,0c0.2,0,0.2,0.1,0.2,0.2c0.1,0.3,0,0.6,0,0.8c-0.1,0.4-0.1,0.8-0.1,1.2c0,0.4,0.1,0.8,0.4,1.1
		c0.2-0.1,0.4-0.2,0.5-0.4c0.3-0.4,0.5-0.8,0.7-1.3c0.1-0.3,0.2-0.5,0.3-0.8c0,0,0,0,0.1-0.1c0.1,0,0.2,0,0.2-0.1
		c0-0.3,0.1-0.6,0.1-1c0-0.3,0.2-0.4,0.4-0.5c0.3-0.1,0.5-0.1,0.8,0.1c0.2,0.1,0.2,0.1,0.2,0.3c0,0.3,0,0.5-0.1,0.8c0,0,0.1,0,0.1,0
		c0.2-0.2,0.5-0.4,0.8-0.5c0.1-0.1,0.3-0.1,0.4-0.2c0.1,0,0.2,0,0.3,0C49.6,26.7,49.6,26.7,49.7,26.7z"/>
	<path class="st6" d="M14.3,26.6c-0.1,0-0.2,0.1-0.3,0.1c0,0,0,0,0,0c-0.2,0-0.4,0.1-0.5,0.1C13.2,27,13,27,12.7,27
		c-0.2,0-0.4,0.1-0.6,0.2c-0.1,0-0.2,0.1-0.3,0.1c-0.4,0.1-0.8,0.3-1.2,0.4c0,0,0,0-0.1,0.1c0.1,0,0.2,0,0.3,0
		c0.3,0,0.4,0.1,0.4,0.4c0,0.4,0,0.8-0.1,1.2c-0.1,0.5-0.2,1-0.3,1.6c0,0.1,0,0.2,0,0.4c0.1,0,0.1,0,0.2,0c0.4-0.1,0.8-0.1,1.2-0.2
		c0.2,0,0.4-0.1,0.6-0.1c0.3,0,0.4,0,0.5,0.4c-0.1,0.1-0.2,0.1-0.3,0.1c-0.1,0-0.2,0-0.3,0.1c0,0.1-0.1,0.1-0.2,0.1
		c-0.6,0.1-1.1,0.3-1.6,0.5c0,0,0,0-0.1,0c0,0.3-0.1,0.6-0.1,0.9c0,0.1-0.1,0.3-0.1,0.4c0,0,0,0,0,0.1c0,0,0,0.1,0,0.1
		c-0.1,0.2-0.2,0.3-0.2,0.5c0,0.2,0,0.4,0,0.5c0,0.1,0,0.2,0,0.3c-0.1,0.1,0,0.2,0,0.3c0,0.2,0,0.4,0,0.7c0,0.1,0,0.1,0,0.2
		c0.1,0.2,0.1,0.4,0.1,0.7c0,0-0.1,0-0.1,0c-0.1,0.1-0.1,0.2-0.2,0.3c0,0,0,0.1,0,0.2c-0.2,0.1-0.3,0-0.4-0.1c0,0-0.1,0.3-0.1,0.3
		c-0.1,0-0.2-0.1-0.3-0.2c0,0,0-0.1,0-0.1c-0.2-0.1-0.3-0.3-0.3-0.4c-0.1-0.4-0.2-0.8-0.2-1.3c0-0.7,0-1.3,0.1-2c0,0,0,0,0,0
		c0,0,0,0.1,0,0.1c0,0,0,0,0,0c0-0.4,0.1-0.7,0.1-1.1c-0.1,0-0.1,0-0.2,0c0-0.3,0.1-0.4,0.3-0.5c0.1-0.4,0.1-0.8,0.2-1.2
		c0.1-0.4,0.1-0.8,0.2-1.2c0-0.2,0.1-0.4,0-0.6c0-0.2-0.1-0.3-0.1-0.5c0,0,0-0.1,0-0.1c0-0.1,0.1-0.1,0.2-0.2c-0.2,0.1-0.4,0-0.6,0
		c-0.2,0-0.2-0.1-0.2-0.2c0.3-0.2,0.6-0.5,0.9-0.6c0.4-0.1,0.7-0.3,1.1-0.4c0.4-0.1,0.7-0.2,1.1-0.3c0.2-0.1,0.5-0.1,0.8-0.1
		c0.2,0,0.4,0,0.6-0.1c0.1-0.1,0.3,0,0.5,0c0.2,0,0.4,0,0.6,0c0,0-0.1,0-0.1,0.1c0.1,0,0.1,0,0.2,0C14.3,26.4,14.3,26.5,14.3,26.6z"
		/>
	<path class="st8" d="M8.9,34.2c0,0.4,0,0.9,0,1.3v0.6c0,0,0,0-0.1,0c0-0.1,0-0.2,0-0.3c0-0.4,0-0.8,0-1.2c0-0.2,0-0.5,0-0.7
		c0-0.1,0-0.2,0-0.3c0,0,0,0,0,0C8.9,33.8,8.9,34,8.9,34.2z"/>
	<path class="st9" d="M10.5,34c0,0.1,0,0.2,0,0.3c0,0.2-0.1,0.3-0.2,0.5c0-0.2,0-0.4,0-0.5c0-0.2,0.1-0.4,0.2-0.5
		C10.6,33.8,10.6,33.9,10.5,34z"/>
	<path class="st8" d="M55.8,29.6C55.8,29.6,55.7,29.6,55.8,29.6c-0.4-0.1-0.4-0.6-0.3-0.9c0,0,0,0,0.1,0.1c0,0.2,0,0.4,0.1,0.5
		C55.7,29.3,55.7,29.4,55.8,29.6z"/>
	<path class="st0" d="M9,33.6c0,0.7,0,1.3-0.1,2H8.9c0-0.4,0-0.9,0-1.3C8.9,34,8.9,33.8,9,33.6C8.9,33.6,8.9,33.6,9,33.6
		C9,33.5,9,33.5,9,33.6z"/>
	<path class="st0" d="M46.3,28.8c0,0.2,0,0.4,0,0.6c0,0-0.1-0.1-0.1-0.1C46.2,29.1,46.2,29,46.3,28.8z"/>
	<path class="st8" d="M27.2,29.4c-0.2,0-0.4,0-0.5,0.1c0-0.1,0.1-0.2,0.2-0.1C27,29.3,27.1,29.3,27.2,29.4z"/>
	<path class="st9" d="M46.5,27.7c0,0.1-0.1,0.1-0.2,0.1c0-0.1,0-0.1,0.1-0.2C46.5,27.6,46.5,27.6,46.5,27.7z"/>
	<path class="st9" d="M10.3,35.4c0-0.1-0.2-0.2,0-0.3C10.3,35.2,10.3,35.3,10.3,35.4z"/>
	<path class="st8" d="M55.5,28.5C55.4,28.5,55.4,28.4,55.5,28.5c-0.1-0.1,0-0.1,0-0.1C55.4,28.4,55.4,28.5,55.5,28.5z"/>
	<path class="st9" d="M10.5,33.7C10.5,33.7,10.5,33.6,10.5,33.7C10.5,33.6,10.5,33.7,10.5,33.7z"/>
	<path class="st9" d="M52.1,30.9c-0.1,0.1-0.2,0.2-0.3,0.3c-0.1,0.1-0.1,0.1-0.2,0.1c0.1-0.1,0.1-0.2,0.2-0.3
		C51.9,30.8,52,30.9,52.1,30.9z"/>
	<path class="st0" d="M52.5,30.4c-0.1,0-0.1,0-0.2,0l0,0c0-0.1,0.1-0.2,0.2-0.3C52.5,30.3,52.5,30.3,52.5,30.4
		C52.5,30.4,52.5,30.4,52.5,30.4z"/>
	<path class="st9" d="M52.2,30.7c0,0-0.1,0.1-0.1,0.1C52.1,30.8,52.2,30.8,52.2,30.7z"/>
	<polygon class="st0" points="52.3,30.4 52.3,30.4 52.3,30.4 	"/>
	<path class="st10" d="M35.2,28C35.1,28,35.1,28,35.2,28C35.1,28,35.1,28,35.2,28C35.1,28,35.1,28,35.2,28z"/>
	<path class="st11" d="M40.5,44.2c0-0.3,0-0.6,0.1-0.9c0.2,0,0.5-0.1,0.7-0.1c0.2,0,0.3,0,0.5-0.1c0.3,0,0.5,0.2,0.4,0.5
		c-0.1,0.2-0.2,0.3-0.4,0.4C41.3,44.1,40.9,44.1,40.5,44.2z"/>
	<path class="st12" d="M40.6,42.7c0-0.2,0-0.4,0-0.6c0,0,0,0,0,0c0.3,0,0.7-0.1,1-0.1c0.2,0,0.4,0.2,0.3,0.4c0,0.2-0.2,0.3-0.4,0.4
		C41.3,42.6,41,42.6,40.6,42.7C40.7,42.7,40.7,42.7,40.6,42.7z"/>
	<path class="st11" d="M47.9,41.1c0.3,0,0.7-0.1,1-0.1c0.3,0,0.4,0.1,0.4,0.4c0,0.3-0.2,0.5-0.5,0.6c-0.3,0.1-0.7,0.1-1,0.1
		C47.9,41.8,47.9,41.5,47.9,41.1z"/>
	<path class="st13" d="M30,44.7c-0.4,0-0.8,0.1-1.2,0.1c0.2-0.4,0.5-0.8,0.7-1.3C29.7,43.9,29.8,44.3,30,44.7z"/>
	<path class="st13" d="M45.1,41.8c0.2,0.4,0.3,0.8,0.5,1.2c-0.2,0-0.4,0-0.6,0.1c-0.2,0-0.4,0-0.6,0.1
		C44.6,42.6,44.8,42.2,45.1,41.8z"/>
	<path class="st11" d="M37.5,6.7c-0.2,0.5-0.4,0.9-0.6,1.4c-0.1,0.2-0.4,0.3-0.6,0.3c-0.2,0-0.4-0.2-0.5-0.5c0-0.3,0.1-0.5,0.3-0.6
		C36.6,7,37,6.9,37.5,6.7z"/>
	<path class="st11" d="M40,4.6c-0.2,0.4-0.4,0.9-0.6,1.3c-0.1,0.2-0.4,0.3-0.6,0.3c-0.2,0-0.4-0.2-0.5-0.5c0-0.3,0.1-0.5,0.3-0.6
		C39.1,4.9,39.5,4.7,40,4.6C40,4.6,40,4.6,40,4.6z"/>
	<path class="st5" d="M41.2,6.7c0,0.1,0,0.1,0,0.1C41,7.2,40.8,7.6,40.7,8c-0.1,0.2-0.3,0.3-0.6,0.3c-0.2,0-0.4-0.1-0.5-0.4
		c-0.1-0.3,0-0.6,0.3-0.7C40.3,7,40.7,6.9,41.2,6.7z"/>
	<path class="st11" d="M33.7,6.7c-0.2,0.4-0.3,0.8-0.5,1.2c-0.1,0.3-0.3,0.4-0.6,0.3c-0.2,0-0.5-0.2-0.5-0.5c0-0.3,0.1-0.5,0.3-0.6
		C32.8,7,33.2,6.9,33.7,6.7C33.7,6.7,33.7,6.7,33.7,6.7z"/>
	<path class="st11" d="M29.9,6.7c-0.2,0.4-0.3,0.8-0.5,1.3c-0.1,0.2-0.4,0.4-0.6,0.3c-0.2,0-0.4-0.2-0.5-0.5c0-0.3,0.1-0.5,0.3-0.6
		C29,7,29.4,6.9,29.9,6.7C29.9,6.7,29.9,6.7,29.9,6.7z"/>
	<path class="st11" d="M32.5,4.5c-0.2,0.5-0.4,0.9-0.6,1.3c-0.1,0.2-0.3,0.4-0.6,0.3c-0.3,0-0.5-0.2-0.5-0.5c0-0.3,0.1-0.5,0.3-0.6
		c0.3-0.1,0.6-0.3,0.9-0.4C32.2,4.7,32.3,4.6,32.5,4.5z"/>
	<path class="st11" d="M36.3,4.5c-0.1,0.1-0.1,0.2-0.1,0.3c-0.1,0.3-0.3,0.6-0.4,1c-0.1,0.3-0.4,0.4-0.6,0.4c-0.2,0-0.4-0.2-0.5-0.5
		c0-0.3,0.1-0.5,0.4-0.6C35.4,4.9,35.8,4.7,36.3,4.5z"/>
</g>
</svg>
