<svg xmlns="http://www.w3.org/2000/svg" viewBox="0 0 369.64 360.29"><defs><style>.cls-1{fill:#fefefe;}.cls-2{fill:#653629;}.cls-3{fill:#633629;}.cls-4{fill:#c4b2a9;}.cls-5{fill:#603124;}.cls-6{fill:#613326;}.cls-7{fill:#623225;}.cls-8{fill:#623326;}.cls-9{fill:#623327;}.cls-10{fill:#613225;}.cls-11{fill:#623226;}.cls-12{fill:#66362a;}.cls-13{fill:#65372a;}.cls-14{fill:#66372b;}.cls-15{fill:#faf9f8;}.cls-16{fill:#886459;}.cls-17{fill:#9c7d72;}.cls-18{fill:#fbfaf9;}.cls-19{fill:#f9f8f7;}.cls-20{fill:#fefcfc;}.cls-21{fill:#fefdfd;}.cls-22{fill:#fcfcfb;}.cls-23{fill:#f2efed;}.cls-24{fill:#fdfdfd;}.cls-25{fill:#633427;}</style></defs><title>LogoQuizLogo</title><g id="Layer_2" data-name="Layer 2"><g id="Layer_1-2" data-name="Layer 1"><path class="cls-1" d="M0,204.25V0H172.4l-2.72.5c.06.72.11,1.4.18,2.07q1,8.7,2,17.39c.52,4.73,1,9.47,1.56,14.2q1,8.7,2,17.4.73,6.49,1.48,13a15.79,15.79,0,0,0,.78,4.86l-.35-4.85c-.1-1.75-.19-3.5-.28-5.25l-.08-.42c-.15-3.35-.28-6.69-.46-10-.42-7.76-.88-15.52-1.32-23.28q-.58-10.48-1.14-21c-.09-1.54-.07-3.09-.1-4.63h22.21c-.07.72-.18,1.44-.22,2.16-.33,5.19-.64,10.38-1,15.57q-.88,13.76-1.76,27.51-.49,7.86-.95,15.72l-.08.41L192,62.81l-.54,7,.32,0c.25-2.33.49-4.65.74-7,.1-.72.21-1.44.29-2.16.64-5.26,1.26-10.51,1.89-15.77q1.1-9.11,2.21-18.21l1.95-16c.4-3.31.78-6.63,1.19-10.1-.79-.08-1.5-.14-2.21-.24-.51-.07-1-.19-1.51-.29H369.64V360.29H0V317.92l.36-.07H14.6v16.88c27.52-.93,54.81-3.11,82.22-5.81v31l176.06-20.51V314.69c0-2,0-4.05,0-6.06,27.46-2.75,54.76-4.85,82.21-5.84,0-5.77,0-11.34,0-17.06h14.13V172.3H355.06v-16c-32.32,1.12-64.36,3.88-96.39,7.29-.4,2.47-.78,4.86-1.18,7.3,15.3-1.42,30.54-2.94,45.8-4.24s30.55-2.28,46-2.87v16h14.11v98.62c-4.74.23-9.41,0-14.15.37v16.88c-25.56,1.07-50.94,3.16-76.39,5.69v-5.59c24-2.43,47.92-4.34,72-5.52v-17l14.12-.36V185.22l-14.12.33c-.1-5.44,0-10.72-.08-16.05-29.75,1.41-59.2,4.05-88.62,7.25l-.61,2.43c14.65-1.39,29.12-2.83,43.6-4.12s29.06-2.28,43.7-2.95v5.47c0,1.76,0,3.51,0,5.26s0,3.48,0,5.29c4.86-.18,9.5-.33,14.11-.32v82.53c-4.74.32-9.41.11-14.16.48v17c-23.38,1.13-46.59,3.07-70,5.38v-6.85l-176,20.52c-.1,2.28,0,4.45-.08,6.58-17.21,2.1-66.91,5.81-70,5.2V302.09l-14.13.36V219.82l14.18-.39V203.18C58,201.65,89,198.8,120,195.36c-.21-.55-.33-.91-.48-1.26s-.35-.68-.56-1.11c-31.27,3.44-62.56,6.32-94.11,7.81V217l-14.15.37V305l14.19-.3v16.83c24.11-1.1,48-3.13,71.87-5.48v5.48c-6.65,1.38-72.18,6.21-76.34,5.62V310.35l-14.13.27V211.84l14.17-.31V195.39c32.29-1.38,64.35-4.26,96.39-7.78-.76-2.35-1.46-4.52-2.17-6.69a2.62,2.62,0,0,0-.23-.38C81.3,184.13,48.06,187,14.57,188.2v1.56c0,4.38,0,8.76,0,13.15a8.23,8.23,0,0,1-.23,1.36c-.58,0-1.16-.05-1.73-.05ZM126,92.05l-3-3.18c-1.16-1.25-2.31-2.5-3.48-3.74Q99.74,64,79.94,42.83a4,4,0,0,1-.5-.88L76.32,45.2c.4.33,1,.74,1.44,1.2l32.95,31.42c4,3.8,8,7.57,12,11.35l3,2.92,1,1,.28-.28Zm10.18-10,.91,1.3.28-.19-.76-1.11-2.19-3.24a2.81,2.81,0,0,0-.19-.39q-17-26.08-34-52.16a6.37,6.37,0,0,0-.67-.78l-3.24,2.31.7,1,22.83,31q7.14,9.69,14.29,19.36Zm26.34-12.57.56,1.92.35-.1-.64-2.17L162,65.65c-.06-.34-.09-.68-.16-1L148.07,5.72c-.12-.5-.29-1-.46-1.58l-3.88,1.05c.11.39.18.62.24.84q6.54,22.32,13.08,44.63c1.5,5.13,3,10.25,4.55,15.38C161.92,67.2,162.23,68.36,162.55,69.52Zm99.26,45.9,3.25-1.44c1.21-.5,2.42-1,3.63-1.51l52.8-22.55c.34-.15.67-.34,1.08-.56-.58-1.23-1.12-2.4-1.69-3.63l-1.58.74L275,108.4l-10.57,5.27-3.18,1.51-2.58,1.23.16.34Zm-55.7-45.59-.44,1.84.28.07c.19-.64.38-1.28.56-1.92.42-1.45.83-2.91,1.25-4.36.09-.23.19-.45.26-.69q8.17-26.91,16.34-53.84c.54-1.76,1-3.52,1.61-5.41l-3.88-1c-.14.41-.24.68-.31.95q-1,4.25-2.08,8.5-4.81,19.83-9.62,39.67-1.35,5.59-2.66,11.2C207,66.48,206.55,68.16,206.11,69.83Zm37.58,21.9L242,93.37l.23.25,1.7-1.6,3.83-3.79c.65-.56,1.32-1.1,2-1.69L290,48.82c1-1,2-1.92,3-2.82-1-1-1.93-1.9-3-3a12.41,12.41,0,0,1-.84,1.1q-15.51,16.27-31.05,32.54L247.44,87.87Zm-209.8,185h.3c.44,2.39.84,4.78,1.34,7.16a3.12,3.12,0,0,0,1.68,2.55c.12.05.2.29.23.46.12.84.74,1.13,1.43,1.39l.35-2c.76.25,1.47.81,2.34.36l-.17-1.11,1.12-1.45.44.18c-.08-1.28.22-2.53-.45-3.7a2.18,2.18,0,0,1-.12-1c0-1.25,0-2.49-.06-3.74l-.18-1.48,0-1.67a3.36,3.36,0,0,0,1.08-2.64,4.71,4.71,0,0,1,.15-1.95c.14-.53.19-1-.35-1.41v-.44l-.07-.38c.2-.83.45-1.65.59-2.49.29-1.77.52-3.55.76-5.27a1.52,1.52,0,0,1,.3-.21c3-1,5.91-2.23,9.09-2.61.43-.05,1.08-.22,1.22-.52a1.41,1.41,0,0,1,1.7-.76,1.9,1.9,0,0,0,1.73-.67c-.53-1.88-.72-2-2.62-2.09a11.82,11.82,0,0,0-3.28.38c-2.16.55-4.38.86-6.57,1.25a7.31,7.31,0,0,1-.94,0c.06-.77.07-1.44.18-2.1.47-3,1-5.94,1.43-8.93.29-2.21.38-4.45.46-6.68,0-1.45-.61-2-2.09-2a17.56,17.56,0,0,1-1.85-.26c.38-.34.5-.52.66-.58,2.26-.86,4.39-2.08,6.85-2.41a13.24,13.24,0,0,0,1.68-.48c1.21-.33,2.42-.71,3.65-1s2.6-.33,3.89-.58c1-.2,2.07-.55,3-.81l-.11-.11,1.93-.73.33-1.72-.91-.25.51-.33c-1.13-.06-2.18-.13-3.22-.15a8.2,8.2,0,0,0-2.9.12,12.86,12.86,0,0,1-3.27.51,32.66,32.66,0,0,0-4.29.77c-2.11.57-4.19,1.24-6.26,1.95s-4,1.54-6,2.24-3.6,2.1-5.33,3.38c-.17.76.08,1.19,1,1.33a8.66,8.66,0,0,0,3.59.11,11.32,11.32,0,0,1-.89,1.38,1.36,1.36,0,0,0-.24.79c.09,1,.23,2,.39,3a10.17,10.17,0,0,1-.14,3.48c-.4,2.29-.76,4.6-1.08,6.91s-.59,4.62-.87,6.89c-1.53.71-1.67.92-1.91,2.88l1.14.11-.42,6.26c-.09.57-.23,1.13-.27,1.71-.1,1.31-.19,2.62-.22,3.93q-.07,3.49-.08,7a7.94,7.94,0,0,0,.25,1.43l.32-.05ZM111.64,99.33a2.89,2.89,0,0,0-.32-.29L62.51,62.42c-.22-.16-.47-.28-.76-.45l-2.29,3.28c.33.24.52.39.72.52L90.92,86.22l20.18,13.4c1.75,1.19,3.5,2.38,5.27,3.56.09.07.27,0,.63,0Zm35.69-27.77q1.06,2.25,2.12,4.5l.3-.14A41.59,41.59,0,0,0,147.58,71c-.39-1-.77-1.94-1.18-2.9q-11.62-27.24-23.26-54.46a10,10,0,0,0-.52-.89l-3.54,1.65c.18.46.3.82.47,1.15l4.14,8.37q10.06,20.33,20.14,40.66C145,66.9,146.16,69.23,147.33,71.56ZM257.4,100.5q6.72-4.36,13.44-8.73l37.63-24.55c.42-.28.83-.58,1.29-.91-.85-1.19-1.6-2.24-2.37-3.3l-1.33,1L269,91.19c-4.08,3-8.12,6-12.18,9l-5.11,3.62.22.32ZM235.54,77.78c-1.38,1.8-2.58,3.7-3.77,5.61l.28.2,3.8-5.25c.12-.15.26-.28.38-.44l36.42-48.56c.17-.23.32-.47.53-.79l-3.29-2.33c-.37.52-.68,1-1,1.39q-11.73,17.61-23.45,35.22C242.14,67.81,238.85,72.8,235.54,77.78ZM104.63,113.66a50,50,0,0,0,4.9,2.21l.14-.31-4.49-2.15c-.21-.12-.42-.25-.63-.36L49.13,85c-.29-.15-.6-.26-1-.43l-1.72,3.62c.58.27,1,.48,1.45.67l36.72,16.09ZM100.82,128l-.41-.16L39.62,109.38a8.39,8.39,0,0,0-1-.16l-1,3.86,62.66,15.19,4.7,1.27.08-.27A18.08,18.08,0,0,0,100.82,128ZM221.14,72.1,219,76.76l.31.15q1.09-2.22,2.17-4.46c.44-.86.89-1.72,1.33-2.59l26.51-52.3c.41-.82.81-1.64,1.29-2.59l-3.66-1.73c-.25.5-.45.88-.62,1.27q-10.09,23-20.18,46.09Q223.62,66.35,221.14,72.1ZM97.89,143.19a12.41,12.41,0,0,0,5.21.07l-3.78-.34-2.46-.31-20.73-2.49L57.58,137.9l-18.11-2.2L33.6,135l-.38,4.09L47,140l10.49.64,17.19,1.12c3.64.24,7.28.49,10.93.72C89.73,142.72,93.81,143,97.89,143.19Zm171.24.9L289.69,143c6.27-.34,12.54-.64,18.81-1q13-.69,25.95-1.42a6.66,6.66,0,0,0,.85-.19c-.09-1.33-.18-2.58-.27-4l-3.19.35-17.41,1.93-16.84,1.87-17.26,1.91q-6.18.69-12.34,1.34l-2.49.25,0,.3A9.32,9.32,0,0,0,269.13,144.09Zm-168.64,14a4,4,0,0,0,2.44-.38l-.05-.3-3,.38-5.53.3-29.3,1.57-15,.81-16.17.89a4,4,0,0,0-.83.21l.35,3.9c.83-.06,1.55-.11,2.27-.19l9.27-1,14.21-1.57L73.82,161l14.64-1.64Q94.48,158.7,100.49,158.06Zm167.19-28.88a5.62,5.62,0,0,0,.57-.09l59.92-14c1-.23,1.94-.48,3-.76-.37-1.37-.7-2.62-1.06-3.92l-.81.23L290.58,122l-23.22,6.83-3.7.94.09.36A18.69,18.69,0,0,0,267.68,129.18ZM246.53,241.7c0,.73-.07,1.45-.12,2.18-.12,1.6-.3,3.19-.35,4.8-.05,1.86.21,2.07,2.07,2.21s3.52-.72,5.18-1.42a.53.53,0,0,0,.29-.3,17.66,17.66,0,0,0,.7-3.07c.15-2.23.13-4.46.23-6.69a3.06,3.06,0,0,1,.44-1.21,30.13,30.13,0,0,1,3.44-5.38,16.06,16.06,0,0,1,6.61-4.88c.51-.21,1-.47,1-1.15a7.89,7.89,0,0,0-1.28-.45,4,4,0,0,0-1.69-.06,9,9,0,0,0-2.21,1.07,22,22,0,0,0-4.41,3.07c-.08.08-.26.07-.53.13.12-1.55.21-3,.35-4.52.11-1.1,0-1.36-1-1.8a5.53,5.53,0,0,0-4.63-.33c-1.14.51-2.27,1.06-2.34,2.62-.1,1.84-.33,3.68-.5,5.51l-.63-.51-.3,1c-.14.14-.37.26-.39.41a17.35,17.35,0,0,1-1.54,4.48,30.87,30.87,0,0,1-4.19,7.31,6.08,6.08,0,0,1-2.95,2.18,7.72,7.72,0,0,1-2.13-6c.09-2.36.32-4.72.63-7.06a10.58,10.58,0,0,0,.05-4.75c-.2-.64,0-1.59-1.17-1.32a.28.28,0,0,1-.23-.12c-.41-1.17-1.64-1.09-2.49-1.55a2.94,2.94,0,0,0-2-.1c-.39.11-.72.73-.94,1.19-.68,1.5-1.31,3-1.94,4.54a81.11,81.11,0,0,1-5.2,10.74q-1,1.74-2.16,3.45a13,13,0,0,1-1.09,1.25c-.08-.57-.15-.84-.16-1.1a39.42,39.42,0,0,1,1.15-8.36c.42-2.09.72-4.21,1-6.32.09-.7,0-1.6-.82-1.85-1.52-.44-3.05-1-4.7-.7a1.39,1.39,0,0,0-.84.45,5.77,5.77,0,0,0-1.42,3.09,9.31,9.31,0,0,1-.49,2.12,44.73,44.73,0,0,0-1.92,12,8.44,8.44,0,0,0,1.1,4.33,2.06,2.06,0,0,0,.76.84c2.92,1.41,6.36,1.38,8.8-1.37a71.26,71.26,0,0,0,5-6.84c.82-1.18,1.53-2.43,2.46-3.92.29,1.31.52,2.28.71,3.26a11.6,11.6,0,0,0,2.36,5c1.32,1.71,3.28,2.14,5.25,2.52a2.28,2.28,0,0,0,.71-.11,8.19,8.19,0,0,0,3.53-1.89,8.75,8.75,0,0,0,3.38-5.17,9.33,9.33,0,0,1,1.09-2Zm-63.26-7.88-.12-.12c0-.82.09-1.63.15-2.45.18-2.65.32-5.31.57-8a5.52,5.52,0,0,0-1.54-4.8,9.22,9.22,0,0,0-3.05-1.64c-2.29-1-5.28.21-6.59,3a1.31,1.31,0,0,0,0,.56c0,1.2.13,2.4.09,3.6,0,1.53-.49,3.09-.29,4.57.41,3-.25,5.9-.38,8.8-3,1.57-6.26,2.1-9.18,4.1,1.24.57,1.91,2,3.5,1.18.09-.05.26.1.4.11l3,.25,1.52.14c-.37,3.18-.7,6.24-1.09,9.3-.22,1.78-.59,3.55-.79,5.34-.19,1.64-.22,3.29-.38,4.94-.2,2.17-.47,4.33-.67,6.5-.15,1.67.16,2,1.81,2.23a1.18,1.18,0,0,1,.31.18c0,.58.3.84,1,.93,1.87.26,3.73.61,5.6.93a.49.49,0,0,1,.32.2c.5,1,1.31.58,2,.46.32-.05.8-.33.92-.21.46.45.78.09,1.16-.05a11.61,11.61,0,0,1,1.52-.47,24.65,24.65,0,0,0,7.49-2.62,46.14,46.14,0,0,0,9.6-7.55s0-.16,0-.24h-.27s-.1,0-.14,0,0-.07,0,0l2.49-2.84c.16-.18.33-.42.54-.48.84-.24,1.17-1,1.63-1.6,1.53-1.94,1.81-4.42,2.68-6.65a5,5,0,0,0-.05-2.3,13.24,13.24,0,0,0-3.58-7.83,18.51,18.51,0,0,0-9.26-5.25l-4.26-.89a1.88,1.88,0,0,1,.17-.35c1.83-1.43,3.71-2.79,5.46-4.31a28.56,28.56,0,0,0,6.74-7.54,12.31,12.31,0,0,0,1.82-7.1,7.7,7.7,0,0,0-3.18-5.52,11.93,11.93,0,0,0-6-2.67c-.52,0-1-.29-1.55-.37a44.22,44.22,0,0,0-5.34-.74A25.45,25.45,0,0,0,177.11,209a51.35,51.35,0,0,0-10.38,6.3c-.84.63-1.51,1.47-2.32,2.15a18.33,18.33,0,0,0-5.64,7.17l.78,1.19c.32-.37.44-1.05,1.15-.64l-.2,1.23a1.28,1.28,0,0,0,1.25-.69,20.11,20.11,0,0,0,1.89-2.91,10.7,10.7,0,0,1,3.84-4.47c2-1.33,4-2.65,6.06-3.78a35.59,35.59,0,0,1,6-2.85c1.81-.58,3.65-1.07,5.48-1.49,2.72-.62,5.52-.85,8,1,.81.61,1.54,1.32,2.35,1.93a3.59,3.59,0,0,1,1.31,3.38,13.38,13.38,0,0,1-1,4.84,16.27,16.27,0,0,1-1.75,2.76c-.77,1-1.73,1.94-2.44,3-1.2,1.82-3,2.93-4.6,4.32A30.21,30.21,0,0,1,183.27,233.82Zm117.13,9a8.44,8.44,0,0,1,.86,1.34,1.51,1.51,0,0,0,1.6,1c1.51,0,3,.11,4.52.11a7.88,7.88,0,0,0,4.93-1.5A80.81,80.81,0,0,0,325,231.45a9.93,9.93,0,0,1,.84-.73c-.13,1.75-.26,3.25-.34,4.76-.08,1.7-.15,3.4-.17,5.1,0,.78.44,1.35,1,1.38a10,10,0,0,0,5.89-1.25,2,2,0,0,0,.75-1,11.38,11.38,0,0,0,.51-4c0-1.8.16-3.59.28-5.39a2.37,2.37,0,0,1,.28-.81,31.32,31.32,0,0,1,4.48-6.79,6.22,6.22,0,0,1,1.54-1.3c1.43-.83,2.64-2.05,4.32-2.46.38-.1.66-.59,1-.95-2.44-1-2.5-1.12-4.33-.13-1.66.89-3.18,2-4.75,3.08-.37.24-.6.73-1.18.66.07-1.37.05-2.69.2-4,.22-1.86.21-2-1.59-2.58-.23-.07-.47-.14-.69-.23-1.5-.62-2.81,0-4.12.63a2.66,2.66,0,0,0-1.5,2.45c0,.29,0,.58-.07.87-.23,2.18-.42,4.36-.74,6.52a3.14,3.14,0,0,1-.92,1.57c-1.59,1.63-3.25,3.2-4.86,4.82s-3.23,3.34-4.86,5c-.47.48-1,.88-1.52,1.33a26.41,26.41,0,0,1-6.79,4.41l-.14,0a1.79,1.79,0,0,1-2.26-1.06,4.54,4.54,0,0,1-.19-1.84c.07-1,.34-2,.4-3a3.5,3.5,0,0,1,2.19-3.16,10.35,10.35,0,0,0,4.42-3.23,2.6,2.6,0,0,1,.65-.58,8.81,8.81,0,0,0,2.49-3,5.35,5.35,0,0,1,.72-1.08c1.54-1.68,1.21-5.65-.6-7.08a7.32,7.32,0,0,0-5.42-1.62,5.59,5.59,0,0,0-4.65,2.63c-.27.45-.71.81-1,1.26a32.67,32.67,0,0,0-2.6,4.35c-1.07,2.49-1.88,5.09-2.83,7.64a2.62,2.62,0,0,1-.74,1.18,9.13,9.13,0,0,1-2.26,1.31,8,8,0,0,0-2.68,1.69c-.53.47-1.14.84-1.88,1.38a5.54,5.54,0,0,1,0-1c.5-2.43,1-4.86,1.54-7.28.3-1.28.12-1.79-1.08-2.38a12,12,0,0,1-1.29-.85v-1a1.86,1.86,0,0,0-.3-2.41,9.36,9.36,0,0,0-3.4-2.37,8.91,8.91,0,0,0-4.86,0,14.46,14.46,0,0,0-5.43,3,37.17,37.17,0,0,0-8,10,14.93,14.93,0,0,0-1.88,5.93c-.46,3.85.5,5,4.22,6,2.88.76,5.27-.29,7.51-1.82a45,45,0,0,0,3.91-3.41l-.55-.24,1.91-1.73c-.08,1.66-.19,3-.2,4.28a1.89,1.89,0,0,1-.82,1.58c-1.79,1.48-3.58,3-5.29,4.55a32.61,32.61,0,0,0-2.84,3c-.71.85-1.28,1.82-2,2.69a31,31,0,0,0-2.24,2.64c-.88,1.36-1.55,2.86-2.32,4.29-.18.35-.36.69-.57,1a17.34,17.34,0,0,0-2.92,8.43A6.82,6.82,0,0,1,264,273c-1,3.06.2,6.25,3.18,7.31a13.62,13.62,0,0,0,2.7.55c1.83.25,3.53-.45,5.28-.8,1.13-.23,2-1.11,3-1.35a4.86,4.86,0,0,0,2.95-2.18c.86-1.23,1.63-2.52,2.4-3.8a12.93,12.93,0,0,0,2-3.82,5,5,0,0,1,.72-1.22,3.88,3.88,0,0,0,.44-.89c.84-3.34,1.75-6.68,2.46-10a70.62,70.62,0,0,0,1.27-12.32,3.38,3.38,0,0,1,.6-1.87,10.42,10.42,0,0,1,2-1.71c.84-.65,1.73-1.25,2.71-2l-1-.25,3.45-2.26.55.38c0,.24,0,.49,0,.74-.72,2.05-.25,4.75,1.46,5.74Zm-165.12-.64,2.93-.33-1.75-.47a28.4,28.4,0,0,1,3.44-.33c1,0,1.94.15,2.74-.75-3.23-1.17-6.56-.86-10-.84.11-1.09.16-2.2.34-3.28a51.62,51.62,0,0,0,1.18-6.56c.14-2.94-.51-4.55-3.36-5.06-3-.54-4.76.87-5.12,3.67-.26,2-.32,4-.58,5.93-.3,2.16-.74,4.31-1.09,6.46-.11.68-.44.93-1.12,1.1a46.13,46.13,0,0,0-4.73,1.46c-1,.35-1.82,1.07-2.8,1.34s-1,.61-.82,1.32c0,.06.15.09.43.25l.38-.86a6.29,6.29,0,0,0,1.8.48,9,9,0,0,0,3.49-.68,11.06,11.06,0,0,1,2.75-.68l-.91,4.27c-1.23.28-2.37.5-3.48.81a62.46,62.46,0,0,0-11.34,4.47c-1.17.59-1.29.53-2.16-.32-1.22-1.19-2.42-2.39-3.69-3.51a2.3,2.3,0,0,1-1-2.44c-.81.24-1.14-.12-1.12-.81a1.75,1.75,0,0,1,.29-1c.76-1,1.58-1.95,2.36-2.93a4.63,4.63,0,0,1,2.78-1.47,1.58,1.58,0,0,1,2,1.57,26.76,26.76,0,0,1-.38,3.15,2.37,2.37,0,0,0,3.19-.24,7.68,7.68,0,0,1,.91-.71,4.19,4.19,0,0,0,1.47-3.95c-.36-1.68-2.19-2.72-4.16-2.82-4.8-.26-8.94,1.6-12.7,4.37a11.25,11.25,0,0,0-2.15,2.36,3.17,3.17,0,0,0-.56,2.63,7.46,7.46,0,0,0,1.93,3.55L96,252.73c-3.6,3.66-5.89,8.36-10.18,11.68-.2-1-.3-1.81-.52-2.58-.73-2.56-.32-5.12-.07-7.67.12-1.16.36-2.3.5-3.45a12.17,12.17,0,0,0,.06-1.71c0-.42.08-1-.15-1.22a3.39,3.39,0,0,0-3.29-1.32,4.76,4.76,0,0,0-3.12,2.25c-.38.55-.59,1.21-1,1.77-1,1.54-2,3.08-3.14,4.56-2,2.71-4,5.38-6,8a11.77,11.77,0,0,1-1,1.07l-.31-.14a22.26,22.26,0,0,1,0-2.71,19.44,19.44,0,0,1,2-6.82,8.78,8.78,0,0,0,.38-.94,22.76,22.76,0,0,1,4.38-7.5,3.34,3.34,0,0,1,3.28-1.11c.48.08,1,.21,1.43.29,1.2.18,2.39.43,3.6.5a2.9,2.9,0,0,0,2.38-.76c-.13-.21-.18-.39-.29-.43-2.59-.91-5.07-2.27-7.84-2.54a8.56,8.56,0,0,0-5.72,1.33,17.06,17.06,0,0,0-3.22,3,32.12,32.12,0,0,0-6.19,11.45,19.31,19.31,0,0,0-.89,7.2,10.49,10.49,0,0,0,.48,2.42,2.21,2.21,0,0,0,1.78,1.52,10.71,10.71,0,0,0,5.62-.1c1.65-.5,3.37-1,4.53-2.46,1.52-1.95,3.06-3.89,4.59-5.84.26-.33.51-.67.89-1.18.13.59.22.95.28,1.32a24,24,0,0,0,.6,3.3c.59,1.8,1.27,3.58,3.46,4.11a6.67,6.67,0,0,0,4.79-.5,10.11,10.11,0,0,0,2.72-2.77c1.19-1.51,2.22-3.14,3.35-4.7,1-1.38,2-2.73,3.07-4.08.29-.37.63-.7,1-1.09,1.21,1,2.47,1.86,3.16,3.26-.18.22-.27.41-.43.5a20.46,20.46,0,0,0-4.63,4c-.88,1-1.73,2-2.56,3s-1.47,1.91-2.2,2.86c-1,1.27-.94,2.83-1.17,4.29s1.33,4.23,2.93,4.59a12.25,12.25,0,0,0,6.61-.25c2.23-.72,4.51-1.43,6.06-3.42a1.81,1.81,0,0,1,1.08-.62c.84-.1,1.17-.66,1.52-1.3a11.69,11.69,0,0,1,1.09-1.45c.14-.19.38-.33.48-.54.75-1.67.66-3.6,1.6-5.21a9.67,9.67,0,0,0-2-6.4c-.27-.32-.52-.66-.89-1.13,1.34-.83,2.53-1.64,3.79-2.32,1.11-.59,2.32-1,3.46-1.54s2.1-1.17,3.19-1.65c.93-.42,1.93-.69,3-1-.18,1.37-.37,2.51-.48,3.66-.15,1.45-.15,2.92-.36,4.36a28.92,28.92,0,0,0,.72,12.85,3.74,3.74,0,0,0,2.71,2.23,14.61,14.61,0,0,0,4-.51,3.4,3.4,0,0,0,1.91-.94c1.08-1,2-2.19,3.18-3.11a16.3,16.3,0,0,0,3.24-3.85c.26-.4.39-.88.66-1.26,1.15-1.56,2.43-3,3.47-4.67,2.7-4.22,5.95-8.1,7.93-12.79l-2.09,1.7-.46-.61c-.5.7-1,1.31-1.39,1.95a189.9,189.9,0,0,1-11.84,15.93,10,10,0,0,1-3.41,2.29,3.22,3.22,0,0,1-1-2.63c.06-2.67.13-5.34.38-8,.23-2.47.86-4.9,1-7.36.11-2,.86-3.88,1.18-5.83a1.36,1.36,0,0,1,1.3-1.18C133.68,242.59,134.48,242.35,135.28,242.17Zm113.77-61.44c.64-.26,1.19-.46,1.72-.7a10.84,10.84,0,0,0,5.46-14.26,10.54,10.54,0,0,0-10.13-6.61c-5.21-.06-10.42,0-15.63,0H122.25a10.93,10.93,0,0,0-5.8,20.26l1.17.72c0,.39,0,.78,0,1.16a22.63,22.63,0,0,0,3.23,12C125.62,201,132.63,205,141.72,205q41.63,0,83.25,0a21.45,21.45,0,0,0,3.49-.2c9.58-1.57,16.08-6.9,19.38-16.05A22.92,22.92,0,0,0,249.05,180.73Zm-64.87-37.4h50c4.53,0,9.06,0,13.59,0,2.14,0,3-.9,3-3.06,0-2.38,0-4.77,0-7.15a35,35,0,0,0-7.2-21.77A50.79,50.79,0,0,0,223.73,95.6,69.51,69.51,0,0,0,194,89.15c-6.38,0-12.76,0-19.14,0A74.92,74.92,0,0,0,160,90.59a62.25,62.25,0,0,0-25.58,11.18,45.3,45.3,0,0,0-13.15,15.42c-4,7.6-3.78,15.77-3.53,24a2.19,2.19,0,0,0,2.08,2.1,12.6,12.6,0,0,0,1.74.07Zm-74,1.58a2.48,2.48,0,0,0-2.8,2.28c-.09,1.53.88,2.5,2.58,2.74a10.25,10.25,0,0,1,2.78.77,33.81,33.81,0,0,1,3,1.72c1.31.75,2.58,1.57,3.92,2.25a10.5,10.5,0,0,0,10,0c1.55-.79,3-1.76,4.54-2.62,1.06-.59,2.12-1.2,3.22-1.7a4.92,4.92,0,0,1,4.38,0c1.26.62,2.47,1.35,3.7,2,1.53.85,3,1.79,4.59,2.53a9.94,9.94,0,0,0,8.62,0c1.5-.68,2.9-1.57,4.34-2.38,1.27-.71,2.51-1.48,3.81-2.13a5.17,5.17,0,0,1,4.79,0c1.21.6,2.38,1.31,3.57,2,1.57.87,3.09,1.85,4.72,2.59a9.91,9.91,0,0,0,8.48,0c1.46-.67,2.83-1.51,4.23-2.3,1.18-.66,2.33-1.4,3.53-2.05a5.66,5.66,0,0,1,5.59,0c1.38.71,2.68,1.58,4,2.35s2.44,1.41,3.72,2a10,10,0,0,0,8.62,0c1.63-.75,3.15-1.73,4.72-2.6,1.23-.68,2.44-1.42,3.71-2a5,5,0,0,1,4.51.08c.87.43,1.73.9,2.58,1.37,1.86,1.05,3.66,2.22,5.59,3.13a9.79,9.79,0,0,0,8.61,0,52.2,52.2,0,0,0,5-2.76c1.89-1.12,3.71-2.28,6-2.38a2.37,2.37,0,0,0,2.09-2.71,2.4,2.4,0,0,0-2.47-2.21,9.81,9.81,0,0,0-2,.19,18.76,18.76,0,0,0-6.21,2.81c-1.37.83-2.74,1.67-4.17,2.39a5.33,5.33,0,0,1-4.93,0c-1.26-.63-2.46-1.38-3.68-2.08s-2.68-1.59-4.07-2.27a10.3,10.3,0,0,0-9.17-.06c-1.49.69-2.88,1.6-4.32,2.41-1.14.65-2.26,1.34-3.43,1.94a5.47,5.47,0,0,1-5.32-.07c-1.55-.82-3-1.78-4.54-2.65-1-.57-2-1.17-3.08-1.64a10.47,10.47,0,0,0-9.17.08c-1.44.69-2.8,1.56-4.19,2.35-1.1.63-2.18,1.29-3.3,1.87a5.64,5.64,0,0,1-5.46,0c-1-.5-1.95-1.1-2.92-1.65-1.52-.87-3-1.83-4.56-2.58a10.42,10.42,0,0,0-9.3,0c-1.27.61-2.48,1.35-3.7,2.05s-2.41,1.48-3.65,2.13a5.78,5.78,0,0,1-5.6,0c-1.08-.56-2.11-1.21-3.17-1.81-1.39-.79-2.75-1.66-4.19-2.36a10.38,10.38,0,0,0-9.43,0c-1.4.66-2.72,1.51-4.07,2.28-1.05.61-2.07,1.28-3.14,1.84a5.91,5.91,0,0,1-5.87,0c-1.07-.57-2.11-1.21-3.16-1.83s-2.32-1.42-3.53-2A10.84,10.84,0,0,0,110.2,144.91Z"/><path class="cls-2" d="M192,62.81l.07-1.44.08-.41q.47-7.86.95-15.72.87-13.76,1.76-27.51c.32-5.19.63-10.38,1-15.57,0-.72.15-1.44.22-2.16h.29c.51.1,1,.22,1.51.29.71.1,1.42.16,2.21.24-.41,3.47-.79,6.79-1.19,10.1l-1.95,16q-1.11,9.1-2.21,18.21c-.63,5.26-1.25,10.51-1.89,15.77-.08.72-.19,1.44-.29,2.16Z"/><path class="cls-3" d="M177,59.33c.09,1.75.18,3.5.28,5.25h-.43q-.74-6.51-1.48-13-1-8.7-2-17.4c-.53-4.73-1-9.47-1.56-14.2q-1-8.7-2-17.39c-.07-.67-.12-1.35-.18-2.07L172.4,0h1.46c0,1.54,0,3.09.1,4.63q.54,10.49,1.14,21c.44,7.76.9,15.52,1.32,23.28.18,3.35.31,6.69.46,10C176.9,59.05,176.93,59.19,177,59.33Z"/><path class="cls-4" d="M0,204.25l12.6,0c.57,0,1.15,0,1.73.05a7.86,7.86,0,0,1-1.26.2L2,204.56c-.51,0-1,.05-1.61.07V317.85l-.36.07Z"/><path class="cls-5" d="M.36,317.85V204.63c.59,0,1.1-.06,1.61-.07l11.1-.09a7.86,7.86,0,0,0,1.26-.2,8.23,8.23,0,0,0,.23-1.36c0-4.39,0-8.77,0-13.15V188.2c33.49-1.18,66.73-4.07,99.85-7.66a2.62,2.62,0,0,1,.23.38c.71,2.17,1.41,4.34,2.17,6.69-32,3.52-64.1,6.4-96.39,7.78v16.14l-14.17.31v98.78l14.13-.27V327.1c4.16.59,69.69-4.24,76.34-5.62V316c-23.89,2.35-47.76,4.38-71.87,5.48V304.65l-14.19.3V217.37L24.82,217V200.8c31.55-1.49,62.84-4.37,94.11-7.81.21.43.4.76.56,1.11s.27.71.48,1.26c-31,3.44-61.93,6.29-93.1,7.82v16.25l-14.18.39v82.63l14.13-.36v16.55c3.06.61,52.76-3.1,70-5.2.12-2.13,0-4.3.08-6.58l176-20.52v6.85c23.39-2.31,46.6-4.25,70-5.38v-17c4.75-.37,9.42-.16,14.16-.48V187.81c-4.61,0-9.25.14-14.11.32,0-1.81,0-3.55,0-5.29s0-3.5,0-5.26v-5.47c-14.64.67-29.18,1.66-43.7,2.95s-28.95,2.73-43.6,4.12l.61-2.43c29.42-3.2,58.87-5.84,88.62-7.25.1,5.33,0,10.61.08,16.05l14.12-.33v87.61l-14.12.36v17c-24.08,1.18-48,3.09-72,5.52v5.59c25.45-2.53,50.83-4.62,76.39-5.69V278.73c4.74-.39,9.41-.14,14.15-.37V179.74H349.31v-16c-15.47.59-30.76,1.58-46,2.87s-30.5,2.82-45.8,4.24c.4-2.44.78-4.83,1.18-7.3,32-3.41,64.07-6.17,96.39-7.29v16h14.21V285.73H355.14c-.05,5.72,0,11.29,0,17.06-27.45,1-54.75,3.09-82.21,5.84,0,2,0,4,0,6.06v24.68L96.82,359.88v-31c-27.41,2.7-54.7,4.88-82.22,5.81V317.85Zm224-.36c.27-.37.52-.67.73-1a5,5,0,0,0,.36-5.51c-1-1.75-2.72-2.06-4.57-1.87-2.52.26-5,.52-7.54.83-1.74.21-2.22.76-2.37,2.55s-.32,3.77-.48,5.66c-.25,3.16-.53,6.31-.75,9.46-.09,1.39.34,1.86,1.67,1.72,3.34-.35,6.69-.63,10-1.22a6.58,6.58,0,0,0,5.42-5.12C227.55,320.41,226.86,318.83,224.39,317.49Zm-89.92,13.65c-.56-.68-.9-1.07-1.22-1.48q-3.5-4.4-7-8.81a2.22,2.22,0,0,0-2.57-.89c-1,.3-1.28,1.08-1.36,2-.1,1.31-.23,2.61-.34,3.92q-.49,5.67-1,11.34c-.09,1.16.27,1.78,1.06,2a2,2,0,0,0,2.37-1.23,4.29,4.29,0,0,0,.26-1.28c.24-2.76.45-5.52.68-8.29a4.38,4.38,0,0,1,.41-1.87l7.28,9.34A11.09,11.09,0,0,0,134,337a2.12,2.12,0,0,0,2.25.69,2.25,2.25,0,0,0,1.55-1.78,6.9,6.9,0,0,0,.09-1c.27-3.15.55-6.29.81-9.44.15-1.8.27-3.59.42-5.39a1.66,1.66,0,0,0-1-1.78,1.64,1.64,0,0,0-2.06.63,4.28,4.28,0,0,0-.71,1.85c-.21,1.64-.28,3.3-.42,4.94S134.65,329.09,134.47,331.14ZM263.4,316.38c.09-.2.1-.27.13-.29l.93-.7a6.9,6.9,0,0,0,2.93-6.73,4.39,4.39,0,0,0-3.39-3.92,8.67,8.67,0,0,0-2.74-.14c-2.17.19-4.34.49-6.51.74-1.81.2-2.38.78-2.53,2.56-.16,2-.34,4.06-.51,6.1-.24,3-.5,6-.71,9-.1,1.52,1,2.2,2.38,1.57a2.39,2.39,0,0,0,1.37-2.23c.11-1.54.25-3.07.39-4.66a28.53,28.53,0,0,0,3.13-.38,1.78,1.78,0,0,1,2.12,1c.91,1.44,1.9,2.82,2.87,4.22a1.71,1.71,0,0,0,2.5.63,2,2,0,0,0,.61-3.18C265.41,318.77,264.4,317.59,263.4,316.38ZM155.68,332.22c.36.81.63,1.49.95,2.14a1.47,1.47,0,0,0,2.26.79,2.18,2.18,0,0,0,1.14-2.91c-2.19-4.82-4.33-9.67-6.51-14.49a1.64,1.64,0,0,0-2.74-.64,5.37,5.37,0,0,0-1.14,1.48q-4.39,7.73-8.74,15.48a4.92,4.92,0,0,0-.59,1.33,1.42,1.42,0,0,0,1.8,1.74,2.31,2.31,0,0,0,1.73-1.21,11.32,11.32,0,0,0,.69-1.28,2.1,2.1,0,0,1,2.22-1.48c.83,0,1.64-.17,2.47-.25Zm88.26-9.86c.21.42.39.76.56,1.11s.29.72.47,1.07a1.45,1.45,0,0,0,2.27.72,2.08,2.08,0,0,0,1.07-2.9c-.47-1.12-1-2.23-1.48-3.33-1.63-3.64-3.34-7.24-4.85-10.93a1.88,1.88,0,0,0-3.36-.42,5.11,5.11,0,0,0-.48.73q-4.56,8.05-9.1,16.12a3.73,3.73,0,0,0-.41.94,1.43,1.43,0,0,0,1.57,1.86,2.3,2.3,0,0,0,2-1.3l1.39-2.51Zm-56.66-1.06-.26-.13c0-.58.1-1.16.14-1.74.14-1.65.32-3.29.38-4.95.05-1.28-.74-1.84-2-1.53a2.26,2.26,0,0,0-1.7,2.27c-.17,2-.35,4-.51,6-.26,3.2-.54,6.4-.74,9.61-.09,1.42.85,2,2.19,1.52a2,2,0,0,0,1.41-1.69c.12-1,.16-2,.29-3.05a2.84,2.84,0,0,1,.44-1.34c.78-1,1.67-1.88,2.57-2.88.38.45.69.82,1,1.2,1.49,1.92,3,3.85,4.48,5.76a1.74,1.74,0,0,0,2.54.5,1.92,1.92,0,0,0,.58-3.16c-1.69-1.95-3.29-4-4.93-6-.24-.29-.44-.61-.68-1,1.07-1.11,2.09-2.15,3.08-3.22s2-2.12,3-3.23a1.49,1.49,0,0,0,0-2.22,1.58,1.58,0,0,0-2.24-.05,6.39,6.39,0,0,0-.86.79l-4.13,4.33Q189.3,319.22,187.28,321.3ZM108,341.4a12,12,0,0,0,6.88-1.93,7,7,0,0,0,3.09-4.6c.49-2.49-.44-4.18-2.86-5-1.19-.4-2.46-.57-3.69-.86a19.33,19.33,0,0,1-2.81-.73,1.61,1.61,0,0,1-1-2.36,3.56,3.56,0,0,1,1.29-1.5,6,6,0,0,1,2.2-.69,7.25,7.25,0,0,1,4.11.68,1.73,1.73,0,0,0,2.28-1,1.46,1.46,0,0,0-.64-2.11,6.25,6.25,0,0,0-1.88-.76,10.18,10.18,0,0,0-8.19,1.64,6.41,6.41,0,0,0-2.88,4.39c-.39,2.31.42,3.94,2.6,4.74a30.26,30.26,0,0,0,3.67.91A24.23,24.23,0,0,1,113,333c1.42.53,1.74,1.6,1,2.92a4.05,4.05,0,0,1-3.28,1.9,8.09,8.09,0,0,1-5.08-.88,1.72,1.72,0,0,0-1.92,0,2,2,0,0,0,0,3.46A8.51,8.51,0,0,0,108,341.4Zm62.38-7.23a12.42,12.42,0,0,0,7.51-2.52,6.44,6.44,0,0,0,1.3-1.54,1.41,1.41,0,0,0-.19-1.76,1.51,1.51,0,0,0-1.88-.29,8.76,8.76,0,0,0-1.29.93,7.53,7.53,0,0,1-5.14,1.73,4.51,4.51,0,0,1-4.45-3.72,7.8,7.8,0,0,1,6.11-9.42c1.59-.3,3.13-.38,4.38.86a2,2,0,0,0,2.95-.34,1.89,1.89,0,0,0-.63-2.85,8.47,8.47,0,0,0-7.12-1.12c-7.66,1.7-10.6,9.71-8.88,15.2a6.13,6.13,0,0,0,4.61,4.43C168.53,334,169.45,334,170.36,334.17Z"/><path class="cls-6" d="M249.05,180.73a22.92,22.92,0,0,1-1.21,8c-3.3,9.15-9.8,14.48-19.38,16.05a21.45,21.45,0,0,1-3.49.2q-41.62,0-83.25,0c-9.09,0-16.1-3.94-20.87-11.71a22.63,22.63,0,0,1-3.23-12c0-.38,0-.77,0-1.16l-1.17-.72a10.93,10.93,0,0,1,5.8-20.26H230.47c5.21,0,10.42-.06,15.63,0a10.54,10.54,0,0,1,10.13,6.61A10.84,10.84,0,0,1,250.77,180C250.24,180.27,249.69,180.47,249.05,180.73Zm-126.32.37c0,.91,0,1.64,0,2.36a15.28,15.28,0,0,0,.44,2.43,18.52,18.52,0,0,0,18.07,14c8.52,0,17,0,25.56,0q29.28,0,58.57,0a18.49,18.49,0,0,0,18.13-14.33,10.73,10.73,0,0,0,.38-4.5c-2.74,0-5.41,0-8.08,0a4.41,4.41,0,0,0-2.59.75c-8.09,5.22-16.22,10.39-24.3,15.64a3.47,3.47,0,0,1-4.28-.05c-8-5.22-16.13-10.35-24.18-15.55a4.78,4.78,0,0,0-2.72-.79q-26.73,0-53.46,0Zm61.35-16.95h-60.9a14.63,14.63,0,0,0-1.75.07,5.93,5.93,0,0,0-.4,11.7,15.68,15.68,0,0,0,2.47.15q38.42,0,76.82,0c11.78,0,23.56,0,35.35,0,3.55,0,7.1,0,10.66-.06a5.88,5.88,0,0,0,5.8-5.92,6,6,0,0,0-5.69-5.91c-.58,0-1.16,0-1.75,0Zm5,17-.09.25,17.82,11.41c6-3.82,11.94-7.58,17.73-11.66Z"/><path class="cls-7" d="M184.18,143.33H121.51a12.6,12.6,0,0,1-1.74-.07,2.19,2.19,0,0,1-2.08-2.1c-.25-8.19-.43-16.36,3.53-24a45.3,45.3,0,0,1,13.15-15.42A62.25,62.25,0,0,1,160,90.59a74.92,74.92,0,0,1,14.94-1.45c6.38,0,12.76,0,19.14,0a69.51,69.51,0,0,1,29.7,6.45,50.79,50.79,0,0,1,19.79,15.74,35,35,0,0,1,7.2,21.77c0,2.38,0,4.77,0,7.15,0,2.16-.84,3-3,3.06-4.53,0-9.06,0-13.59,0Zm61.53-5.1v-6.1a27.39,27.39,0,0,0-1.33-8.33,34.79,34.79,0,0,0-11.18-16.26c-9.63-8.15-21-12.14-33.4-13.09a263.44,263.44,0,0,0-29.34-.13,60.68,60.68,0,0,0-19.9,4.16c-7.79,3-14.69,7.36-20.14,13.79a30.34,30.34,0,0,0-7.47,16.2c-.34,2.84-.22,5.73-.29,8.6,0,.37,0,.74.08,1.16Z"/><path class="cls-8" d="M135.28,242.17c-.8.18-1.6.42-2.41.53a1.36,1.36,0,0,0-1.3,1.18c-.32,2-1.07,3.8-1.18,5.83-.14,2.46-.77,4.89-1,7.36-.25,2.65-.32,5.32-.38,8a3.22,3.22,0,0,0,1,2.63,10,10,0,0,0,3.41-2.29,189.9,189.9,0,0,0,11.84-15.93c.42-.64.89-1.25,1.39-1.95l.46.61,2.09-1.7c-2,4.69-5.23,8.57-7.93,12.79-1,1.63-2.32,3.11-3.47,4.67-.27.38-.4.86-.66,1.26A16.3,16.3,0,0,1,133.9,269c-1.15.92-2.1,2.09-3.18,3.11a3.4,3.4,0,0,1-1.91.94,14.61,14.61,0,0,1-4,.51,3.74,3.74,0,0,1-2.71-2.23,28.92,28.92,0,0,1-.72-12.85c.21-1.44.21-2.91.36-4.36.11-1.15.3-2.29.48-3.66-1,.36-2,.63-3,1-1.09.48-2.11,1.13-3.19,1.65s-2.35,1-3.46,1.54c-1.26.68-2.45,1.49-3.79,2.32.37.47.62.81.89,1.13a9.67,9.67,0,0,1,2,6.4c-.94,1.61-.85,3.54-1.6,5.21-.1.21-.34.35-.48.54a11.69,11.69,0,0,0-1.09,1.45c-.35.64-.68,1.2-1.52,1.3a1.81,1.81,0,0,0-1.08.62c-1.55,2-3.83,2.7-6.06,3.42a12.25,12.25,0,0,1-6.61.25c-1.6-.36-3.15-3.18-2.93-4.59s.19-3,1.17-4.29c.73-.95,1.44-1.93,2.2-2.86s1.68-2,2.56-3a20.46,20.46,0,0,1,4.63-4c.16-.09.25-.28.43-.5-.69-1.4-2-2.23-3.16-3.26-.35.39-.69.72-1,1.09-1,1.35-2.07,2.7-3.07,4.08-1.13,1.56-2.16,3.19-3.35,4.7a10.11,10.11,0,0,1-2.72,2.77,6.67,6.67,0,0,1-4.79.5c-2.19-.53-2.87-2.31-3.46-4.11a24,24,0,0,1-.6-3.3c-.06-.37-.15-.73-.28-1.32-.38.51-.63.85-.89,1.18-1.53,1.95-3.07,3.89-4.59,5.84-1.16,1.48-2.88,2-4.53,2.46a10.71,10.71,0,0,1-5.62.1,2.21,2.21,0,0,1-1.78-1.52,10.49,10.49,0,0,1-.48-2.42,19.31,19.31,0,0,1,.89-7.2,32.12,32.12,0,0,1,6.19-11.45,17.06,17.06,0,0,1,3.22-3A8.56,8.56,0,0,1,77.05,242c2.77.27,5.25,1.63,7.84,2.54.11,0,.16.22.29.43a2.9,2.9,0,0,1-2.38.76c-1.21-.07-2.4-.32-3.6-.5-.48-.08-1-.21-1.43-.29a3.34,3.34,0,0,0-3.28,1.11,22.76,22.76,0,0,0-4.38,7.5,8.78,8.78,0,0,1-.38.94,19.44,19.44,0,0,0-2,6.82,22.26,22.26,0,0,0,0,2.71l.31.14a11.77,11.77,0,0,0,1-1.07c2-2.67,4-5.34,6-8,1.09-1.48,2.12-3,3.14-4.56.37-.56.58-1.22,1-1.77a4.76,4.76,0,0,1,3.12-2.25,3.39,3.39,0,0,1,3.29,1.32c.23.24.15.8.15,1.22a12.17,12.17,0,0,1-.06,1.71c-.14,1.15-.38,2.29-.5,3.45-.25,2.55-.66,5.11.07,7.67.22.77.32,1.58.52,2.58,4.29-3.32,6.58-8,10.18-11.68l-1.29-1.37a7.46,7.46,0,0,1-1.93-3.55,3.17,3.17,0,0,1,.56-2.63,11.25,11.25,0,0,1,2.15-2.36c3.76-2.77,7.9-4.63,12.7-4.37,2,.1,3.8,1.14,4.16,2.82a4.19,4.19,0,0,1-1.47,3.95,7.68,7.68,0,0,0-.91.71,2.37,2.37,0,0,1-3.19.24,26.76,26.76,0,0,0,.38-3.15,1.58,1.58,0,0,0-2-1.57,4.63,4.63,0,0,0-2.78,1.47c-.78,1-1.6,1.93-2.36,2.93a1.75,1.75,0,0,0-.29,1c0,.69.31,1.05,1.12.81a2.3,2.3,0,0,0,1,2.44c1.27,1.12,2.47,2.32,3.69,3.51.87.85,1,.91,2.16.32A62.46,62.46,0,0,1,119,249.42c1.11-.31,2.25-.53,3.48-.81l.91-4.27a11.06,11.06,0,0,0-2.75.68,9,9,0,0,1-3.49.68,6.29,6.29,0,0,1-1.8-.48l-.38.86c-.28-.16-.41-.19-.43-.25-.17-.71,0-1.09.82-1.32s1.84-1,2.8-1.34a46.13,46.13,0,0,1,4.73-1.46c.68-.17,1-.42,1.12-1.1.35-2.15.79-4.3,1.09-6.46.26-2,.32-4,.58-5.93.36-2.8,2.07-4.21,5.12-3.67,2.85.51,3.5,2.12,3.36,5.06a51.62,51.62,0,0,1-1.18,6.56c-.18,1.08-.23,2.19-.34,3.28,3.48,0,6.81-.33,10,.84-.8.9-1.74.77-2.74.75a28.4,28.4,0,0,0-3.44.33C135.73,241.14,135.54,241.71,135.28,242.17ZM94.19,272.25a13.82,13.82,0,0,1,1,1.14,4.41,4.41,0,0,0,5.54.74,10.4,10.4,0,0,0,4.29-6.66c.22-1.45.54-2.83-.28-4.18a2.58,2.58,0,0,1-.11-.42c-.28-.91-.57-1.82-.89-2.83a18,18,0,0,0-4.54,3.88c-.86.92-1.61,2-2.53,2.81a5.9,5.9,0,0,0-2,3.43C94.58,270.86,94.37,271.54,94.19,272.25Z"/><path class="cls-9" d="M290.43,226.8a12,12,0,0,0,1.29.85c1.2.59,1.38,1.1,1.08,2.38-.56,2.42-1,4.85-1.54,7.28a5.54,5.54,0,0,0,0,1c.74-.54,1.35-.91,1.88-1.38a8,8,0,0,1,2.68-1.69,9.13,9.13,0,0,0,2.26-1.31,2.62,2.62,0,0,0,.74-1.18c.95-2.55,1.76-5.15,2.83-7.64a32.67,32.67,0,0,1,2.6-4.35c.28-.45.72-.81,1-1.26a5.59,5.59,0,0,1,4.65-2.63,7.32,7.32,0,0,1,5.42,1.62c1.81,1.43,2.14,5.4.6,7.08a5.35,5.35,0,0,0-.72,1.08,8.81,8.81,0,0,1-2.49,3,2.6,2.6,0,0,0-.65.58,10.35,10.35,0,0,1-4.42,3.23,3.5,3.5,0,0,0-2.19,3.16c-.06,1-.33,2-.4,3a4.54,4.54,0,0,0,.19,1.84,1.79,1.79,0,0,0,2.26,1.06l.14,0a26.41,26.41,0,0,0,6.79-4.41c.5-.45,1-.85,1.52-1.33,1.63-1.65,3.22-3.34,4.86-5s3.27-3.19,4.86-4.82a3.14,3.14,0,0,0,.92-1.57c.32-2.16.51-4.34.74-6.52,0-.29.06-.58.07-.87a2.66,2.66,0,0,1,1.5-2.45c1.31-.66,2.62-1.25,4.12-.63.22.09.46.16.69.23,1.8.61,1.81.72,1.59,2.58-.15,1.29-.13,2.61-.2,4,.58.07.81-.42,1.18-.66,1.57-1.05,3.09-2.19,4.75-3.08,1.83-1,1.89-.88,4.33.13-.37.36-.65.85-1,.95-1.68.41-2.89,1.63-4.32,2.46a6.22,6.22,0,0,0-1.54,1.3,31.32,31.32,0,0,0-4.48,6.79,2.37,2.37,0,0,0-.28.81c-.12,1.8-.3,3.59-.28,5.39a11.38,11.38,0,0,1-.51,4,2,2,0,0,1-.75,1,10,10,0,0,1-5.89,1.25c-.53,0-1-.6-1-1.38,0-1.7.09-3.4.17-5.1.08-1.51.21-3,.34-4.76a9.93,9.93,0,0,0-.84.73,80.81,80.81,0,0,1-12.65,12.29,7.88,7.88,0,0,1-4.93,1.5c-1.5,0-3-.09-4.52-.11a1.51,1.51,0,0,1-1.6-1,8.44,8.44,0,0,0-.86-1.34l-.9-2,.41-5.42c-.94.72-.72,1.71-1,2.49l-.34-.37,0-.74-.12-.57-.43.19-3.45,2.26,1,.25c-1,.71-1.87,1.31-2.71,2a10.42,10.42,0,0,0-2,1.71,3.38,3.38,0,0,0-.6,1.87,70.62,70.62,0,0,1-1.27,12.32c-.71,3.37-1.62,6.71-2.46,10a3.88,3.88,0,0,1-.44.89,5,5,0,0,0-.72,1.22,12.93,12.93,0,0,1-2,3.82c-.77,1.28-1.54,2.57-2.4,3.8a4.86,4.86,0,0,1-2.95,2.18c-1,.24-1.87,1.12-3,1.35-1.75.35-3.45,1-5.28.8a13.62,13.62,0,0,1-2.7-.55c-3-1.06-4.2-4.25-3.18-7.31a6.82,6.82,0,0,0,.36-1.84,17.34,17.34,0,0,1,2.92-8.43c.21-.33.39-.67.57-1,.77-1.43,1.44-2.93,2.32-4.29a31,31,0,0,1,2.24-2.64c.7-.87,1.27-1.84,2-2.69a32.61,32.61,0,0,1,2.84-3c1.71-1.57,3.5-3.07,5.29-4.55a1.89,1.89,0,0,0,.82-1.58c0-1.31.12-2.62.2-4.28l-1.91,1.73.55.24a45,45,0,0,1-3.91,3.41c-2.24,1.53-4.63,2.58-7.51,1.82-3.72-1-4.68-2.15-4.22-6a14.93,14.93,0,0,1,1.88-5.93,37.17,37.17,0,0,1,8-10,14.46,14.46,0,0,1,5.43-3,8.91,8.91,0,0,1,4.86,0,9.36,9.36,0,0,1,3.4,2.37,1.86,1.86,0,0,1,.3,2.41c-2.27,1.56-4.07.33-5.75-1-5.54,2.75-11.76,12.63-11.13,17.15.52-.33,1-.61,1.48-.95a56.35,56.35,0,0,0,7.55-6.41c1.44-1.5,2.95-3,2.89-5.28a.86.86,0,0,1,.09-.42c.38-.66.7-1.4,1.5-1.65A6.29,6.29,0,0,1,290.43,226.8Zm-9.61,21,1.18-.27c0,.16.1.38,0,.45-.59.54-1.21,1.05-1.82,1.57l-.6.53-.24.37c-.55.05-1.19-.3-1.58.35s-.73,1.29-1.09,1.93c-.08.13-.22.26-.21.38a1.74,1.74,0,0,1-1.22,1.88c-.27.1-.37.63-.56,1a8,8,0,0,1-1.13,1.82,4,4,0,0,0-1,1.73,6.69,6.69,0,0,1-1.34,2.81c-1.26,1.14-1.19,2.64-1.62,4-.16.49-.37,1-.54,1.44a3.61,3.61,0,0,0-.4,2.33c.41,1.57.49,3.24,1,4.8a3.75,3.75,0,0,0,2.24,2.47,1.88,1.88,0,0,0,1.6-.3A13.72,13.72,0,0,0,278,271.3c.93-2.59,2.05-5.1,2.78-7.79.85-3.16,1-6.41,1.72-9.57.47-1.95.18-4.05.68-6.05a6.16,6.16,0,0,0,0-1.18,4.5,4.5,0,0,1-.6.66,2.76,2.76,0,0,1-.58.16v-1.24c-.57.5-1.22.72-1.17,1.51l-.07,0ZM313,221.36l-.37-.09A18.31,18.31,0,0,0,307.7,231c.75-.62,1.26-1.55,2-2a6.57,6.57,0,0,0,3.12-5.21C313,223,313,222.17,313,221.36Z"/><path class="cls-10" d="M183.27,233.82a30.21,30.21,0,0,0,3.57-2.36c1.57-1.39,3.4-2.5,4.6-4.32.71-1.08,1.67-2,2.44-3a16.27,16.27,0,0,0,1.75-2.76,13.38,13.38,0,0,0,1-4.84,3.59,3.59,0,0,0-1.31-3.38c-.81-.61-1.54-1.32-2.35-1.93-2.46-1.83-5.26-1.6-8-1-1.83.42-3.67.91-5.48,1.49a35.59,35.59,0,0,0-6,2.85c-2.09,1.13-4.09,2.45-6.06,3.78a10.7,10.7,0,0,0-3.84,4.47,20.11,20.11,0,0,1-1.89,2.91,1.28,1.28,0,0,1-1.25.69l.2-1.23c-.71-.41-.83.27-1.15.64l-.78-1.19a18.33,18.33,0,0,1,5.64-7.17c.81-.68,1.48-1.52,2.32-2.15a51.35,51.35,0,0,1,10.38-6.3A25.45,25.45,0,0,1,188,206.63a44.22,44.22,0,0,1,5.34.74c.52.08,1,.33,1.55.37a11.93,11.93,0,0,1,6,2.67,7.7,7.7,0,0,1,3.18,5.52,12.31,12.31,0,0,1-1.82,7.1,28.56,28.56,0,0,1-6.74,7.54c-1.75,1.52-3.63,2.88-5.46,4.31a1.88,1.88,0,0,0-.17.35l4.26.89a18.51,18.51,0,0,1,9.26,5.25A13.24,13.24,0,0,1,207,249.2a5,5,0,0,1,.05,2.3c-.87,2.23-1.15,4.71-2.68,6.65-.46.59-.79,1.36-1.63,1.6-.21.06-.38.3-.54.48l-2.49,2.84c0-.05,0,0,0,0s.09,0,.14,0h.27c0,.08,0,.2,0,.24a46.14,46.14,0,0,1-9.6,7.55,24.65,24.65,0,0,1-7.49,2.62,11.61,11.61,0,0,0-1.52.47c-.38.14-.7.5-1.16.05-.12-.12-.6.16-.92.21-.73.12-1.54.52-2-.46a.49.49,0,0,0-.32-.2c-1.87-.32-3.73-.67-5.6-.93-.65-.09-1-.35-1-.93a1.18,1.18,0,0,0-.31-.18c-1.65-.24-2-.56-1.81-2.23.2-2.17.47-4.33.67-6.5.16-1.65.19-3.3.38-4.94.2-1.79.57-3.56.79-5.34.39-3.06.72-6.12,1.09-9.3L169.8,243l-3-.25c-.14,0-.31-.16-.4-.11-1.59.84-2.26-.61-3.5-1.18,2.92-2,6.22-2.53,9.18-4.1.13-2.9.79-5.79.38-8.8-.2-1.48.24-3,.29-4.57,0-1.2-.06-2.4-.09-3.6a1.31,1.31,0,0,1,0-.56c1.31-2.81,4.3-4,6.59-3a9.22,9.22,0,0,1,3.05,1.64,5.52,5.52,0,0,1,1.54,4.8c-.25,2.65-.39,5.31-.57,8-.06.82-.1,1.63-.15,2.45,0,.09,0,.18-.05.27Zm-5.18,36.69a10.79,10.79,0,0,0,2.35-.76c1.54-1,3.33-1.53,4.74-2.77.6-.54,1.44-.81,2.1-1.31a36.06,36.06,0,0,0,8.88-9.55,28.68,28.68,0,0,0,2.07-4,7.36,7.36,0,0,0,.13-5.68,14.22,14.22,0,0,0-1-2,7,7,0,0,0-3.8-3.42,24.48,24.48,0,0,0-7.71-1.4,11.35,11.35,0,0,0-3.88.39c-.18,1.79-.32,3.54-.55,5.27-.36,2.74-.79,5.48-1.19,8.22s-.79,5.28-1.14,7.92c-.31,2.31-.55,4.63-.82,6.94C178.23,269,178.19,269.52,178.09,270.51Z"/><path class="cls-11" d="M110.2,144.91a10.84,10.84,0,0,1,4.93,1.34c1.21.62,2.36,1.36,3.53,2s2.09,1.26,3.16,1.83a5.91,5.91,0,0,0,5.87,0c1.07-.56,2.09-1.23,3.14-1.84,1.35-.77,2.67-1.62,4.07-2.28a10.38,10.38,0,0,1,9.43,0c1.44.7,2.8,1.57,4.19,2.36,1.06.6,2.09,1.25,3.17,1.81a5.78,5.78,0,0,0,5.6,0c1.24-.65,2.43-1.43,3.65-2.13s2.43-1.44,3.7-2.05a10.42,10.42,0,0,1,9.3,0c1.57.75,3,1.71,4.56,2.58,1,.55,1.92,1.15,2.92,1.65a5.64,5.64,0,0,0,5.46,0c1.12-.58,2.2-1.24,3.3-1.87,1.39-.79,2.75-1.66,4.19-2.35a10.47,10.47,0,0,1,9.17-.08c1.06.47,2.07,1.07,3.08,1.64,1.52.87,3,1.83,4.54,2.65a5.47,5.47,0,0,0,5.32.07c1.17-.6,2.29-1.29,3.43-1.94,1.44-.81,2.83-1.72,4.32-2.41a10.3,10.3,0,0,1,9.17.06c1.39.68,2.72,1.51,4.07,2.27s2.42,1.45,3.68,2.08a5.33,5.33,0,0,0,4.93,0c1.43-.72,2.8-1.56,4.17-2.39a18.76,18.76,0,0,1,6.21-2.81,9.81,9.81,0,0,1,2-.19,2.4,2.4,0,0,1,2.47,2.21,2.37,2.37,0,0,1-2.09,2.71c-2.31.1-4.13,1.26-6,2.38a52.2,52.2,0,0,1-5,2.76,9.79,9.79,0,0,1-8.61,0c-1.93-.91-3.73-2.08-5.59-3.13-.85-.47-1.71-.94-2.58-1.37a5,5,0,0,0-4.51-.08c-1.27.59-2.48,1.33-3.71,2-1.57.87-3.09,1.85-4.72,2.6a10,10,0,0,1-8.62,0c-1.28-.58-2.5-1.3-3.72-2s-2.65-1.64-4-2.35a5.66,5.66,0,0,0-5.59,0c-1.2.65-2.35,1.39-3.53,2.05-1.4.79-2.77,1.63-4.23,2.3a9.91,9.91,0,0,1-8.48,0c-1.63-.74-3.15-1.72-4.72-2.59-1.19-.66-2.36-1.37-3.57-2a5.17,5.17,0,0,0-4.79,0c-1.3.65-2.54,1.42-3.81,2.13-1.44.81-2.84,1.7-4.34,2.38a9.94,9.94,0,0,1-8.62,0c-1.58-.74-3.06-1.68-4.59-2.53-1.23-.68-2.44-1.41-3.7-2a4.92,4.92,0,0,0-4.38,0c-1.1.5-2.16,1.11-3.22,1.7-1.52.86-3,1.83-4.54,2.62a10.5,10.5,0,0,1-10,0c-1.34-.68-2.61-1.5-3.92-2.25a33.81,33.81,0,0,0-3-1.72,10.25,10.25,0,0,0-2.78-.77c-1.7-.24-2.67-1.21-2.58-2.74A2.48,2.48,0,0,1,110.2,144.91Z"/><path class="cls-6" d="M246,241.24a9.33,9.33,0,0,0-1.09,2,8.75,8.75,0,0,1-3.38,5.17,8.19,8.19,0,0,1-3.53,1.89,2.28,2.28,0,0,1-.71.11c-2-.38-3.93-.81-5.25-2.52a11.6,11.6,0,0,1-2.36-5c-.19-1-.42-1.95-.71-3.26-.93,1.49-1.64,2.74-2.46,3.92a71.26,71.26,0,0,1-5,6.84c-2.44,2.75-5.88,2.78-8.8,1.37a2.06,2.06,0,0,1-.76-.84,8.44,8.44,0,0,1-1.1-4.33,44.73,44.73,0,0,1,1.92-12,9.31,9.31,0,0,0,.49-2.12,5.77,5.77,0,0,1,1.42-3.09,1.39,1.39,0,0,1,.84-.45c1.65-.34,3.18.26,4.7.7.86.25.91,1.15.82,1.85-.26,2.11-.56,4.23-1,6.32a39.42,39.42,0,0,0-1.15,8.36c0,.26.08.53.16,1.1a13,13,0,0,0,1.09-1.25q1.11-1.71,2.16-3.45a81.11,81.11,0,0,0,5.2-10.74c.63-1.52,1.26-3,1.94-4.54.22-.46.55-1.08.94-1.19a2.94,2.94,0,0,1,2,.1c.85.46,2.08.38,2.49,1.55a.28.28,0,0,0,.23.12c1.21-.27,1,.68,1.17,1.32a10.58,10.58,0,0,1-.05,4.75c-.31,2.34-.54,4.7-.63,7.06a7.72,7.72,0,0,0,2.13,6,6.08,6.08,0,0,0,2.95-2.18,30.87,30.87,0,0,0,4.19-7.31,17.35,17.35,0,0,0,1.54-4.48c0-.15.25-.27.39-.41.39,0,.9.14.93-.53.17-1.83.4-3.67.5-5.51.07-1.56,1.2-2.11,2.34-2.62a5.53,5.53,0,0,1,4.63.33c1,.44,1.11.7,1,1.8-.14,1.48-.23,3-.35,4.52.27-.06.45-.05.53-.13a22,22,0,0,1,4.41-3.07,9,9,0,0,1,2.21-1.07,4,4,0,0,1,1.69.06,7.89,7.89,0,0,1,1.28.45c0,.68-.52.94-1,1.15a16.06,16.06,0,0,0-6.61,4.88A30.13,30.13,0,0,0,255,238.2a3.06,3.06,0,0,0-.44,1.21c-.1,2.23-.08,4.46-.23,6.69a17.66,17.66,0,0,1-.7,3.07.53.53,0,0,1-.29.3c-1.66.7-3.29,1.56-5.18,1.42s-2.12-.35-2.07-2.21c.05-1.61.23-3.2.35-4.8.05-.73.08-1.45.12-2.18l.27-3.29A4.47,4.47,0,0,0,246,241.24Z"/><path class="cls-10" d="M42.32,275.86c0,1.25,0,2.49.06,3.74a2.18,2.18,0,0,0,.12,1c.67,1.17.37,2.42.45,3.7l-.44-.18-1.12,1.45c0,.25.11.68.17,1.11-.87.45-1.58-.11-2.34-.36l-.35,2c-.69-.26-1.31-.55-1.43-1.39,0-.17-.11-.41-.23-.46a3.12,3.12,0,0,1-1.68-2.55c-.5-2.38-.9-4.77-1.34-7.16l.36-11.17-.22-.21-.21.54a.45.45,0,0,0-.23,0l.42-6.26-1.14-.11c.24-2,.38-2.17,1.91-2.88.28-2.27.54-4.58.87-6.89s.68-4.62,1.08-6.91a10.17,10.17,0,0,0,.14-3.48c-.16-1-.3-2-.39-3a1.36,1.36,0,0,1,.24-.79,11.32,11.32,0,0,0,.89-1.38,8.66,8.66,0,0,1-3.59-.11c-.91-.14-1.16-.57-1-1.33,1.73-1.28,3.3-2.68,5.33-3.38s4-1.55,6-2.24,4.15-1.38,6.26-1.95a32.66,32.66,0,0,1,4.29-.77,12.86,12.86,0,0,0,3.27-.51,8.2,8.2,0,0,1,2.9-.12c1,0,2.09.09,3.22.15l-.51.33.91.25-.33,1.72-1.93.73.11.11c-1,.26-2,.61-3,.81-1.29.25-2.61.32-3.89.58s-2.44.63-3.65,1a13.24,13.24,0,0,1-1.68.48c-2.46.33-4.59,1.55-6.85,2.41-.16.06-.28.24-.66.58a17.56,17.56,0,0,0,1.85.26c1.48,0,2.14.55,2.09,2-.08,2.23-.17,4.47-.46,6.68-.38,3-1,5.95-1.43,8.93-.11.66-.12,1.33-.18,2.1a7.31,7.31,0,0,0,.94,0c2.19-.39,4.41-.7,6.57-1.25a11.82,11.82,0,0,1,3.28-.38c1.9,0,2.09.21,2.62,2.09a1.9,1.9,0,0,1-1.73.67,1.41,1.41,0,0,0-1.7.76c-.14.3-.79.47-1.22.52-3.18.38-6.1,1.6-9.09,2.61a1.52,1.52,0,0,0-.3.21c-.24,1.72-.47,3.5-.76,5.27-.14.84-.39,1.66-.59,2.49l.07.38v.44a4.71,4.71,0,0,0-1,3c0,1,.08,2,.12,3l0,1.67C41.44,275,42.09,275.39,42.32,275.86Z"/><path class="cls-12" d="M267.36,128.86,290.58,122l38.75-11.36.81-.23c.36,1.3.69,2.55,1.06,3.92-1.09.28-2.06.53-3,.76l-59.92,14a5.62,5.62,0,0,1-.57.09Z"/><path class="cls-12" d="M100.49,158.06q-6,.65-12,1.31L73.82,161l-14.64,1.64L45,164.22l-9.27,1c-.72.08-1.44.13-2.27.19l-.35-3.9a4,4,0,0,1,.83-.21l16.17-.89,15-.81,29.3-1.57,5.53-.3Z"/><path class="cls-2" d="M268,143.79q6.17-.66,12.34-1.34l17.26-1.91,16.84-1.87,17.41-1.93,3.19-.35c.09,1.39.18,2.64.27,4a6.66,6.66,0,0,1-.85.19q-13,.72-25.95,1.42c-6.27.34-12.54.64-18.81,1l-20.56,1.14Z"/><path class="cls-12" d="M97.89,143.19c-4.08-.24-8.16-.47-12.24-.73-3.65-.23-7.29-.48-10.93-.72l-17.19-1.12L47,140l-13.82-.89L33.6,135l5.87.7,18.11,2.2,18.55,2.22,20.73,2.49,2.46.31Z"/><path class="cls-13" d="M221.14,72.1q2.49-5.76,5-11.5,10.08-23.06,20.18-46.09c.17-.39.37-.77.62-1.27L250.6,15c-.48.95-.88,1.77-1.29,2.59L222.8,69.86c-.44.87-.89,1.73-1.33,2.59Z"/><path class="cls-12" d="M100.24,128.27,37.58,113.08l1-3.86a8.39,8.39,0,0,1,1,.16l60.79,18.44.41.16Z"/><path class="cls-13" d="M134.13,79.18Q127,69.51,119.84,59.82L97,28.8l-.7-1,3.24-2.31a6.37,6.37,0,0,1,.67.78q17,26.07,34,52.16a2.81,2.81,0,0,1,.19.39Z"/><path class="cls-2" d="M104.63,113.66l-20-8.73L47.87,88.84c-.44-.19-.87-.4-1.45-.67l1.72-3.62c.39.17.7.28,1,.43l55.42,28.07c.21.11.42.24.63.36Z"/><path class="cls-14" d="M122.67,89.17c-4-3.78-8-7.55-12-11.35L77.76,46.4c-.49-.46-1-.87-1.44-1.2L79.44,42a4,4,0,0,0,.5.88Q99.73,64,119.52,85.13c1.17,1.24,2.32,2.49,3.48,3.74Z"/><path class="cls-14" d="M247.44,87.87l10.64-11.23q15.53-16.27,31.05-32.54A12.41,12.41,0,0,0,290,43c1.1,1.1,2,2,3,3-.95.9-2,1.87-3,2.82L249.71,86.54c-.63.59-1.3,1.13-2,1.69Z"/><path class="cls-2" d="M235.54,77.78c3.31-5,6.6-10,9.92-15q11.72-17.61,23.45-35.22c.3-.44.61-.87,1-1.39l3.29,2.33c-.21.32-.36.56-.53.79L236.23,77.9c-.12.16-.26.29-.38.44Z"/><path class="cls-2" d="M264.44,113.67,275,108.4,319.3,86.47l1.58-.74c.57,1.23,1.11,2.4,1.69,3.63-.41.22-.74.41-1.08.56l-52.8,22.55c-1.21.52-2.42,1-3.63,1.51Z"/><path class="cls-2" d="M256.85,100.23c4.06-3,8.1-6,12.18-9l37-27.22,1.33-1c.77,1.06,1.52,2.11,2.37,3.3-.46.33-.87.63-1.29.91L270.84,91.77q-6.7,4.38-13.44,8.73Z"/><path class="cls-13" d="M147.33,71.56c-1.17-2.33-2.35-4.66-3.5-7Q133.75,44.24,123.69,23.9l-4.14-8.37c-.17-.33-.29-.69-.47-1.15l3.54-1.65a10,10,0,0,1,.52.89q11.64,27.23,23.26,54.46c.41,1,.79,1.93,1.18,2.9Z"/><path class="cls-13" d="M207.42,64.8q1.32-5.61,2.66-11.2,4.8-19.85,9.62-39.67,1-4.26,2.08-8.5c.07-.27.17-.54.31-.95l3.88,1c-.56,1.89-1.07,3.65-1.61,5.41Q216.2,37.85,208,64.77c-.07.24-.17.46-.26.69Z"/><path class="cls-13" d="M161.6,66c-1.52-5.13-3-10.25-4.55-15.38Q150.5,28.36,144,6c-.06-.22-.13-.45-.24-.84l3.88-1.05c.17.59.34,1.08.46,1.58l13.74,58.92c.07.33.1.67.16,1Z"/><path class="cls-2" d="M111.1,99.62,90.92,86.22,60.18,65.77c-.2-.13-.39-.28-.72-.52L61.75,62c.29.17.54.29.76.45L111.32,99a2.89,2.89,0,0,1,.32.29Z"/><path class="cls-15" d="M290.43,226.8a6.29,6.29,0,0,0-3.38.37c-.8.25-1.12,1-1.5,1.65a.86.86,0,0,0-.09.42c.06,2.32-1.45,3.78-2.89,5.28a56.35,56.35,0,0,1-7.55,6.41c-.46.34-1,.62-1.48.95-.63-4.52,5.59-14.4,11.13-17.15,1.68,1.37,3.48,2.6,5.75,1Z"/><path class="cls-16" d="M33.89,265.91a.45.45,0,0,1,.23,0c-.07,1.1-.19,2.19-.21,3.29,0,2.52,0,5,0,7.55v3.2l-.32.05a7.94,7.94,0,0,1-.25-1.43q0-3.5.08-7c0-1.31.12-2.62.22-3.93C33.66,267,33.8,266.48,33.89,265.91Z"/><path class="cls-17" d="M42.16,272.71c0-1-.09-2-.12-3a4.71,4.71,0,0,1,1-3c.54.37.49.88.35,1.41a4.71,4.71,0,0,0-.15,1.95A3.36,3.36,0,0,1,42.16,272.71Z"/><path class="cls-16" d="M299.5,240.78l.9,2-.38.41c-1.71-1-2.18-3.69-1.46-5.74l.34.37C299.08,238.83,298.82,239.9,299.5,240.78Z"/><path class="cls-16" d="M192,62.81h.52c-.25,2.33-.49,4.65-.74,7l-.32,0Z"/><path class="cls-16" d="M111.1,99.62l.54-.29,5.36,3.86c-.36,0-.54.06-.63,0C114.6,102,112.85,100.81,111.1,99.62Z"/><path class="cls-16" d="M235.54,77.78l.31.56-3.8,5.25-.28-.2C233,81.48,234.16,79.58,235.54,77.78Z"/><path class="cls-16" d="M256.85,100.23l.55.27L252,104.17l-.22-.32Z"/><path class="cls-4" d="M33.89,276.72c0-2.52,0-5,0-7.55,0-1.1.14-2.19.21-3.29l.21-.54.22.21-.36,11.17Z"/><path class="cls-16" d="M147.33,71.56l.25-.58a41.59,41.59,0,0,1,2.17,4.94l-.3.14Q148.4,73.81,147.33,71.56Z"/><path class="cls-16" d="M104.63,113.66l.55-.25,4.49,2.15-.14.31A50,50,0,0,1,104.63,113.66Z"/><path class="cls-16" d="M247.44,87.87l.32.36L243.93,92l-.24-.29Z"/><path class="cls-16" d="M221.14,72.1l.33.35q-1.08,2.23-2.17,4.46l-.31-.15Z"/><path class="cls-16" d="M207.42,64.8l.34.66c-.42,1.45-.83,2.91-1.25,4.36h-.4C206.55,68.16,207,66.48,207.42,64.8Z"/><path class="cls-16" d="M176.81,64.57h.43c.12,1.62.23,3.23.35,4.85A15.79,15.79,0,0,1,176.81,64.57Z"/><path class="cls-17" d="M100.24,128.27l.58-.29a18.08,18.08,0,0,1,4.2,1.29l-.08.27Z"/><path class="cls-16" d="M264.44,113.67l.62.31-3.25,1.44-.55-.24Z"/><path class="cls-17" d="M97.89,143.19l1.43-.27,3.78.34A12.41,12.41,0,0,1,97.89,143.19Z"/><path class="cls-17" d="M267.36,128.86l.32.32a18.69,18.69,0,0,1-3.93,1l-.09-.36Z"/><path class="cls-16" d="M161.6,66l.37-.39c.28,1.17.56,2.35.85,3.52l-.27.35C162.23,68.36,161.92,67.2,161.6,66Z"/><path class="cls-16" d="M134.13,79.18l.32-.33,2.19,3.24h-.43Z"/><path class="cls-16" d="M122.67,89.17l.33-.3,3,3.18-.41,0Z"/><path class="cls-4" d="M246,241.24a4.47,4.47,0,0,1,.79-2.83l-.27,3.29Z"/><path class="cls-17" d="M261.26,115.18l.55.24-3,1.33-.16-.34Z"/><path class="cls-4" d="M268,143.79l1.14.3a9.32,9.32,0,0,1-3.6.25l0-.3Z"/><path class="cls-4" d="M100.49,158.06l-.57-.3,3-.38.05.3A4,4,0,0,1,100.49,158.06Z"/><path class="cls-16" d="M135.28,242.17c.26-.46.45-1,1.18-.8l1.75.47Z"/><path class="cls-17" d="M243.69,91.73l.24.29-1.7,1.6-.23-.25Z"/><path class="cls-17" d="M162.55,69.52l.27-.35c.21.72.42,1.44.64,2.17l-.35.1C162.92,70.8,162.73,70.16,162.55,69.52Z"/><path class="cls-17" d="M206.11,69.83h.4c-.18.64-.37,1.28-.56,1.92l-.28-.07Z"/><path class="cls-17" d="M247.81,232c0,.67-.54.5-.93.53l.3-1Z"/><path class="cls-17" d="M136.21,82.09h.43l.76,1.11-.28.19Z"/><path class="cls-17" d="M42.32,275.86c-.23-.47-.88-.9-.18-1.48Z"/><path class="cls-4" d="M125.62,92.09l.41,0,.85.8-.28.28Z"/><path class="cls-16" d="M298.05,236.36l.43-.19.12.57Z"/><path class="cls-16" d="M192.18,61l-.08.41Z"/><path class="cls-17" d="M43,266.27l-.07-.38Z"/><path class="cls-16" d="M177,59.33c0-.14-.06-.28-.08-.42C176.9,59.05,176.93,59.19,177,59.33Z"/><path class="cls-18" d="M224.39,317.49c2.47,1.34,3.16,2.92,2.46,5.51a6.58,6.58,0,0,1-5.42,5.12c-3.3.59-6.65.87-10,1.22-1.33.14-1.76-.33-1.67-1.72.22-3.15.5-6.3.75-9.46.16-1.89.33-3.77.48-5.66s.63-2.34,2.37-2.55c2.51-.31,5-.57,7.54-.83,1.85-.19,3.57.12,4.57,1.87a5,5,0,0,1-.36,5.51C224.91,316.82,224.66,317.12,224.39,317.49Zm-10.83,8.27c2.47-.27,4.78-.47,7.08-.78a2.81,2.81,0,0,0,2.31-2c.64-1.82-.35-3.13-2.28-3-.87.06-1.74.2-2.61.31l-4.09.51C213.83,322.47,213.7,324.05,213.56,325.76Zm.71-8.55a2.3,2.3,0,0,0,.5.11c1.83-.19,3.66-.36,5.49-.58a2.43,2.43,0,0,0,2.05-2c.31-1.32-.36-2.32-1.68-2.23-2,.14-3.93.48-5.89.74-.06,0-.11.14-.19.26Z"/><path class="cls-15" d="M134.47,331.14c.18-2.05.34-3.73.48-5.41s.21-3.3.42-4.94a4.28,4.28,0,0,1,.71-1.85,1.64,1.64,0,0,1,2.06-.63,1.66,1.66,0,0,1,1,1.78c-.15,1.8-.27,3.59-.42,5.39-.26,3.15-.54,6.29-.81,9.44a6.9,6.9,0,0,1-.09,1,2.25,2.25,0,0,1-1.55,1.78A2.12,2.12,0,0,1,134,337a11.09,11.09,0,0,1-.91-1.14l-7.28-9.34a4.38,4.38,0,0,0-.41,1.87c-.23,2.77-.44,5.53-.68,8.29a4.29,4.29,0,0,1-.26,1.28,2,2,0,0,1-2.37,1.23c-.79-.2-1.15-.82-1.06-2q.46-5.67,1-11.34c.11-1.31.24-2.61.34-3.92.08-.94.35-1.72,1.36-2a2.22,2.22,0,0,1,2.57.89q3.47,4.41,7,8.81C133.57,330.07,133.91,330.46,134.47,331.14Z"/><path class="cls-15" d="M263.4,316.38c1,1.21,2,2.39,3,3.62a2,2,0,0,1-.61,3.18,1.71,1.71,0,0,1-2.5-.63c-1-1.4-2-2.78-2.87-4.22a1.78,1.78,0,0,0-2.12-1,28.53,28.53,0,0,1-3.13.38c-.14,1.59-.28,3.12-.39,4.66a2.39,2.39,0,0,1-1.37,2.23c-1.4.63-2.48-.05-2.38-1.57.21-3,.47-6,.71-9,.17-2,.35-4.07.51-6.1.15-1.78.72-2.36,2.53-2.56,2.17-.25,4.34-.55,6.51-.74a8.67,8.67,0,0,1,2.74.14,4.39,4.39,0,0,1,3.39,3.92,6.9,6.9,0,0,1-2.93,6.73l-.93.7S263.49,316.18,263.4,316.38Zm-7.57-7.84c-.14,2-.27,3.87-.41,5.92,2.09-.25,4-.4,5.92-.74a3.4,3.4,0,0,0,2.58-3.31c.05-1.69-.79-2.59-2.47-2.47S257.79,308.32,255.83,308.54Z"/><path class="cls-15" d="M155.68,332.22l-6.46.7c-.83.08-1.64.24-2.47.25a2.1,2.1,0,0,0-2.22,1.48,11.32,11.32,0,0,1-.69,1.28,2.31,2.31,0,0,1-1.73,1.21,1.42,1.42,0,0,1-1.8-1.74,4.92,4.92,0,0,1,.59-1.33q4.35-7.74,8.74-15.48a5.37,5.37,0,0,1,1.14-1.48,1.64,1.64,0,0,1,2.74.64c2.18,4.82,4.32,9.67,6.51,14.49a2.18,2.18,0,0,1-1.14,2.91,1.47,1.47,0,0,1-2.26-.79C156.31,333.71,156,333,155.68,332.22ZM154,328.74l-2.65-6.59-4,7.33Z"/><path class="cls-18" d="M243.94,322.36l-10.37,1.16L232.18,326a2.3,2.3,0,0,1-2,1.3,1.43,1.43,0,0,1-1.57-1.86,3.73,3.73,0,0,1,.41-.94q4.54-8.05,9.1-16.12a5.11,5.11,0,0,1,.48-.73,1.88,1.88,0,0,1,3.36.42c1.51,3.69,3.22,7.29,4.85,10.93.5,1.1,1,2.21,1.48,3.33a2.08,2.08,0,0,1-1.07,2.9,1.45,1.45,0,0,1-2.27-.72c-.18-.35-.31-.72-.47-1.07S244.15,322.78,243.94,322.36Zm-4.25-10.06c-1.44,2.54-2.76,4.8-4,7.31,1.32-.13,2.38-.23,3.44-.35l3.17-.4C241.42,316.63,240.61,314.6,239.69,312.3Z"/><path class="cls-15" d="M187.28,321.3q2-2.08,4-4.18l4.13-4.33a6.39,6.39,0,0,1,.86-.79,1.58,1.58,0,0,1,2.24.05,1.49,1.49,0,0,1,0,2.22c-.94,1.11-2,2.17-3,3.23s-2,2.11-3.08,3.22c.24.35.44.67.68,1,1.64,2,3.24,4,4.93,6a1.92,1.92,0,0,1-.58,3.16,1.74,1.74,0,0,1-2.54-.5c-1.51-1.91-3-3.84-4.48-5.76-.3-.38-.61-.75-1-1.2-.9,1-1.79,1.9-2.57,2.88a2.84,2.84,0,0,0-.44,1.34c-.13,1-.17,2-.29,3.05a2,2,0,0,1-1.41,1.69c-1.34.5-2.28-.1-2.19-1.52.2-3.21.48-6.41.74-9.61.16-2,.34-4,.51-6a2.26,2.26,0,0,1,1.7-2.27c1.26-.31,2.05.25,2,1.53-.06,1.66-.24,3.3-.38,4.95,0,.58-.1,1.16-.14,1.74Z"/><path class="cls-19" d="M108,341.4a8.51,8.51,0,0,1-4.37-1.06,2,2,0,0,1,0-3.46,1.72,1.72,0,0,1,1.92,0,8.09,8.09,0,0,0,5.08.88,4.05,4.05,0,0,0,3.28-1.9c.78-1.32.46-2.39-1-2.92a24.23,24.23,0,0,0-2.82-.71,30.26,30.26,0,0,1-3.67-.91c-2.18-.8-3-2.43-2.6-4.74a6.41,6.41,0,0,1,2.88-4.39,10.18,10.18,0,0,1,8.19-1.64,6.25,6.25,0,0,1,1.88.76,1.46,1.46,0,0,1,.64,2.11,1.73,1.73,0,0,1-2.28,1,7.25,7.25,0,0,0-4.11-.68,6,6,0,0,0-2.2.69,3.56,3.56,0,0,0-1.29,1.5,1.61,1.61,0,0,0,1,2.36,19.33,19.33,0,0,0,2.81.73c1.23.29,2.5.46,3.69.86,2.42.81,3.35,2.5,2.86,5a7,7,0,0,1-3.09,4.6A12,12,0,0,1,108,341.4Z"/><path class="cls-19" d="M170.36,334.17c-.91-.13-1.83-.2-2.72-.41a6.13,6.13,0,0,1-4.61-4.43c-1.72-5.49,1.22-13.5,8.88-15.2a8.47,8.47,0,0,1,7.12,1.12,1.89,1.89,0,0,1,.63,2.85,2,2,0,0,1-2.95.34c-1.25-1.24-2.79-1.16-4.38-.86a7.8,7.8,0,0,0-6.11,9.42,4.51,4.51,0,0,0,4.45,3.72,7.53,7.53,0,0,0,5.14-1.73,8.76,8.76,0,0,1,1.29-.93,1.51,1.51,0,0,1,1.88.29,1.41,1.41,0,0,1,.19,1.76,6.44,6.44,0,0,1-1.3,1.54A12.42,12.42,0,0,1,170.36,334.17Z"/><path class="cls-1" d="M122.73,181.1h1.56q26.73,0,53.46,0a4.78,4.78,0,0,1,2.72.79c8.05,5.2,16.15,10.33,24.18,15.55a3.47,3.47,0,0,0,4.28.05c8.08-5.25,16.21-10.42,24.3-15.64a4.41,4.41,0,0,1,2.59-.75c2.67,0,5.34,0,8.08,0a10.73,10.73,0,0,1-.38,4.5,18.49,18.49,0,0,1-18.13,14.33q-29.28,0-58.57,0c-8.52,0-17,0-25.56,0a18.52,18.52,0,0,1-18.07-14,15.28,15.28,0,0,1-.44-2.43C122.68,182.74,122.73,182,122.73,181.1Z"/><path class="cls-20" d="M184.08,164.15h60.61c.59,0,1.17,0,1.75,0a6,6,0,0,1,5.69,5.91,5.88,5.88,0,0,1-5.8,5.92c-3.56.09-7.11.06-10.66.06-11.79,0-23.57,0-35.35,0q-38.41,0-76.82,0a15.68,15.68,0,0,1-2.47-.15,5.93,5.93,0,0,1,.4-11.7,14.63,14.63,0,0,1,1.75-.07Z"/><path class="cls-21" d="M189.08,181.14h35.46c-5.79,4.08-11.75,7.84-17.73,11.66L189,181.39Z"/><path class="cls-1" d="M245.71,138.23h-123c0-.42-.09-.79-.08-1.16.07-2.87,0-5.76.29-8.6a30.34,30.34,0,0,1,7.47-16.2c5.45-6.43,12.35-10.77,20.14-13.79a60.68,60.68,0,0,1,19.9-4.16,263.44,263.44,0,0,1,29.34.13c12.41,1,23.77,4.94,33.4,13.09a34.79,34.79,0,0,1,11.18,16.26,27.39,27.39,0,0,1,1.33,8.33Zm-49.32-25.51c-2.76,1.17-5.19,2.16-7.58,3.23a3.12,3.12,0,0,0-1.8,3.49,3.3,3.3,0,0,0,2.72,2.69,3.15,3.15,0,0,0,3.4-1.73C194.23,118,195.22,115.5,196.39,112.72Zm14.43-11.66-.23-.22c-2.44,1-4.9,2-7.31,3.09a3.15,3.15,0,0,0-1.68,3.42,3.29,3.29,0,0,0,2.67,2.72,3.16,3.16,0,0,0,3.42-1.67C208.79,106,209.78,103.51,210.82,101.06Zm6.63,11.79c-2.6,1.11-5,2.07-7.42,3.17a3.26,3.26,0,0,0,1.38,6.12,3,3,0,0,0,3.16-1.9c1-2.22,1.9-4.47,2.84-6.71A3,3,0,0,0,217.45,112.85Zm-42.6.26-.17-.24c-2.39,1-4.8,2-7.18,3a3.14,3.14,0,0,0-1.84,3.6,3.33,3.33,0,0,0,2.77,2.62,3.15,3.15,0,0,0,3.42-1.93C172.89,117.86,173.86,115.48,174.85,113.11Zm-21.37,0-.2-.25c-2.44,1-4.89,2-7.3,3.11a3.09,3.09,0,0,0-1.67,3.54,3.27,3.27,0,0,0,2.62,2.59,3.18,3.18,0,0,0,3.5-1.78C151.49,118,152.46,115.53,153.48,113.13Zm14.74-12.43-2.32,1c-1.74.73-3.5,1.42-5.22,2.2a3.15,3.15,0,0,0-1.8,3.48,3.26,3.26,0,0,0,2.81,2.75,3.18,3.18,0,0,0,3.34-1.83C166.09,105.87,167.07,103.45,168.22,100.7Zm21.32,0c-2.65,1.11-5,2.06-7.28,3.06a3.18,3.18,0,0,0-2,3.63,3.27,3.27,0,0,0,2.71,2.68,3.24,3.24,0,0,0,3.51-2c.81-1.81,1.56-3.65,2.32-5.48C189,102.08,189.21,101.55,189.54,100.71Z"/><path class="cls-18" d="M94.19,272.25c.18-.71.39-1.39.52-2.09a5.9,5.9,0,0,1,2-3.43c.92-.84,1.67-1.89,2.53-2.81a18,18,0,0,1,4.54-3.88c.32,1,.61,1.92.89,2.83a2.58,2.58,0,0,0,.11.42c.82,1.35.5,2.73.28,4.18a10.4,10.4,0,0,1-4.29,6.66,4.41,4.41,0,0,1-5.54-.74A13.82,13.82,0,0,0,94.19,272.25Z"/><path class="cls-22" d="M282,247.53a2.76,2.76,0,0,0,.58-.16,4.5,4.5,0,0,0,.6-.66,6.16,6.16,0,0,1,0,1.18c-.5,2-.21,4.1-.68,6.05-.75,3.16-.87,6.41-1.72,9.57-.73,2.69-1.85,5.2-2.78,7.79a13.72,13.72,0,0,1-4.54,5.76,1.88,1.88,0,0,1-1.6.3,3.75,3.75,0,0,1-2.24-2.47c-.47-1.56-.55-3.23-1-4.8a3.61,3.61,0,0,1,.4-2.33c.17-.48.38-.95.54-1.44.43-1.38.36-2.88,1.62-4a6.69,6.69,0,0,0,1.34-2.81,4,4,0,0,1,1-1.73,8,8,0,0,0,1.13-1.82c.19-.33.29-.86.56-1a1.74,1.74,0,0,0,1.22-1.88c0-.12.13-.25.21-.38a4.78,4.78,0,0,0,1.22-.6,18,18,0,0,0,1.45-1.68l.24-.37.6-.53c.61-.52,1.23-1,1.82-1.57.07-.07,0-.29,0-.45Z"/><path class="cls-23" d="M313,221.36c0,.81-.06,1.62-.16,2.42a6.57,6.57,0,0,1-3.12,5.21c-.78.47-1.29,1.4-2,2a18.31,18.31,0,0,1,4.95-9.74Z"/><path class="cls-23" d="M299.5,240.78c-.68-.88-.42-1.95-.6-2.93.29-.78.07-1.77,1-2.49Z"/><path class="cls-17" d="M279.37,250.44a18,18,0,0,1-1.45,1.68,4.78,4.78,0,0,1-1.22.6c.36-.64.7-1.3,1.09-1.93S278.82,250.49,279.37,250.44Z"/><path class="cls-4" d="M282,247.52l-1.18.27h0c-.05-.79.6-1,1.17-1.51v1.24Z"/><path class="cls-17" d="M280.21,249.54l-.6.53Z"/><polygon class="cls-4" points="280.82 247.79 280.76 247.84 280.83 247.8 280.82 247.79"/><path class="cls-24" d="M178.09,270.51c.1-1,.14-1.55.2-2.11.27-2.31.51-4.63.82-6.94.35-2.64.76-5.28,1.14-7.92s.83-5.48,1.19-8.22c.23-1.73.37-3.48.55-5.27a11.35,11.35,0,0,1,3.88-.39,24.48,24.48,0,0,1,7.71,1.4,7,7,0,0,1,3.8,3.42,14.22,14.22,0,0,1,1,2,7.36,7.36,0,0,1-.13,5.68,28.68,28.68,0,0,1-2.07,4,36.06,36.06,0,0,1-8.88,9.55c-.66.5-1.5.77-2.1,1.31-1.41,1.24-3.2,1.77-4.74,2.77A10.79,10.79,0,0,1,178.09,270.51Z"/><path class="cls-1" d="M183.27,233.82l-.17.15c0-.09,0-.18.05-.27Z"/><path class="cls-25" d="M213.56,325.76c.14-1.71.27-3.29.41-4.95l4.09-.51c.87-.11,1.74-.25,2.61-.31,1.93-.14,2.92,1.17,2.28,3a2.81,2.81,0,0,1-2.31,2C218.34,325.29,216,325.49,213.56,325.76Z"/><path class="cls-2" d="M214.27,317.21l.28-3.69c.08-.12.13-.25.19-.26,2-.26,3.92-.6,5.89-.74,1.32-.09,2,.91,1.68,2.23a2.43,2.43,0,0,1-2.05,2c-1.83.22-3.66.39-5.49.58A2.3,2.3,0,0,1,214.27,317.21Z"/><path class="cls-25" d="M255.83,308.54c2-.22,3.79-.47,5.62-.6s2.52.78,2.47,2.47a3.4,3.4,0,0,1-2.58,3.31c-1.9.34-3.83.49-5.92.74C255.56,312.41,255.69,310.51,255.83,308.54Z"/><path class="cls-14" d="M154,328.74l-6.68.74,4-7.33Z"/><path class="cls-14" d="M239.69,312.3c.92,2.3,1.73,4.33,2.61,6.56l-3.17.4c-1.06.12-2.12.22-3.44.35C236.93,317.1,238.25,314.84,239.69,312.3Z"/><path class="cls-25" d="M196.39,112.72c-1.17,2.78-2.16,5.26-3.26,7.68a3.15,3.15,0,0,1-3.4,1.73,3.3,3.3,0,0,1-2.72-2.69,3.12,3.12,0,0,1,1.8-3.49C191.2,114.88,193.63,113.89,196.39,112.72Z"/><path class="cls-25" d="M210.82,101.06c-1,2.45-2,4.92-3.13,7.34a3.16,3.16,0,0,1-3.42,1.67,3.29,3.29,0,0,1-2.67-2.72,3.15,3.15,0,0,1,1.68-3.42c2.41-1.08,4.87-2.06,7.31-3.09Z"/><path class="cls-9" d="M217.45,112.85a3,3,0,0,1,0,.68c-.94,2.24-1.86,4.49-2.84,6.71a3,3,0,0,1-3.16,1.9A3.26,3.26,0,0,1,210,116C212.41,114.92,214.85,114,217.45,112.85Z"/><path class="cls-25" d="M174.85,113.11c-1,2.37-2,4.75-3,7.1a3.15,3.15,0,0,1-3.42,1.93,3.33,3.33,0,0,1-2.77-2.62,3.14,3.14,0,0,1,1.84-3.6c2.38-1.06,4.79-2,7.18-3Z"/><path class="cls-25" d="M153.48,113.13c-1,2.4-2,4.82-3,7.21a3.18,3.18,0,0,1-3.5,1.78,3.27,3.27,0,0,1-2.62-2.59A3.09,3.09,0,0,1,146,116c2.41-1.09,4.86-2.07,7.3-3.11Z"/><path class="cls-25" d="M168.22,100.7c-1.15,2.75-2.13,5.17-3.19,7.56a3.18,3.18,0,0,1-3.34,1.83,3.26,3.26,0,0,1-2.81-2.75,3.15,3.15,0,0,1,1.8-3.48c1.72-.78,3.48-1.47,5.22-2.2Z"/><path class="cls-25" d="M189.54,100.71c-.33.84-.53,1.37-.75,1.89-.76,1.83-1.51,3.67-2.32,5.48a3.24,3.24,0,0,1-3.51,2,3.27,3.27,0,0,1-2.71-2.68,3.18,3.18,0,0,1,2-3.63C184.57,102.77,186.89,101.82,189.54,100.71Z"/></g></g></svg>