<svg xmlns="http://www.w3.org/2000/svg" viewBox="0 0 178.87 131.13"><defs><style>.cls-1{fill:#c4b2a9;}.cls-2{fill:#f1e5d4;}.cls-3{fill:#fbfaf9;}.cls-4{fill:#faf9f8;}.cls-5{fill:#f9f8f7;}.cls-6{fill:#fefefe;}</style></defs><title>logoAsset 3</title><g id="Layer_2" data-name="Layer 2"><g id="Layer_1-2" data-name="Layer 1"><g id="Layer_2-2" data-name="Layer 2"><g id="Layer_1-2-2" data-name="Layer 1-2"><path class="cls-1" d="M6.94,55.78a4.08,4.08,0,0,1-.61.09L1,55.9H.19v54.83h0l-.16,0H0l0-55H6.11c.22,0,.44,0,.67,0h.16Z"/><path class="cls-2" d="M172,40.26V32.51c-15.66.54-31.19,1.88-46.69,3.53v0c-.18,1.19-.37,2.34-.56,3.51,7.41-.68,14.8-1.42,22.18-2s14.79-1.1,22.28-1.39v7.75h6.87V91.65H176c-2.28.11-4.52,0-6.8.18V100h-.05c-12.36.52-24.64,1.53-36.95,2.76v-2.71c11.61-1.18,23.18-2.1,34.83-2.67h0V89.14l6.79-.17h0V46.53h0l-6.79.16c0-2.63,0-5.19,0-7.77h0l-2.66.14q-10.12.52-20.19,1.41c-3.35.28-6.69.59-10,.92s-6.66.68-10,1l-.29,1.17h0l6.62-.64,6.59-.63,5.27-.49,2.63-.24,3.42-.29c1.16-.09,2.31-.19,3.47-.27l2.32-.17q4.65-.33,9.3-.57l2.61-.13h.05v7.76l3.46-.11,1.49,0h1.88v40h0l-.81,0-1.3,0-.81,0q-.81,0-1.62,0l-.81,0-.65,0-.81,0v8.23H166l-4.25.22c-9.88.56-19.71,1.4-29.61,2.38V95.51h-.05l-85.19,9.93c0,1.1,0,2.16,0,3.19h0c-4.73.58-14.4,1.39-22.21,2l-.64,0-4.4.29-.55,0-.92.05-.35,0-1,0-.37,0-.43,0-.71,0a20.49,20.49,0,0,1-2.28,0v-8h0l-6.8.17v-40L13,63.1h0V55.23c15.09-.74,30.08-2.12,45.09-3.78-.1-.27-.15-.45-.23-.62s-.17-.32-.27-.53C42.47,52,27.32,53.36,12,54.08h0v7.85l-6.83.18h0v42.41h0l6.85-.14v8.15h0c11.67-.53,23.22-1.52,34.79-2.65v2.65c-3.21.67-34.77,3-37,2.72h0v-8.11l-6.82.13H3V59.43h0l6.84-.15V51.46h0c15.64-.67,31.18-2.06,46.67-3.77l-1-3.24-.11-.18q-5,.54-9.9,1L41,45.73c-5.3.48-10.61.92-15.93,1.29-2.47.18-4.94.33-7.41.47s-4.94.26-7.41.37L7.06,48V55.1c0,.11,0,.22,0,.33s0,.22-.08.33H6.78a3.26,3.26,0,0,1-.45.09L1,55.9H.18v54.83H7.07v8.16c13.33-.45,26.55-1.51,39.83-2.81v15l85.27-9.93h0V106.31c9.14-.92,18.25-1.68,27.37-2.23l5-.28c2.48-.12,5-.23,7.47-.32h0c0-2.8,0-5.49,0-8.26h6.86v-55ZM57.14,119a3.38,3.38,0,0,1-1.49,2.22,5.7,5.7,0,0,1-2.36.88l-.42,0a5.15,5.15,0,0,1-.56,0q-.31,0-.63,0l-.26,0-.26-.06-.24-.07-.49-.19-.19-.1,0,0-.08,0a.5.5,0,0,1-.11-.1s0,0,0,0h0l-.1-.15a1,1,0,0,1,.35-1.32.81.81,0,0,1,.82-.06l.07,0,0,0a3.9,3.9,0,0,0,2.46.43,2,2,0,0,0,1.59-.93.88.88,0,0,0,0-1.11.28.28,0,0,0-.09-.1l-.08,0a1.05,1.05,0,0,0-.3-.15l-.6-.19-.12,0-.34-.08-.31-.08a13.46,13.46,0,0,1-1.77-.44A1.84,1.84,0,0,1,50.33,115a3.13,3.13,0,0,1,1.39-2.13c.15-.1.3-.2.45-.28a4.53,4.53,0,0,1,.54-.27l.29-.11.26-.08.2,0a4.2,4.2,0,0,1,.71-.11,4.9,4.9,0,0,1,1.52.11,3,3,0,0,1,.91.36l.09,0a.71.71,0,0,1,.22,1v0a.82.82,0,0,1-.66.51h-.12a1,1,0,0,1-.32-.06,2.34,2.34,0,0,0-.5-.19,4.21,4.21,0,0,0-.48-.12l-.3,0h-.3a3.25,3.25,0,0,0-.44,0l-.24,0a3.12,3.12,0,0,0-.79.29,1.85,1.85,0,0,0-.63.73.68.68,0,0,0-.07.2.77.77,0,0,0,.56.94,9.08,9.08,0,0,0,1.36.36c.6.14,1.21.22,1.79.41A1.91,1.91,0,0,1,57.14,119Zm10-4.56c-.12,1.53-.26,3.05-.39,4.58a3.88,3.88,0,0,1,0,.48,1.09,1.09,0,0,1-.75.86,1,1,0,0,1-.63,0l-.2-.09-.19-.14-.07-.09a4.88,4.88,0,0,1-.48-.54L60.92,115l0,0a2.15,2.15,0,0,0-.2.9c-.11,1.34-.21,2.68-.33,4a2.2,2.2,0,0,1-.12.62,1.06,1.06,0,0,1-.49.53l-.1,0a.89.89,0,0,1-.56,0c-.38-.1-.56-.4-.51-1l.48-5.49c0-.63.12-1.26.16-1.9a1,1,0,0,1,.4-.83.35.35,0,0,1,.13-.08.52.52,0,0,1,.13-.06,1.08,1.08,0,0,1,1.25.44l3.39,4.26c.15.2.32.39.59.72h0c.05-.5.09-.95.12-1.39s.07-.84.11-1.24c.06-.79.1-1.59.2-2.39a2,2,0,0,1,.34-.89.79.79,0,0,1,.85-.35.49.49,0,0,1,.16,0,.77.77,0,0,1,.28.19.83.83,0,0,1,.2.66C67.31,112.72,67.25,113.59,67.18,114.46Zm10.38,4a.9.9,0,0,1-.11.27,1,1,0,0,1-.39.35.31.31,0,0,1-.1.05.7.7,0,0,1-.54.12.32.32,0,0,1-.09,0l-.1,0A.71.71,0,0,1,76,119a.58.58,0,0,1-.1-.21c-.08-.16-.16-.32-.23-.49l-.23-.55-3.13.34-.3,0-.6.07h-.3a1,1,0,0,0-1.07.72,5.36,5.36,0,0,1-.34.62,1.13,1.13,0,0,1-.84.59.83.83,0,0,1-.22,0h-.1l-.07,0-.09,0a.63.63,0,0,1-.2-.13l-.08-.09a.42.42,0,0,1-.1-.2.63.63,0,0,1,0-.19.5.5,0,0,1,0-.21,2.3,2.3,0,0,1,.29-.64q2.1-3.75,4.23-7.5a2.76,2.76,0,0,1,.55-.72l.15-.12.12-.05.06,0h.11a.65.65,0,0,1,.39,0l.08,0a.38.38,0,0,1,.15.09l.07.06a.91.91,0,0,1,.2.32c1.06,2.34,2.09,4.69,3.15,7a0,0,0,0,1,0,0,.69.69,0,0,1,0,.1l0,.1a1.16,1.16,0,0,1,0,.37A.57.57,0,0,1,77.56,118.48ZM87,110.89,87,111a1.06,1.06,0,0,1-.2.17l-.1.06-.1,0a1,1,0,0,1-.34.06h-.16a1.24,1.24,0,0,1-.32-.12l-.15-.11a1.6,1.6,0,0,0-.63-.4,2.92,2.92,0,0,0-1.5,0l-.13,0c-.1,0-.21,0-.31.09h0l-.28.1-.29.14a4,4,0,0,0-.53.34,3.79,3.79,0,0,0-1.38,3.85,2.16,2.16,0,0,0,1.4,1.67,2.08,2.08,0,0,0,.75.14,3.62,3.62,0,0,0,1.39-.22,3.59,3.59,0,0,0,1.11-.62,3.92,3.92,0,0,1,.62-.45.71.71,0,0,1,.18-.08.74.74,0,0,1,.33,0,.34.34,0,0,1,.14.05.58.58,0,0,1,.26.18.67.67,0,0,1,.09.85,3.22,3.22,0,0,1-.63.75,5.94,5.94,0,0,1-1.73.9,5.84,5.84,0,0,1-1.91.32c-.26-.05-.53-.07-.79-.1h0a3.11,3.11,0,0,1-.44-.08h0l-.19,0a3,3,0,0,1-2-2.1,5.92,5.92,0,0,1,3.74-7.21,4.94,4.94,0,0,1,.55-.15,4.24,4.24,0,0,1,3.46.54l.15.1A.92.92,0,0,1,87,110.89Zm6.53,1.74c.79,1,1.57,2,2.39,2.91a1.16,1.16,0,0,1,.22.31.93.93,0,0,1-.48,1.21l0,0-.06,0a.83.83,0,0,1-1.14-.29L92.27,114c-.15-.19-.3-.37-.49-.58l0,0c-.42.47-.85.89-1.22,1.37a1.36,1.36,0,0,0-.22.65c-.06.51-.08,1-.14,1.48a.92.92,0,0,1-.44.7.27.27,0,0,1-.1.06l-.14.06c-.65.23-1.1,0-1.06-.74.1-1.56.23-3.11.36-4.66.08-1,.16-1.93.25-2.9a1.08,1.08,0,0,1,.48-1l.14-.08.2-.07c.61-.15,1,.12,1,.74,0,.8-.12,1.6-.19,2.4,0,.28-.06.56-.06.84l.12.06c.66-.67,1.31-1.35,2-2l2-2.09a3.88,3.88,0,0,1,.42-.39l.1-.07a.33.33,0,0,1,.13-.07.76.76,0,0,1,.86.17l0,.06a.71.71,0,0,1,0,1l-.29.32c-.15.16-.3.33-.46.49l-.71.76c-.48.52-1,1-1.49,1.56A4,4,0,0,0,93.56,112.63Zm16.42,0a1.24,1.24,0,0,1,0,.18,2.07,2.07,0,0,1,0,.22.36.36,0,0,0,0,.1l0,.1a3.2,3.2,0,0,1-.93,1.65,1.74,1.74,0,0,1-.37.3l-.3.19a2.61,2.61,0,0,1-.67.27l-.36.07-.3.05-.3,0c-.44.07-.88.14-1.33.19-1,.12-1.94.21-2.91.31l-.15,0h0l-.18,0a.43.43,0,0,1-.31-.14.89.89,0,0,1-.15-.69c.11-1.53.24-3,.36-4.58.08-.92.16-1.88.24-2.74a2.2,2.2,0,0,1,.13-.67.73.73,0,0,1,.35-.38.4.4,0,0,1,.13-.07,1.38,1.38,0,0,1,.26-.07l.27,0c1.23-.15,2.44-.27,3.66-.4a3.92,3.92,0,0,1,1,0,1.78,1.78,0,0,1,.89.44l.1.1a1,1,0,0,1,.13.16l.12.19a2.39,2.39,0,0,1-.18,2.66c-.1.16-.22.31-.35.49h0a3.24,3.24,0,0,1,.8.58,1,1,0,0,1,.19.22,1.54,1.54,0,0,1,.24.48.27.27,0,0,1,0,.12,2.07,2.07,0,0,1,0,.22A2.17,2.17,0,0,1,110,112.66Zm9.77,1.7a.59.59,0,0,1-.22.12.69.69,0,0,1-.76-.25h0l-.05-.07s0,0,0,0a1,1,0,0,1,0-.1,0,0,0,0,1,0,0,1.12,1.12,0,0,1,0-.13c-.06-.12-.11-.25-.16-.38h0c-.08-.17-.16-.32-.27-.52l-5,.56-.67,1.21a1.09,1.09,0,0,1-1,.63.69.69,0,0,1-.32,0l0,0a.3.3,0,0,1-.11-.06.28.28,0,0,1-.09-.07.53.53,0,0,1-.16-.2.69.69,0,0,1,0-.53,1.51,1.51,0,0,1,.2-.45c1.47-2.61,2.93-5.21,4.41-7.81a1.63,1.63,0,0,1,.23-.35.9.9,0,0,1,.47-.37l.15,0a.86.86,0,0,1,.42,0h0a.88.88,0,0,1,.36.21.8.8,0,0,1,.15.21.61.61,0,0,1,.07.14h0c.18.45.37.89.56,1.33.57,1.32,1.18,2.63,1.77,4l.41.89c.11.24.21.48.31.72a1,1,0,0,1,.09.24.36.36,0,0,1,0,.11.41.41,0,0,1,0,.11A1,1,0,0,1,119.75,114.36Zm9.49-1.61a1,1,0,0,1-.11.23h0a.91.91,0,0,1-.4.35l-.09.06-.19.07-.18,0a.79.79,0,0,1-.53-.18,1.07,1.07,0,0,1-.14-.16,0,0,0,0,0,0,0l0,0,0-.06-.15-.21c-.38-.55-.75-1.08-1.11-1.64,0-.06-.08-.13-.13-.19a1,1,0,0,0-.13-.22l-.17-.15-.11-.06a.85.85,0,0,0-.61,0l-.45.06-.62.08-.22,0-.23,0c-.07.77-.14,1.51-.19,2.26a1.16,1.16,0,0,1-.66,1.08.93.93,0,0,1-.86,0l-.1-.09-.09-.13a1,1,0,0,1-.11-.55c.11-1.46.23-2.91.35-4.36.08-1,.17-2,.25-3s.34-1.14,1.22-1.24c1-.12,2.1-.26,3.15-.35a4.25,4.25,0,0,1,1.33.06,2,2,0,0,1,.34.12,1.48,1.48,0,0,1,.44.25l.13.1.12.11a1.43,1.43,0,0,1,.2.23l.1.14a0,0,0,0,1,0,0,1.38,1.38,0,0,1,.14.27,1.35,1.35,0,0,1,.11.32c0,.11,0,.23,0,.34a3.32,3.32,0,0,1-1.42,3.26l-.45.34a.77.77,0,0,0-.06.14c.48.59,1,1.16,1.45,1.75a1,1,0,0,1,.16.24,1.72,1.72,0,0,1,.07.21.34.34,0,0,1,0,.1s0,.08,0,.12A1.26,1.26,0,0,1,129.24,112.75Z"/><path class="cls-2" d="M62.3,51.28l.09.09a.79.79,0,0,0,.15.12Zm0,0,.09.09a.79.79,0,0,0,.15.12Zm0,0,.09.09a.79.79,0,0,0,.15.12Zm0,0,.09.09a.79.79,0,0,0,.15.12Zm0,0,.09.09a.79.79,0,0,0,.15.12Zm0,0,.09.09a.79.79,0,0,0,.15.12Zm0,0,.09.09a.79.79,0,0,0,.15.12Zm0,0,.09.09a.79.79,0,0,0,.15.12Zm0,0,.09.09a.79.79,0,0,0,.15.12Zm0,0,.09.09a.79.79,0,0,0,.15.12Zm0,0,.09.09a.79.79,0,0,0,.15.12Zm0,0,.09.09a.79.79,0,0,0,.15.12Zm0,0,.09.09a.79.79,0,0,0,.15.12Zm0,0,.09.09a.79.79,0,0,0,.15.12Zm62.19-12.84a1.86,1.86,0,0,0-.06-.34l-.06-.26a4.07,4.07,0,0,0-.26-.74,5.1,5.1,0,0,0-4.91-3.2c-2.52,0-5,0-7.57,0H59.21a5,5,0,0,0-2.72.74l-.33.21a3.07,3.07,0,0,0-.36.27l-.18.16-.19.18a4.65,4.65,0,0,0-.61.72l-.06.09-.12.17s0,.08-.07.13a1.82,1.82,0,0,0-.16.31,4.84,4.84,0,0,0-.21.47,2.65,2.65,0,0,0-.12.37c0,.12-.07.26-.1.38s0,.15,0,.22a.13.13,0,0,1,0,.06l0,.24a2.45,2.45,0,0,0,0,.27,4.7,4.7,0,0,0,0,.65c0,.22,0,.43.08.64s0,.22.07.32,0,.17.07.25.1.3.16.45a4.92,4.92,0,0,0,.43.82,5.25,5.25,0,0,0,1.72,1.69l.56.35v.56a11.2,11.2,0,0,0,.1,1.64,10.65,10.65,0,0,0,.21,1.1A11.31,11.31,0,0,0,57.79,49c.11.26.22.51.35.76l.19.37.21.35a2.26,2.26,0,0,0,.16.26l.17.26.34.5c.09.1.16.2.25.31s.32.41.49.6a10.88,10.88,0,0,0,4.17,3l.52.18c.15.06.31.1.46.15l.42.11a13.56,13.56,0,0,0,3.12.35H109a9.58,9.58,0,0,0,1.69-.09,13.9,13.9,0,0,0,2.79-.74A11.64,11.64,0,0,0,115.82,54a6.7,6.7,0,0,0,.6-.45c.22-.18.43-.37.64-.57a12.14,12.14,0,0,0,3-4.76,3,3,0,0,0,.11-.32c.06-.22.13-.44.18-.66s0-.22.07-.33c.07-.3.11-.6.15-.9s0-.3,0-.46a11.94,11.94,0,0,0,0-1.2c.15-.07.3-.12.44-.17l.39-.18a5.23,5.23,0,0,0,3-4A5.16,5.16,0,0,0,124.49,38.44ZM63.74,52.36l-.3-.19L63.16,52s0,0,0,0h0l-.56-.44h0l-.24-.21-.24-.23c-.11-.1-.22-.22-.32-.33l-.35-.39-.16-.21-.16-.22a8.87,8.87,0,0,1-1.18-2.29,5.94,5.94,0,0,1-.23-.75,7.88,7.88,0,0,1-.21-1.18V44.54l.74,0h25.9a2.26,2.26,0,0,1,1.31.38c3.9,2.52,7.84,5,11.72,7.53a1.67,1.67,0,0,0,2.07,0c3.91-2.55,7.85-5.05,11.77-7.58a2.15,2.15,0,0,1,1.25-.36h3.92v0a5.27,5.27,0,0,1-.19,2.16,9,9,0,0,1-8.78,6.94H68l-.37,0a5,5,0,0,1-.56-.06,2.25,2.25,0,0,1-.36-.06c-.23,0-.46-.09-.68-.15l-.33-.1a8.07,8.07,0,0,1-.94-.33,10.2,10.2,0,0,1-.93-.48Zm27.8-7.68,0-.12h17.17c-2.8,2-5.67,3.8-8.58,5.65Zm30.52-4.9a2.84,2.84,0,0,1-2.75,2.29c-1.72,0-3.44,0-5.16,0H59.82a8.05,8.05,0,0,1-1.2-.07,2.83,2.83,0,0,1-2.21-2.1.8.8,0,0,1,0-.21,2.6,2.6,0,0,1,0-1,1.14,1.14,0,0,1,.06-.25,2.87,2.87,0,0,1,2.4-2.07,6,6,0,0,1,.85,0h59.7a2.92,2.92,0,0,1,2.73,2.57,1.27,1.27,0,0,1,0,.28A2.88,2.88,0,0,1,122.06,39.78ZM62.3,51.28l.09.09a.79.79,0,0,0,.15.12Zm0,0,.09.09a.79.79,0,0,0,.15.12Zm0,0,.09.09a.79.79,0,0,0,.15.12Zm0,0,.09.09a.79.79,0,0,0,.15.12Zm0,0,.09.09a.79.79,0,0,0,.15.12Zm0,0,.09.09a.79.79,0,0,0,.15.12Zm0,0,.09.09a.79.79,0,0,0,.15.12Zm0,0,.09.09a.79.79,0,0,0,.15.12Zm0,0,.09.09a.79.79,0,0,0,.15.12Zm0,0,.09.09a.79.79,0,0,0,.15.12Zm0,0,.09.09a.79.79,0,0,0,.15.12Zm0,0,.09.09a.79.79,0,0,0,.15.12Zm0,0,.09.09a.79.79,0,0,0,.15.12Z"/><path class="cls-2" d="M121.11,17.62a16.84,16.84,0,0,0-1.38-4A16.31,16.31,0,0,0,118,10.75c-.32-.42-.65-.82-1-1.21s-.69-.77-1-1.14a22.81,22.81,0,0,0-3.53-3c-.32-.22-.64-.44-1-.64-.49-.32-1-.61-1.5-.88h0c-.51-.28-1-.53-1.55-.77-.31-.15-.63-.28-.94-.41s-.63-.26-1-.39c-.64-.25-1.28-.48-1.93-.69a33.83,33.83,0,0,0-4-1c-.32-.07-.64-.12-1-.17-.9-.15-1.81-.26-2.72-.33L96,.05c-.66,0-1.33-.06-2,0H84.73c-.46,0-.92,0-1.39,0s-.88,0-1.32.07-.68.05-1,.09c-.5.05-1,.1-1.48.18L79,.43C78.5.51,78,.6,77.5.7s-1.12.23-1.67.36-1.1.29-1.64.46h0l-.61.19-.57.2q-.52.18-1,.39a29.73,29.73,0,0,0-6.86,3.8,21.94,21.94,0,0,0-6.37,7.47,13.49,13.49,0,0,0-1,2.69,0,0,0,0,0,0,0c0,.18-.1.36-.14.54a12.67,12.67,0,0,0-.31,1.63c-.06.37-.1.74-.13,1.11A44,44,0,0,0,57,25.19a1,1,0,0,0,.31.7.23.23,0,0,0,.07.07l.1.08.14.08a.6.6,0,0,0,.19.06l.09,0H58a6,6,0,0,0,.85,0H120a1.53,1.53,0,0,0,1.18-.41l.09-.14a1.42,1.42,0,0,0,.08-.18c0-.06,0-.14.06-.22a2.86,2.86,0,0,0,0-.53V21.29A16.67,16.67,0,0,0,121.11,17.62ZM119,23.77H59.45s0-.07,0-.11a.66.66,0,0,0,0-.14v0a2.44,2.44,0,0,1,0-.27c0-.87,0-1.74,0-2.61,0-.34,0-.69,0-1,0-.18,0-.35,0-.52a14.79,14.79,0,0,1,3.62-7.85c.21-.25.42-.48.63-.71h0l.66-.67.68-.65c.23-.21.47-.41.71-.61l.42-.33.48-.37c.44-.32.88-.63,1.34-.92l.79-.48c.21-.13.43-.25.64-.36.65-.36,1.32-.69,2-1h0c.23-.1.46-.21.69-.3l.71-.28c.48-.19,1-.36,1.44-.53s1-.31,1.48-.45h0L77,3.24h0l.61-.13.6-.12a28.17,28.17,0,0,1,4.29-.48,124.75,124.75,0,0,1,14.21.06l.58.05A27.37,27.37,0,0,1,113,8.91a16.85,16.85,0,0,1,5.42,7.88,13.12,13.12,0,0,1,.64,4Z"/><path class="cls-2" d="M71.27,77v0l-.18-.24,0-.06c-.24.34-.47.64-.67,1a91.72,91.72,0,0,1-5.74,7.71A4.72,4.72,0,0,1,63,86.48h0a1.56,1.56,0,0,1-.48-1.27c0-1.3.06-2.59.18-3.88s.42-2.37.49-3.56A24.7,24.7,0,0,1,63.73,75a.66.66,0,0,1,.63-.58,7.24,7.24,0,0,0,.88-.18l.29-.07a2.54,2.54,0,0,1,.16-.28.12.12,0,0,1,0,0,.27.27,0,0,1,.28-.07h.09a13.16,13.16,0,0,1,1.65-.16h.51a.93.93,0,0,0,.24,0,1.69,1.69,0,0,0,.24-.08,1.14,1.14,0,0,0,.23-.15l.11-.11a4,4,0,0,0-.75-.22h0a6.35,6.35,0,0,0-.76-.13,18.19,18.19,0,0,0-2.46-.07h-.86c0-.53.07-1.07.16-1.59A24.34,24.34,0,0,0,65,68a2.52,2.52,0,0,0-.43-1.88l-.1-.1a1.37,1.37,0,0,0-.21-.15,1.19,1.19,0,0,0-.25-.13,2.6,2.6,0,0,0-.63-.19h-.13l-.11,0H63a.48.48,0,0,0-.12,0,2.14,2.14,0,0,0-.44,0,1.62,1.62,0,0,0-1,.47,1.69,1.69,0,0,0-.27.36,1,1,0,0,0-.11.21,2.48,2.48,0,0,0-.2.77c-.13.94-.16,1.9-.28,2.87s-.36,2.09-.53,3.13a.86.86,0,0,1-.07.21.31.31,0,0,1-.1.15l-.07.06a1,1,0,0,1-.31.11l-.35.1-.8.23-1.14.38-.17.07a0,0,0,0,0,0,0l-.15.07a7.89,7.89,0,0,1-1,.5l-.06,0h0l-.09,0c-.22.12-.27.29-.2.57,0,0,0,0,0,0l.06,0,.13.06.18-.41h0l.13,0a.58.58,0,0,0,.17.06,2,2,0,0,0,.35.09l.22,0,.44,0,.43-.06a3.25,3.25,0,0,0,.42-.11l.4-.14a5.16,5.16,0,0,1,1.34-.33l-.44,2.07c-.6.13-1.15.24-1.69.39l-.71.22-1.23.42-.91.35c-.9.36-1.78.77-2.65,1.22-.56.28-.62.25-1-.16-.59-.57-1.18-1.16-1.79-1.7a1,1,0,0,1-.41-.49.86.86,0,0,1-.07-.21,1.33,1.33,0,0,1,0-.28.25.25,0,0,1,0-.08v-.06s0,0,0-.06h0c-.39.12-.54-.06-.54-.39a.06.06,0,0,1,0,0s0,0,0,0a.16.16,0,0,1,0-.1s0-.06,0-.09a.53.53,0,0,1,.11-.24c.37-.48.77-.93,1.15-1.42a2.29,2.29,0,0,1,1.34-.71.91.91,0,0,1,.23,0,.78.78,0,0,1,.73.6h0a1.09,1.09,0,0,1,0,.18A12.37,12.37,0,0,1,51.7,76v0A1.14,1.14,0,0,0,53.24,76a4.7,4.7,0,0,1,.44-.34,2,2,0,0,0,.66-1,.94.94,0,0,0,0-.16,1.84,1.84,0,0,0,0-.41,1.93,1.93,0,0,0,0-.24s0-.07,0-.1a2,2,0,0,0-2-1.37,9.32,9.32,0,0,0-6.15,2.12,5.37,5.37,0,0,0-1,1.14,1.53,1.53,0,0,0-.17.27,1.42,1.42,0,0,0-.1.29s0,.07,0,.11a.28.28,0,0,0,0,.09.53.53,0,0,0,0,.13,1,1,0,0,0,0,.17,1.52,1.52,0,0,0,0,.21,3.54,3.54,0,0,0,.93,1.72l.63.67c-.33.33-.63.68-.93,1s-.37.47-.55.7a31,31,0,0,1-2.35,2.92c-.22.23-.46.45-.7.66s-.25.21-.38.31,0,0,0,0c-.1-.48-.15-.87-.26-1.25a9.85,9.85,0,0,1,0-3.71c0-.15,0-.3.07-.45.05-.41.12-.82.17-1.22a5.76,5.76,0,0,0,0-.83c0-.2,0-.47-.07-.59a1.64,1.64,0,0,0-1.59-.64,2.48,2.48,0,0,0-.88.38l-.18.15-.15.15c-.06.06-.11.13-.16.19a1.7,1.7,0,0,0-.15.22,3.69,3.69,0,0,0-.33.62,2.39,2.39,0,0,0-.13.21l0,0c-.48.73-1,1.46-1.48,2.16l0,0-.14.19q-1.4,1.83-2.77,3.68a4.24,4.24,0,0,1-.46.49l0,0-.15-.07a9.54,9.54,0,0,1,0-1.31,9.22,9.22,0,0,1,1-3.31c.06-.15.13-.3.18-.45a11,11,0,0,1,1.28-2.54l.24-.34.29-.37a3.68,3.68,0,0,1,.31-.38,1.52,1.52,0,0,1,.26-.25,1.62,1.62,0,0,1,1.33-.29l.69.14a17.12,17.12,0,0,0,1.75.24,1.39,1.39,0,0,0,.87-.17.86.86,0,0,0,.2-.13.27.27,0,0,0,.08-.07c-.06-.1-.09-.2-.14-.2A16.07,16.07,0,0,0,37.32,74a3.68,3.68,0,0,0-.58-.05h-.27a4.21,4.21,0,0,0-1.95.61A9,9,0,0,0,33,76.06a15.74,15.74,0,0,0-3,5.55,9.37,9.37,0,0,0-.44,3.49,5.29,5.29,0,0,0,.24,1.17,1,1,0,0,0,.37.53l.07,0a1.26,1.26,0,0,0,.42.16A5.34,5.34,0,0,0,33.35,87a4,4,0,0,0,2.19-1.19c.74-1,1.49-1.89,2.23-2.83.12-.16.24-.33.43-.57a.31.31,0,0,0,0,.08c.05.24.09.4.11.56a10.86,10.86,0,0,0,.3,1.59,3.3,3.3,0,0,0,.87,1.59l0,0,.11.09a2.06,2.06,0,0,0,.67.29,3.17,3.17,0,0,0,2.32-.24A5,5,0,0,0,43.94,85c.57-.73,1.07-1.52,1.62-2.28s1-1.32,1.49-2c.15-.18.31-.34.48-.53l.06,0a1.68,1.68,0,0,0,.21.18l.2.16.16.13a3.55,3.55,0,0,1,.9,1.07c-.08.11-.13.2-.21.24A9.87,9.87,0,0,0,46.61,84c-.42.48-.87,1-1.24,1.45s-.71.93-1.06,1.39a4.19,4.19,0,0,0-.57,2.07,2.64,2.64,0,0,0,.89,1.93l0,0a1.44,1.44,0,0,0,.25.18,1.17,1.17,0,0,0,.26.1,6,6,0,0,0,3.2-.12,5.58,5.58,0,0,0,2.94-1.66.84.84,0,0,1,.52-.3c.41,0,.57-.32.73-.63a6.12,6.12,0,0,1,.53-.7c.07-.09.19-.16.24-.26a24.6,24.6,0,0,1,.77-2.53,4.7,4.7,0,0,0-1-3.1.18.18,0,0,1,0-.07c-.12-.13-.23-.28-.38-.47.65-.41,1.23-.8,1.84-1.13s1.15-.49,1.67-.74,1-.57,1.55-.8,1-.31,1.45-.49a.17.17,0,0,1,0,.07c-.08.63-.17,1.17-.22,1.71-.07.7-.07,1.41-.18,2.11a14.07,14.07,0,0,0,.35,6.22,1.81,1.81,0,0,0,.55.73l.15.1a2.69,2.69,0,0,0,.29.16,1.68,1.68,0,0,0,.32.09,7,7,0,0,0,1.94-.25,1.57,1.57,0,0,0,.93-.45c.52-.5,1-1.06,1.54-1.51a8,8,0,0,0,1.57-1.86c.12-.19.19-.42.32-.61.55-.75,1.19-1.47,1.68-2.26a45.52,45.52,0,0,0,3.78-6.06l.06-.13ZM48.38,89.79l-.14,0h-.07l-.21,0a2.68,2.68,0,0,1-.49,0,2.13,2.13,0,0,1-1.36-.67,5.19,5.19,0,0,0-.49-.55,2.5,2.5,0,0,0,.07-.26,6.43,6.43,0,0,0,.17-.76,2.87,2.87,0,0,1,1-1.66c.44-.39.8-.91,1.22-1.36a9,9,0,0,1,2.2-1.88h0c.15.49.29.93.43,1.36a1.6,1.6,0,0,0,0,.21,2.76,2.76,0,0,1,.14,2,5,5,0,0,1-2.08,3.23l-.19.11Z"/><path class="cls-2" d="M167.25,62.46c-1.15-.48-1.19-.53-2.07-.05s-1.54,1-2.3,1.49c-.18.11-.29.35-.57.32,0-.68,0-1.32.09-1.94a.09.09,0,0,1,0-.05c0-.1,0-.18,0-.26a1.93,1.93,0,0,0,0-.23c0-.4-.16-.49-.82-.71l-.33-.11a2.29,2.29,0,0,0-2,.3,1.29,1.29,0,0,0-.67.81l0,.12a.29.29,0,0,0,0,.13.57.57,0,0,0,0,.13c0,.12,0,.25,0,.37a.09.09,0,0,0,0,0c0,.39-.07.78-.11,1.16a0,0,0,0,0,0,0c0,.4-.08.79-.13,1.19,0,.24-.06.49-.1.74v0a1.52,1.52,0,0,1-.45.76c-.77.79-1.56,1.53-2.35,2.34s-1.57,1.62-2.36,2.42c-.25.23-.49.42-.73.64A12.75,12.75,0,0,1,149,74.29h-.07a.86.86,0,0,1-1.09-.52,2.06,2.06,0,0,1-.1-.89.09.09,0,0,1,0,0,2.2,2.2,0,0,1,0-.36c0-.23.08-.45.11-.68a1.1,1.1,0,0,0,0-.18.34.34,0,0,0,0-.1s0-.05,0-.08a.91.91,0,0,1,0-.17s0-.07,0-.11a1.6,1.6,0,0,1,.05-.21,1.71,1.71,0,0,1,1-1,5,5,0,0,0,2.14-1.57,1.38,1.38,0,0,1,.31-.28,4.14,4.14,0,0,0,1.21-1.45,2.63,2.63,0,0,1,.35-.52,1.57,1.57,0,0,0,.35-.65,1.1,1.1,0,0,0,.06-.26.44.44,0,0,0,0-.15,2.71,2.71,0,0,0-.73-2.37,3.58,3.58,0,0,0-2.63-.79,2.71,2.71,0,0,0-2.25,1.28c-.14.22-.35.39-.48.61a15,15,0,0,0-1.26,2.1c-.52,1.21-.91,2.47-1.37,3.7a1.35,1.35,0,0,1-.36.58,4.62,4.62,0,0,1-1.1.63,3.87,3.87,0,0,0-1.3.82,10.32,10.32,0,0,1-.91.67,4,4,0,0,1,0-.49.06.06,0,0,0,0,0h0l.36-1.71c0-.11.05-.21.07-.31l.24-1.14c0-.1.05-.21.07-.31s0-.18.05-.25a.49.49,0,0,0,0-.12v-.06a.49.49,0,0,0,0-.12c0-.26-.2-.42-.57-.61a5.23,5.23,0,0,1-.63-.41,3.07,3.07,0,0,0-1.69.24.65.65,0,0,0-.32.19,2.51,2.51,0,0,0-.4.6.41.41,0,0,0,0,.21,2.86,2.86,0,0,1-.89,2c-.14.16-.3.32-.45.48l-.92.89a26.33,26.33,0,0,1-2.79,2.27l-.72.46c-.22-1.55,1.23-4.41,3.05-6.41a10.51,10.51,0,0,1,.89-.88,6.76,6.76,0,0,1,1.45-1c.81.65,1.68,1.24,2.78.49l0,0a.9.9,0,0,0-.16-1.14,4.64,4.64,0,0,0-1.65-1.15,4.27,4.27,0,0,0-2.35,0,7,7,0,0,0-2.63,1.46l-.58.52c-.35.34-.69.7-1,1.06-.18.2-.34.4-.5.6a17.75,17.75,0,0,0-1.8,2.66,7.26,7.26,0,0,0-.91,2.87c-.22,1.87.24,2.42,2,2.91a4.25,4.25,0,0,0,3.63-.88c.33-.26.66-.52,1-.8l0,0c.3-.27.6-.54.88-.82l-.26-.11.08-.07.85-.77c0,.8-.1,1.44-.1,2.07a.91.91,0,0,1-.21.6s0,0,0,0a.61.61,0,0,1-.17.15c-.84.7-1.68,1.4-2.49,2.13a.46.46,0,0,1-.07.07l-.36.35c-.12.12-.24.23-.35.36s-.19.19-.27.29-.23.25-.33.38l-.07.08a1.88,1.88,0,0,0-.18.24c-.26.32-.47.67-.72,1l-.06.07c-.17.18-.34.36-.5.55s-.35.43-.52.65l-.07.08c-.43.66-.75,1.38-1.12,2.07-.09.16-.18.33-.28.49A8.29,8.29,0,0,0,128,88.2a3.27,3.27,0,0,1-.18.89,2.7,2.7,0,0,0,1.54,3.54,6.63,6.63,0,0,0,1.31.27,8.24,8.24,0,0,0,2.56-.39,2.2,2.2,0,0,0,.63-.26,3.81,3.81,0,0,1,.82-.39,2.4,2.4,0,0,0,.85-.41,2.27,2.27,0,0,0,.32-.3,3.18,3.18,0,0,0,.26-.35c.42-.59.79-1.22,1.16-1.84a6.06,6.06,0,0,0,1-1.85,2.36,2.36,0,0,1,.35-.59,1.72,1.72,0,0,0,.21-.43c.41-1.59.85-3.21,1.19-4.84a34.16,34.16,0,0,0,.62-6,1.66,1.66,0,0,1,.29-.91l.27-.26.24-.23a4.84,4.84,0,0,1,.46-.33l.06,0c.38-.32.79-.59,1.25-.92l-.48-.12.06,0,1.61-1,0,0h0l.14-.06,0,.18v0h0v.42l0,0,.12.13h0c.13-.37,0-.84.46-1.18l0,0-.2,2.56v.06l.42.92v0l.21.28a.16.16,0,0,0,0,.07c.06.1.12.2.17.3a.42.42,0,0,0,.1.17.7.7,0,0,0,.67.31c.74,0,1.46.06,2.19.06a3.86,3.86,0,0,0,2.39-.73,39.2,39.2,0,0,0,6.13-6c.13-.13.26-.24.4-.36-.06.86-.12,1.58-.16,2.31s-.08,1.65-.08,2.47c0,.38.22.67.48.67a4.8,4.8,0,0,0,2.85-.61,1,1,0,0,0,.37-.48s0,0,0,0,.07-.28.11-.41.05-.24.07-.36a6,6,0,0,0,0-1.12c0-.87.08-1.74.14-2.61a.11.11,0,0,1,0-.05.09.09,0,0,1,0,0,1.45,1.45,0,0,1,.11-.29A15.37,15.37,0,0,1,164,64.75a3.22,3.22,0,0,1,.75-.63,8.31,8.31,0,0,1,2.09-1.19c.17,0,.31-.29.49-.46Zm-17,3.11A9.2,9.2,0,0,1,151.42,64h0l.17.05v.29a4,4,0,0,1,0,.7l0,.19a3.23,3.23,0,0,1-.91,2,3.29,3.29,0,0,1-.59.47,1.51,1.51,0,0,0-.38.33c-.08.09-.15.18-.23.26l-.12.14-.12.13-.12.11h0A8.77,8.77,0,0,1,150.21,65.57ZM137.16,76.89c-.24,1-.1,2-.33,2.93,0,.19-.09.38-.12.57-.21,1.16-.32,2.33-.57,3.49,0,.19-.09.38-.14.57-.36,1.31-.9,2.52-1.35,3.78a6.66,6.66,0,0,1-2.18,2.8.91.91,0,0,1-.78.15,2.08,2.08,0,0,1-.38-.22,1.44,1.44,0,0,1-.43-.42,1.82,1.82,0,0,1-.27-.56,3.8,3.8,0,0,1-.15-.58c-.09-.39-.14-.79-.22-1.18a5.78,5.78,0,0,0-.12-.57,1.75,1.75,0,0,1,.2-1.12c.08-.22.18-.46.26-.7.21-.66.17-1.39.78-1.94a3.18,3.18,0,0,0,.65-1.36,2,2,0,0,1,.49-.84,3.59,3.59,0,0,0,.54-.88c.1-.18.14-.43.27-.48a.86.86,0,0,0,.6-.91c0-.06.06-.12.1-.19s0,0,0,0c.17-.3.33-.61.52-.91h0a.18.18,0,0,1,.08-.09.27.27,0,0,1,.16-.08h.07a1.61,1.61,0,0,1,.22,0l.17,0h.06l.11-.17.29-.26.88-.76s0-.14,0-.22h0l-.56.13v0a.17.17,0,0,1,0-.07s0,0,0-.06a.14.14,0,0,1,0-.06h0l0,0a.39.39,0,0,1,.08-.1l.06,0s0,0,0,0l.1-.07.19-.15h0v.6a1.28,1.28,0,0,0,.28-.07,2.89,2.89,0,0,0,.29-.32A2.71,2.71,0,0,1,137.16,76.89Z"/><path class="cls-2" d="M100.26,77.52a6.4,6.4,0,0,0-1.74-3.79A9,9,0,0,0,94,71.19L92,70.76a.36.36,0,0,1,0-.09.08.08,0,0,1,0,0l0,0h0c.88-.7,1.79-1.35,2.64-2.09a14.15,14.15,0,0,0,1.56-1.43l.46-.51c.2-.24.39-.48.57-.73s.46-.65.67-1c.08-.12.14-.24.21-.36l.16-.33a5.89,5.89,0,0,0,.51-2.75,3.72,3.72,0,0,0-1.54-2.68,5.76,5.76,0,0,0-2.9-1.29c-.27,0-.5-.14-.75-.18a22.71,22.71,0,0,0-2.59-.36,12.37,12.37,0,0,0-4,.66,11.07,11.07,0,0,0-1.13.45l-.12.05q-1,.45-2,1c-.53.3-1.06.63-1.57,1s-1,.71-1.51,1.09-.72.7-1.1,1h0a7.41,7.41,0,0,0-.84.74,8.67,8.67,0,0,0-1.89,2.74l.38.57v0a1.5,1.5,0,0,1,.19-.25.12.12,0,0,1,.07-.07l0,0h.05a.38.38,0,0,1,.19.06l-.09.6h.17l.07,0a.26.26,0,0,0,.13-.06.56.56,0,0,0,.23-.25,9.13,9.13,0,0,0,.92-1.4,5,5,0,0,1,1-1.5,4.5,4.5,0,0,1,.52-.46l.3-.21h0c.47-.32.95-.64,1.43-.94s1-.6,1.48-.88c.24-.14.48-.28.73-.41a17,17,0,0,1,2.18-1q.66-.21,1.32-.39l.68-.18.65-.15h0a4.55,4.55,0,0,1,3.85.49c.39.3.74.64,1.14.94a1.73,1.73,0,0,1,.63,1.63,3,3,0,0,1,0,.42c0,.11,0,.23,0,.34a7.34,7.34,0,0,1-.17.84l-.12.38c0,.12-.08.25-.13.37a8.35,8.35,0,0,1-.85,1.33c-.37.49-.84.93-1.18,1.46a5.45,5.45,0,0,1-.73.86l-.29.25h0c-.19.17-.39.33-.58.48s-.41.32-.6.49h0l-.42.31a13.76,13.76,0,0,1-1.31.83l-.08.07h0a.14.14,0,0,0,0-.06v0a.13.13,0,0,0,0-.06c0-.1,0-.2,0-.3s0-.3,0-.45,0-.29,0-.43c.09-1.3.15-2.59.28-3.88a2.67,2.67,0,0,0-.75-2.32,4.43,4.43,0,0,0-1.48-.8l-.38-.13a2.3,2.3,0,0,0-.94,0h0l-.17.05-.15,0-.17.08a2,2,0,0,0-.32.18,1.87,1.87,0,0,0-.45.36c-.11.12-.22.25-.32.38h0a2.93,2.93,0,0,0-.27.46.61.61,0,0,0,0,.27c0,.58,0,1.16,0,1.74a15.39,15.39,0,0,0-.14,2.22,23.08,23.08,0,0,1-.18,4.25h0l-.41.2-.31.13-.47.19-1.42.53-.32.13-.41.18a7.77,7.77,0,0,0-1.09.61h0a7.44,7.44,0,0,1,.77.53h0a1.3,1.3,0,0,0,.32.14.72.72,0,0,0,.49,0l.11,0h.06a.29.29,0,0,0,.13.05l1.46.12.73.1c-.18,1.54-.34,3-.53,4.5,0,.42-.12.83-.18,1.25,0,.23-.08.46-.11.69s-.06.43-.09.65c-.09.79-.11,1.59-.18,2.39-.1,1.05-.23,2.1-.33,3.15-.09.81.08,1,.88,1.08a.46.46,0,0,1,.15.09c0,.28.17.4.48.45.91.12,1.81.29,2.72.45a.24.24,0,0,1,.15.09c.22.48.62.28,1,.23.15,0,.39-.16.45-.11.22.22.37,0,.56,0a6.18,6.18,0,0,1,.73-.23A11.71,11.71,0,0,0,92.28,88a21.91,21.91,0,0,0,4.65-3.65v-.12h-.2l0,0,1.17-1.34c.08-.08.16-.2.26-.23.41-.11.57-.49.79-.77a3.65,3.65,0,0,0,.5-.85c0-.1.09-.2.12-.3.26-.67.42-1.4.68-2.07a2.17,2.17,0,0,0,0-.25,1.93,1.93,0,0,0,0-.24A2.27,2.27,0,0,0,100.26,77.52Zm-13.9,9.3c.13-1.12.24-2.24.39-3.36.17-1.28.37-2.56.56-3.84s.4-2.65.57-4c.11-.83.18-1.68.27-2.55A5.65,5.65,0,0,1,90,72.9a11.88,11.88,0,0,1,3.73.68,3.37,3.37,0,0,1,1.84,1.66,7.23,7.23,0,0,1,.49,1A3.62,3.62,0,0,1,96,79a14.17,14.17,0,0,1-1,1.93,17.25,17.25,0,0,1-4.3,4.63c-.32.24-.73.37-1,.63a18.83,18.83,0,0,1-2.29,1.35,5.64,5.64,0,0,1-1.15.34C86.31,87.36,86.33,87.09,86.36,86.82Z"/><path class="cls-2" d="M126.39,28.27a1.23,1.23,0,0,1,0,.19.28.28,0,0,1,0,.15.42.42,0,0,1,0,.1s0,0,0,0a.3.3,0,0,1,0,.1s0,0,0,0a.89.89,0,0,1-.31.33l-.13.08a.34.34,0,0,1-.12.06.73.73,0,0,1-.24.07h0l-.41,0-.24.05-.23.06a2.06,2.06,0,0,0-.35.12,7,7,0,0,0-1,.48l-.68.41A26.08,26.08,0,0,1,120,31.88a4.7,4.7,0,0,1-4.17,0c-.47-.22-.91-.47-1.36-.73s-.89-.53-1.34-.78a0,0,0,0,1,0,0c-.41-.23-.82-.46-1.24-.66a2.31,2.31,0,0,0-.55-.21,2.44,2.44,0,0,0-.85-.06,2.62,2.62,0,0,0-.54.12l-.25.11c-.61.29-1.2.65-1.79,1-.77.42-1.5.9-2.29,1.26a4.86,4.86,0,0,1-4.18,0l-.32-.16a2.1,2.1,0,0,1-.3-.15c-.33-.17-.65-.35-1-.54l-.21-.12-.48-.29-.46-.28c-.33-.19-.67-.39-1-.56a2.71,2.71,0,0,0-2.7,0c-.58.31-1.14.67-1.71,1s-1,.59-1.53.85c0,0,0,0,0,0a4.89,4.89,0,0,1-.51.26,2.5,2.5,0,0,1-.38.15,1.23,1.23,0,0,1-.37.12l-.39.1a4.6,4.6,0,0,1-.91.09,4.53,4.53,0,0,1-.52,0,2.57,2.57,0,0,1-.4-.06l-.18,0-.47-.14a3.12,3.12,0,0,1-.39-.15l-.1,0c-.2-.09-.39-.19-.58-.29L86,31.29l-1.13-.65a0,0,0,0,1,0,0c-.58-.31-1.14-.66-1.72-1a0,0,0,0,1,0,0,2.51,2.51,0,0,0-2.31,0c-.63.31-1.23.69-1.85,1s-1.37.82-2.1,1.15a4.79,4.79,0,0,1-4.18,0l-.56-.28h0l-.83-.47c-.09,0-.18-.1-.27-.15l-.55-.31-.83-.47-.06,0c-.3-.16-.59-.32-.9-.47a2.88,2.88,0,0,0-.56-.2,2.43,2.43,0,0,0-1,0l-.27.08-.25.11c-.27.12-.53.25-.79.39l-.77.43c-.74.42-1.46.89-2.2,1.27a5.06,5.06,0,0,1-2.86.59h-.1l-.24,0a.28.28,0,0,1-.13,0,2.77,2.77,0,0,1-.48-.11s0,0,0,0a3.2,3.2,0,0,1-.52-.18s0,0,0,0a4,4,0,0,1-.47-.22,4.67,4.67,0,0,1-.49-.27c-.47-.26-.93-.55-1.41-.82a0,0,0,0,1,0,0c-.47-.29-1-.57-1.45-.82a4.86,4.86,0,0,0-1.34-.37,1.53,1.53,0,0,1-.93-.42.69.69,0,0,1-.18-.24.48.48,0,0,1-.08-.16h0a1.35,1.35,0,0,1-.06-.5.85.85,0,0,1,0-.23.62.62,0,0,1,.07-.19,1,1,0,0,1,.27-.38l.1-.09.08-.06.11-.05.08,0,.11,0a1.13,1.13,0,0,1,.41-.05h.09q.33,0,.66.06h0a5.59,5.59,0,0,1,.56.12,5.84,5.84,0,0,1,.59.2l.56.26a0,0,0,0,0,0,0c.58.3,1.13.66,1.7,1h0l.4.23.75.44.38.21a2.83,2.83,0,0,0,2.84,0c.52-.27,1-.59,1.52-.89s1.29-.78,2-1.1a5.38,5.38,0,0,1,.55-.24,4.11,4.11,0,0,1,.57-.17A5.4,5.4,0,0,1,67,27a5.79,5.79,0,0,1,1,0h.11l.14,0h0l.34.07a0,0,0,0,1,0,0,.86.86,0,0,1,.23.06s0,0,0,0a1.09,1.09,0,0,1,.24.07l.18.06a4.46,4.46,0,0,1,.5.22c.7.34,1.36.76,2,1.14.51.29,1,.61,1.53.88a1.3,1.3,0,0,0,.32.14,2.78,2.78,0,0,0,2.4-.14c.6-.32,1.17-.69,1.76-1l.89-.52c.3-.16.6-.33.91-.48a5.08,5.08,0,0,1,4.5,0c.76.37,1.44.83,2.2,1.24a0,0,0,0,0,0,0l.71.41c.23.14.46.27.7.39a2.72,2.72,0,0,0,2.65,0c.54-.28,1.06-.6,1.6-.9s1.33-.81,2-1.14a5.06,5.06,0,0,1,3.91-.26l.53.22.39.18,1.09.6h0l1.1.66c.36.21.72.43,1.09.62h0a2.38,2.38,0,0,0,.55.23,1.14,1.14,0,0,0,.25.06,1,1,0,0,0,.25,0,2.53,2.53,0,0,0,1.52-.3c.57-.29,1.11-.62,1.67-.94s1.37-.83,2.09-1.17a5.08,5.08,0,0,1,1-.38,5.81,5.81,0,0,1,.58-.09,4.7,4.7,0,0,1,1.06,0h.15l.39.07.12,0c.18.05.37.1.55.17a4.16,4.16,0,0,1,.54.23l.51.26c.49.27,1,.56,1.46.84l.11.06.09.06.56.33.15.08c.29.17.57.33.87.48a1.39,1.39,0,0,0,.28.12l.22.07a1,1,0,0,0,.23.05.91.91,0,0,0,.23,0,2.48,2.48,0,0,0,1.43-.27c.69-.35,1.36-.76,2-1.16a9.21,9.21,0,0,1,3-1.36,5.23,5.23,0,0,1,1-.09h0a.92.92,0,0,1,.29,0,.49.49,0,0,1,.17.06.69.69,0,0,1,.19.1l.1.08.14.14a1,1,0,0,1,.16.25.64.64,0,0,1,.06.18.78.78,0,0,1,0,.22A1.21,1.21,0,0,1,126.39,28.27Z"/><path class="cls-2" d="M128.82,66.69a.5.5,0,0,1-.15.37l-.09.06a1.83,1.83,0,0,1-.24.13l-.45.19a6.44,6.44,0,0,0-.73.4,5.39,5.39,0,0,0-.5.33l-.38.29a5.34,5.34,0,0,0-.44.39,1.53,1.53,0,0,0-.18.18,1.89,1.89,0,0,0-.2.2l-.33.38A14.19,14.19,0,0,0,124,71.27l-.15.25c-.12.22-.24.44-.35.67a1.55,1.55,0,0,0-.21.59c0,1.08,0,2.16-.11,3.24a8.46,8.46,0,0,1-.34,1.49l0,0a.09.09,0,0,1-.07.06s0,0,0,0l-.26.11c-.25.11-.49.22-.74.31l-.51.16-.27.06a1.35,1.35,0,0,1-.28,0,1.06,1.06,0,0,1-.25,0h-.33l-.15,0a1.3,1.3,0,0,1-.33-.06.59.59,0,0,1-.14-.06.28.28,0,0,1-.13-.11.21.21,0,0,1,0-.06,1.63,1.63,0,0,1-.08-.75c0-.78.11-1.55.17-2.32,0-.18,0-.36,0-.53l0-.53.13-1.59s0,0,0,0a2.16,2.16,0,0,0-.29.59,2.19,2.19,0,0,0-.1.63v.13a3.7,3.7,0,0,0-.29.47,3.1,3.1,0,0,0-.21.45.13.13,0,0,0,0,0,4.58,4.58,0,0,1-.39,1.07,4.32,4.32,0,0,1-.87,1.12,3.79,3.79,0,0,1-.37.31,4.08,4.08,0,0,1-1.71.92,1.34,1.34,0,0,1-.35,0,3.83,3.83,0,0,1-2.54-1.22,5.69,5.69,0,0,1-1.14-2.42c-.09-.49-.21-1-.35-1.58-.45.72-.79,1.32-1.19,1.9-.19.29-.37.57-.57.85l-.59.84q-.61.83-1.26,1.62a3.43,3.43,0,0,1-4.26.66,1,1,0,0,1-.37-.4,4.08,4.08,0,0,1-.53-2.1,21.18,21.18,0,0,1,.93-5.81,4.66,4.66,0,0,0,.24-1,1.59,1.59,0,0,1,.06-.3,1.83,1.83,0,0,1,.08-.25,1.17,1.17,0,0,1,.12-.31,1.87,1.87,0,0,1,.17-.31v0a2.34,2.34,0,0,1,.24-.31.72.72,0,0,1,.41-.22,4.8,4.8,0,0,1,2.28.34c.41.12.44.56.39.9-.12,1-.27,2-.48,3.06a19.09,19.09,0,0,0-.56,4,4.93,4.93,0,0,0,.08.53l0,0a2.44,2.44,0,0,0,.27-.29l.23-.27a.08.08,0,0,0,0,0c.36-.54.69-1.08,1-1.63s.48-.84.7-1.27l0-.05c.22-.4.43-.82.63-1.24.42-.86.81-1.75,1.16-2.65.15-.37.31-.73.46-1.09l0-.06c.14-.34.29-.69.45-1a1.19,1.19,0,0,1,.12-.22.36.36,0,0,1,0-.09l.09-.13a.43.43,0,0,1,.2-.14,1.41,1.41,0,0,1,1,0c.41.22,1,.18,1.2.75a.17.17,0,0,0,.11.06c.59-.13.49.33.57.64a5.11,5.11,0,0,1,0,2.3c-.15,1.13-.27,2.27-.31,3.42a3.74,3.74,0,0,0,1,2.9,2.89,2.89,0,0,0,1.43-1l0-.05a13.4,13.4,0,0,0,1.26-1.94c.12-.2.22-.41.33-.62s.28-.62.41-.93l0,0c.07-.16.15-.31.21-.47s.15-.36.21-.54a7.29,7.29,0,0,0,.3-1.11.1.1,0,0,1,0-.08l0,0,.12-.09c.18,0,.43.06.45-.26v0c.08-.88.19-1.75.24-2.63a1.06,1.06,0,0,1,.33-.77.23.23,0,0,1,.07-.07,2.63,2.63,0,0,1,3-.27c.49.22.54.34.49.87-.07.72-.11,1.46-.17,2.19.12,0,.21,0,.25-.06h0A10.57,10.57,0,0,1,126.31,67l0,0a4.31,4.31,0,0,1,1-.49,2.06,2.06,0,0,1,.82,0A4.57,4.57,0,0,1,128.82,66.69Z"/><path class="cls-2" d="M31.32,66.41l-.93.36.05,0c-.48.12-1,.29-1.45.39s-1.27.16-1.89.28-1.18.31-1.77.49a6.89,6.89,0,0,1-.81.23,15.06,15.06,0,0,0-3.32,1.17c-.06,0-.12.1-.28.24s0,0,0,0c.3,0,.6.1.9.12a1.15,1.15,0,0,1,.76.2l0,0a.9.9,0,0,1,.22.73c0,1.08-.08,2.17-.22,3.24-.18,1.45-.49,2.88-.69,4.32a9.42,9.42,0,0,0-.09,1v0a3.38,3.38,0,0,0,.45,0c1.07-.19,2.14-.34,3.19-.61A6.06,6.06,0,0,1,27,78.54a2.06,2.06,0,0,1,.74.08.47.47,0,0,1,.12.07.08.08,0,0,1,0,0,1.7,1.7,0,0,1,.36.82.92.92,0,0,1-.83.33.68.68,0,0,0-.83.36c-.06.15-.38.23-.59.26a21.69,21.69,0,0,0-4.4,1.26l-.15.1c-.11.84-.22,1.7-.36,2.55-.07.41-.19.81-.29,1.21l0,.18V86a2.3,2.3,0,0,0-.48,1.45c0,.22,0,.45,0,.67v.08c0,.2,0,.41,0,.61v.9l0,0h0a.31.31,0,0,0-.14.24c0,.15.14.28.22.42s0,0,0,0v.42c0,.31,0,.62,0,.94,0,.15,0,.3,0,.45a1,1,0,0,0,.06.48.85.85,0,0,1,.11.26.33.33,0,0,1,0,.14h0a7.83,7.83,0,0,1,.07,1.38l-.22-.08-.54.7a.57.57,0,0,0,0,.12s0,.08,0,.12,0,.17,0,.26a.06.06,0,0,1,0,0c-.42.21-.76-.06-1.13-.18l-.17,1a1.35,1.35,0,0,1-.51-.3.61.61,0,0,1-.15-.23l0-.14a.19.19,0,0,0,0-.1.13.13,0,0,0,0-.09l0,0a1.5,1.5,0,0,1-.56-.5,1.46,1.46,0,0,1-.26-.73s0,0,0,0c-.23-1.14-.42-2.28-.64-3.43l.18-5.41h0l-.1-.09-.1.26h0a.17.17,0,0,0-.1,0l.2-3h0l-.51,0a.07.07,0,0,1,0-.05c.11-.92.18-1,.91-1.35.14-1.1.27-2.22.43-3.34s.33-2.23.52-3.34A5.06,5.06,0,0,0,18,72.77c-.08-.48-.15-1-.19-1.45a.7.7,0,0,1,.11-.38,5.41,5.41,0,0,0,.43-.67h-.07a4.23,4.23,0,0,1-1.66-.07.59.59,0,0,1-.42-.19h0a.49.49,0,0,1-.06-.44,10.06,10.06,0,0,1,2.58-1.64c1-.34,1.94-.75,2.91-1.08s2-.67,3-.95a16.48,16.48,0,0,1,2.08-.37,6,6,0,0,0,1.58-.25,4.17,4.17,0,0,1,1.41-.06c.45,0,.94,0,1.45.07h.11l-.21.13,0,0,.4.11h0Z"/><path class="cls-2" d="M21,86.69a2.13,2.13,0,0,0-.07.94,1.63,1.63,0,0,1-.51,1.26l0,0v-.06c0-.21,0-.42,0-.63v-.08c0-.23,0-.45,0-.68A2.27,2.27,0,0,1,20.85,86h0a.17.17,0,0,1,.06.06.12.12,0,0,1,0,.05s0,0,0,0A.62.62,0,0,1,21,86.69Z"/><path class="cls-2" d="M16.73,85.44h0l-.18,5.39h-.13V87.19c0-.52.07-1,.1-1.57v0l.1-.26Z"/><path class="cls-2" d="M119.54,72.3v0l-.14,1.56h0l-.25-.22v-.13a1.93,1.93,0,0,1,.1-.63A2,2,0,0,1,119.54,72.3Z"/><path class="cls-2" d="M20.5,90.44s0,0,0,0-.22-.27-.22-.42,0-.17.13-.27h0v0l.08.64Z"/><polygon class="cls-2" points="144.61 71.48 144.61 71.47 144.41 71.34 144.4 71.33 144.36 71.3 144.57 71.21 144.62 71.46 144.63 71.49 144.61 71.48"/><path class="cls-3" d="M109.21,107.45a.91.91,0,0,0-.13-.19l.12.19a2.39,2.39,0,0,1-.18,2.66c-.1.16-.22.31-.35.49h0c.13-.18.25-.33.34-.48A2.41,2.41,0,0,0,109.21,107.45Zm.66,5.81a3.2,3.2,0,0,1-.93,1.65,3,3,0,0,0,.94-1.64.52.52,0,0,0,0-.11Zm-2.63,2.48-.3.05.31,0a2,2,0,0,0,.35-.08Zm-4.84.59-.15,0h.16c1-.1,1.94-.2,2.9-.32C104.34,116.14,103.37,116.23,102.4,116.33Z"/><path class="cls-4" d="M125.1,110.51l-.45.06c.15,0,.31,0,.46,0a1,1,0,0,1,.6,0A.85.85,0,0,0,125.1,110.51Zm-1.52.18c-.07.77-.14,1.51-.19,2.26a1.16,1.16,0,0,1-.66,1.08.93.93,0,0,1-.86,0,.86.86,0,0,0,.87,0,1.17,1.17,0,0,0,.67-1.08c0-.74.12-1.48.18-2.26a1.66,1.66,0,0,0,.22,0Zm2.67.49c.34.56.72,1.09,1.11,1.64C127,112.27,126.61,111.74,126.25,111.18ZM127,106a.94.94,0,0,1,.81.85A.87.87,0,0,0,127,106Zm1.71,7.36-.09.06.11-.05a.85.85,0,0,0,.25-.17,1.07,1.07,0,0,0,.13-.19A.91.91,0,0,1,128.72,113.34Zm.81-7a1.53,1.53,0,0,0-.07-.36c0,.11,0,.23,0,.34a3.32,3.32,0,0,1-1.42,3.26l-.45.34a.77.77,0,0,0-.06.14.31.31,0,0,1,.08-.13l.45-.33A3.35,3.35,0,0,0,129.53,106.34Z"/><path class="cls-3" d="M116.83,105.56a.76.76,0,0,0-.21-.08.88.88,0,0,1,.36.21A.93.93,0,0,0,116.83,105.56Zm-1.26.27a1.69,1.69,0,0,0-.23.36c-1.48,2.6-2.94,5.2-4.41,7.8a1.57,1.57,0,0,0-.2.46.85.85,0,0,0,0,.32.83.83,0,0,0,.08.22.69.69,0,0,1,0-.53,1.51,1.51,0,0,1,.2-.45c1.47-2.61,2.93-5.21,4.41-7.81a1.63,1.63,0,0,1,.23-.35.9.9,0,0,1,.47-.37A.8.8,0,0,0,115.57,105.83Z"/><path class="cls-5" d="M51.06,120a.86.86,0,0,0-.82.06,1,1,0,0,0-.35,1.33,1.18,1.18,0,0,0,.23.27,1,1,0,0,1-.28-1.27,1,1,0,0,1,.36-.36A.81.81,0,0,1,51.06,120Z"/><path class="cls-5" d="M50.29,115a3.13,3.13,0,0,1,1.39-2.12,4.88,4.88,0,0,1,1.58-.75l-.2.07a5,5,0,0,0-1.34.67A3.13,3.13,0,0,0,50.33,115a1.86,1.86,0,0,0,1.26,2.3,15.25,15.25,0,0,0,1.77.44c.22,0,.43.09.65.15l-.68-.15a14.93,14.93,0,0,1-1.78-.44A1.85,1.85,0,0,1,50.29,115Z"/><path class="cls-5" d="M54.17,112a5.52,5.52,0,0,0-.71.11A5.52,5.52,0,0,1,54.17,112Z"/><path class="cls-5" d="M55.2,118.41a.89.89,0,0,1,0,1.12,2,2,0,0,1-1.59.92,3.9,3.9,0,0,1-2.46-.43l0,0a3.89,3.89,0,0,0,2.46.43,2,2,0,0,0,1.59-.92A.9.9,0,0,0,55.2,118.41Z"/><path class="cls-5" d="M56.12,114a.7.7,0,0,1-.32,0h0a3.77,3.77,0,0,0-1-.31,3.37,3.37,0,0,1,1,.3A.77.77,0,0,0,56.12,114Z"/><path class="cls-6" d="M59.45,44.54v1C59.43,45.24,59.45,44.92,59.45,44.54Z"/><path class="cls-6" d="M118,46.72a9,9,0,0,1-8.78,6.94H68.42a8.93,8.93,0,0,1-6.68-2.93,9,9,0,0,0,6.67,2.91h40.75a8.94,8.94,0,0,0,8.78-6.94,5.26,5.26,0,0,0,.19-2.16h0A5.37,5.37,0,0,1,118,46.72Z"/><path class="cls-6" d="M105.31,11.81c-.46,1.09-.9,2.18-1.38,3.25a1.5,1.5,0,0,1-.3.48.53.53,0,0,0,.12-.14,1.17,1.17,0,0,0,.2-.34c.47-1.07.92-2.16,1.37-3.25a.92.92,0,0,0,0-.33A1.82,1.82,0,0,1,105.31,11.81ZM101.73,13l.6-.27-.61.26a1.56,1.56,0,0,0-.84,1.36,1.51,1.51,0,0,0,.53,1.21l.16.12a1.61,1.61,0,0,1-.47-.54A1.58,1.58,0,0,1,101.73,13ZM88.62,10.13l-.14,0-.13,0h0l-.07,0s0,0,.07,0l.06,0a.94.94,0,0,0,.24.06h.21Zm-8.31,4.8a1.19,1.19,0,0,0,.08.2l.06.09A2.59,2.59,0,0,1,80.31,14.93Zm.33.54h0a.75.75,0,0,0,.16.15.05.05,0,0,0,0,0Zm2.6-.45a1.54,1.54,0,0,1-1.66.94,2,2,0,0,1-.57-.19,1,1,0,0,0,.33.15.94.94,0,0,0,.24.06,1.53,1.53,0,0,0,1.66-.93l.24-.57Zm-2.88-9c-.85.36-1.7.69-2.53,1.07a1,1,0,0,0-.29.18,1.17,1.17,0,0,1,.29-.17c.83-.38,1.68-.71,2.53-1.07l.56-.24ZM72.91,4.52l-.69.28.71-.28c.48-.19,1-.36,1.44-.53C73.89,4.15,73.4,4.33,72.91,4.52Zm0,10.58a1.53,1.53,0,0,1-1.69.86h0a1.54,1.54,0,0,0,1.7-.86l.72-1.73C73.37,14,73.12,14.54,72.86,15.1Zm-9.7-3.9a14.64,14.64,0,0,0-3.62,7.85c0,.17,0,.35,0,.52,0-.18,0-.35,0-.52a14.79,14.79,0,0,1,3.62-7.85c.21-.25.42-.48.63-.71C63.57,10.72,63.36,11,63.16,11.2Zm-3.71,9.4c0,.87,0,1.74-.05,2.61a.82.82,0,0,0,0,.27,2.44,2.44,0,0,1,0-.27C59.44,22.34,59.42,21.47,59.45,20.6Zm0,3.06a.45.45,0,0,1,0,.11h0S59.44,23.7,59.43,23.66Z"/><path class="cls-3" d="M50.89,86.38a5.05,5.05,0,0,1-2.08,3.22,2,2,0,0,1-.85.3,2.19,2.19,0,0,0,.83-.3,5.05,5.05,0,0,0,2.08-3.22,2.79,2.79,0,0,0-.14-2,1.46,1.46,0,0,1,0-.2l-.43-1.36h0l.43,1.37a1.46,1.46,0,0,0,0,.2A2.79,2.79,0,0,1,50.89,86.38Z"/><path class="cls-2" d="M145.07,73.45c-.33-.43-.21-1-.3-1.42.14-.38,0-.86.49-1.21Z"/><path class="cls-2" d="M135.32,78.13c-.22.28-.46.55-.71.81a2.16,2.16,0,0,1-.59.29c.18-.31.34-.63.53-.93S135.05,78.15,135.32,78.13Z"/><path class="cls-2" d="M136.59,76.71l-.57.13h0c0-.38.29-.48.56-.73v.6Z"/><path class="cls-2" d="M108,113.27a1.32,1.32,0,0,1-.33.56l-.12.11a1.12,1.12,0,0,1-.43.23l-.12,0-.12,0-.61.08-.61.07-1,.1-1.25.13c.07-.83.13-1.6.2-2.4l2-.25c.42,0,.84-.12,1.26-.15a1.59,1.59,0,0,1,.38,0,.8.8,0,0,1,.21,0l.18.08.13.1,0,0a.69.69,0,0,1,.11.13,1.14,1.14,0,0,1,.09.16A1.27,1.27,0,0,1,108,113.27Z"/><path class="cls-2" d="M107.68,109.28a1.22,1.22,0,0,1-.34.63,1.07,1.07,0,0,1-.65.33c-.89.11-1.78.19-2.66.28a.7.7,0,0,1-.25,0l.14-1.79a.41.41,0,0,0,0-.09s0,0,0,0l.71-.1h0l.71-.1c.47-.06,1-.12,1.42-.15h.08a.88.88,0,0,1,.33.06,1,1,0,0,1,.24.15.68.68,0,0,1,.15.26s0,0,0,.06,0,0,0,0A1,1,0,0,1,107.68,109.28Z"/><path class="cls-2" d="M127.83,107.08v.09a1.66,1.66,0,0,1-1.25,1.61c-.92.16-1.85.23-2.86.35.06-1,.13-1.91.19-2.86l.71-.08L126,106h0l.64,0h.16l.21,0a.86.86,0,0,1,.81.85A1.77,1.77,0,0,1,127.83,107.08Z"/><path class="cls-2" d="M74.59,116.05l-3.23.36,1.93-3.55Z"/><path class="cls-2" d="M117.36,111.27l-1.53.19-1.67.17c.6-1.22,1.24-2.31,1.94-3.54Z"/><path class="cls-2" d="M95.12,11.42c-.56,1.35-1,2.55-1.57,3.72A1.54,1.54,0,0,1,91.9,16a1.6,1.6,0,0,1-1.32-1.3A1.51,1.51,0,0,1,91.45,13C92.61,12.47,93.79,12,95.12,11.42Z"/><path class="cls-2" d="M102.11,5.78c-.48,1.18-1,2.38-1.51,3.55a1.54,1.54,0,0,1-1.66.81,1.58,1.58,0,0,1-1.29-1.32,1.52,1.52,0,0,1,.81-1.65c1.17-.53,2.36-1,3.54-1.5Z"/><path class="cls-2" d="M105.32,11.49a.91.91,0,0,1,0,.33c-.45,1.08-.9,2.17-1.37,3.25a1.45,1.45,0,0,1-.66.74.75.75,0,0,1-.13.06l-.18.07-.18,0a1.61,1.61,0,0,1-.38,0h-.07l-.15,0a1.55,1.55,0,0,1-1.32-1.59,1.57,1.57,0,0,1,.84-1.36c.56-.25,1.13-.49,1.71-.73l.06,0Z"/><path class="cls-2" d="M84.69,11.61c-.4,1-.81,1.92-1.21,2.87l-.24.57a1.54,1.54,0,0,1-1.66.94,1.63,1.63,0,0,1-1.34-1.27l0-.2a1.53,1.53,0,0,1,0-.37c0-.07,0-.15,0-.21l.08-.21a1.54,1.54,0,0,1,.79-.76c1.15-.51,2.32-1,3.48-1.45Z"/><path class="cls-2" d="M74.34,11.62c-.24.59-.49,1.17-.73,1.76l-.72,1.73a1.55,1.55,0,0,1-1.7.87l-.07,0h0l-.13,0,0,0-.18-.08a1.63,1.63,0,0,1-.82-1.1,1.5,1.5,0,0,1,.8-1.71c1.17-.53,2.35-1,3.53-1.5Z"/><path class="cls-2" d="M81.48,5.6l-.2.49-.4,1c-.25.61-.5,1.21-.76,1.79l-.18.43a1.54,1.54,0,0,1-1.62.89,1.68,1.68,0,0,1-.82-.35l-.09-.09-.09-.09-.07-.1a.61.61,0,0,1-.07-.1s0-.08-.06-.11l-.06-.12a1.56,1.56,0,0,1-.1-.37,1.51,1.51,0,0,1,0-.72L77,8a1.66,1.66,0,0,1,.13-.27l0-.07a1,1,0,0,1,.21-.24.69.69,0,0,1,.13-.11,1.19,1.19,0,0,1,.29-.18c.83-.38,1.68-.71,2.53-1.06l.56-.24Z"/><path class="cls-2" d="M91.81,5.61l-.12.28a.92.92,0,0,1-.09.23s0,.08,0,.12,0,.13-.08.18a.3.3,0,0,1,0,.1c-.36.89-.73,1.78-1.12,2.66a1.74,1.74,0,0,1-.1.19.36.36,0,0,1-.07.1.1.1,0,0,1,0,.07.57.57,0,0,1-.11.11,1.35,1.35,0,0,1-.4.31l0,0a.2.2,0,0,1-.08,0,1.48,1.48,0,0,1-.86.12,1.57,1.57,0,0,1-1.31-1.29,1.49,1.49,0,0,1,0-.42.2.2,0,0,1,0-.07.25.25,0,0,1,0-.08,1.21,1.21,0,0,1,.11-.37.36.36,0,0,1,0-.09l.09-.16a1.43,1.43,0,0,1,.15-.18,1.49,1.49,0,0,1,.59-.39C89.4,6.6,90.52,6.14,91.81,5.61Z"/></g></g></g></g></svg>